<svg width="256" height="161" viewBox="0 0 256 161" fill="none" xmlns="http://www.w3.org/2000/svg">
<g clip-path="url(#clip0_2_4746)">
<rect width="255.215" height="161" rx="9.4513" fill="#20201B"/>
<g filter="url(#filter0_d_2_4746)">
<path d="M178.507 147.304L250.453 22.6912L322.398 147.304L178.507 147.304Z" fill="white"/>
</g>
<g filter="url(#filter1_d_2_4746)">
<path d="M87.8432 223.518L145.32 123.965L202.796 223.518L87.8432 223.518Z" fill="white"/>
</g>
<g filter="url(#filter2_d_2_4746)">
<path d="M143.14 165.311L215.085 40.6975L287.03 165.311L143.14 165.311Z" fill="white"/>
</g>
<g filter="url(#filter3_d_2_4746)">
<path d="M143.14 165.311L215.085 40.6975L287.03 165.311L143.14 165.311Z" fill="white"/>
</g>
<path d="M16.3977 93.8831L-0.321533 72.0194V93.8831H16.3977Z" fill="#1D1D1D"/>
<path d="M88.5539 137.611L76.5227 152.401H102.245L88.5539 137.611Z" fill="#FFF741"/>
<path d="M35.1499 115.104L18.0054 138.897H54.6592L35.1499 115.104Z" fill="#FFF741"/>
<path d="M10.4858 76.5226L-0.643066 91.9558H23.1497L10.4858 76.5226Z" fill="#FFF741"/>
<g filter="url(#filter4_d_2_4746)">
<path d="M37.5147 162.691L54.6592 138.898L18.0054 138.898L37.5147 162.691Z" fill="#2A2A2A"/>
</g>
<g filter="url(#filter5_d_2_4746)">
<path d="M0.860857 162.691L18.0054 138.898L-18.6484 138.898L0.860857 162.691Z" fill="#2A2A2A"/>
</g>
<g filter="url(#filter6_d_2_4746)">
<path d="M18.2232 138.254L35.3677 162.047L-1.28611 162.047L18.2232 138.254Z" fill="#FFF741"/>
</g>
<g filter="url(#filter7_d_2_4746)">
<path d="M-0.425276 91.3132L16.7192 115.106L-19.9345 115.106L-0.425276 91.3132Z" fill="#FFF741"/>
</g>
<path d="M54.0991 138.255L36.6538 162.466H73.9506L54.0991 138.255Z" fill="#FFF741"/>
<g filter="url(#filter8_d_2_4746)">
<path d="M18.2232 138.897L35.3677 115.104L-1.28611 115.104L18.2232 138.897Z" fill="#FFF741"/>
</g>
<g filter="url(#filter9_d_2_4746)">
<path d="M-0.425276 91.9562L16.7192 68.1634L-19.9345 68.1634L-0.425276 91.9562Z" fill="#FFF741"/>
</g>
<g filter="url(#filter10_d_2_4746)">
<path d="M16.7194 115.106L36.0107 91.956L-2.25069 91.6345L16.7194 115.106Z" fill="#2A2A2A"/>
</g>
<path d="M183.269 100.637L236.963 85.8468L196.451 79.0948L228.282 70.4137L205.454 64.6262L214.778 56.2666" stroke="black" stroke-opacity="0.1" stroke-width="0.643049"/>
<rect x="25.6407" y="57.5427" width="30.7093" height="23.2556" rx="4.47222" fill="url(#paint0_linear_2_4746)" stroke="#666666" stroke-width="0.596296"/>
<path fill-rule="evenodd" clip-rule="evenodd" d="M35.7102 72.7054C35.731 75.6676 38.5174 79.199 40.4365 80.3403C40.4736 80.3597 40.5061 80.3866 40.5321 80.4193C40.5581 80.452 40.5769 80.4899 40.5873 80.5303C40.5977 80.5708 40.5994 80.613 40.5925 80.6542C40.5855 80.6954 40.5699 80.7347 40.5468 80.7695C40.5187 80.8164 40.479 80.8553 40.4315 80.8824C40.384 80.9096 40.3303 80.924 40.2756 80.9244C40.2198 80.9246 40.1651 80.9091 40.1177 80.8797C38.0704 79.6728 35.2691 76.1444 35.0903 72.9855H25.6554C25.5773 72.9779 25.5049 72.9415 25.4521 72.8834C25.3994 72.8253 25.3702 72.7496 25.3702 72.6711C25.3702 72.5927 25.3994 72.517 25.4521 72.4589C25.5049 72.4008 25.5773 72.3644 25.6554 72.3567H35.1499C35.7446 70.2726 35.7446 68.0636 35.1499 65.9794H25.6554C25.5724 65.9794 25.4929 65.9464 25.4342 65.8878C25.3755 65.8291 25.3425 65.7495 25.3425 65.6665C25.3425 65.5835 25.3755 65.5039 25.4342 65.4452C25.4929 65.3866 25.5724 65.3536 25.6554 65.3536H35.0903C35.2691 62.1828 38.0823 58.6663 40.1177 57.4594C40.1908 57.4171 40.2777 57.4056 40.3593 57.4274C40.4409 57.4492 40.5105 57.5025 40.5528 57.5756C40.5951 57.6487 40.6066 57.7357 40.5848 57.8173C40.563 57.8988 40.5097 57.9684 40.4365 58.0107C38.5174 59.1372 35.731 62.6715 35.7102 65.6367C36.3927 67.9435 36.3927 70.3986 35.7102 72.7054ZM45.3954 62.481C44.3255 60.3443 42.6448 58.6665 41.5392 58.0109C41.4661 57.9686 41.4127 57.899 41.3909 57.8175C41.3692 57.7359 41.3807 57.6489 41.4229 57.5758C41.4652 57.5027 41.5348 57.4494 41.6164 57.4276C41.698 57.4058 41.7849 57.4173 41.858 57.4596C43.3063 58.3089 44.9901 60.2579 45.9556 62.183C45.9789 62.2199 45.9937 62.2614 45.9992 62.3046C46.0047 62.3479 46.0006 62.3918 45.9872 62.4333C45.9739 62.4748 45.9516 62.5128 45.9219 62.5447C45.8922 62.5767 45.8559 62.6017 45.8156 62.6181C45.7725 62.6413 45.7244 62.6536 45.6755 62.6539C45.6174 62.6539 45.5603 62.6378 45.5109 62.6073C45.4614 62.5767 45.4214 62.533 45.3954 62.481ZM56.3352 72.357H46.8228C46.2282 70.2728 46.2282 68.0639 46.8228 65.9797H56.3352C56.4182 65.9797 56.4978 65.9467 56.5564 65.888C56.6151 65.8293 56.6481 65.7498 56.6481 65.6668C56.6481 65.5838 56.6151 65.5042 56.5564 65.4455C56.4978 65.3868 56.4182 65.3539 56.3352 65.3539H46.5814C46.5136 65.3546 46.4479 65.3774 46.3941 65.4188C46.3404 65.4602 46.3015 65.5179 46.2834 65.5833C45.5906 67.9069 45.5906 70.3821 46.2834 72.7057C46.2626 75.6679 43.4762 79.1992 41.557 80.3406C41.519 80.3588 41.4853 80.3849 41.4581 80.4172C41.4309 80.4494 41.4109 80.4871 41.3994 80.5277C41.3878 80.5682 41.385 80.6108 41.3911 80.6525C41.3973 80.6942 41.4122 80.7342 41.4349 80.7697C41.463 80.8166 41.5027 80.8555 41.5502 80.8827C41.5977 80.9098 41.6514 80.9243 41.7061 80.9247C41.7618 80.9249 41.8166 80.9094 41.864 80.88C43.8994 79.688 46.7126 76.1447 46.8914 72.9858H56.3352C56.4133 72.9782 56.4858 72.9418 56.5385 72.8837C56.5912 72.8255 56.6204 72.7499 56.6204 72.6714C56.6204 72.5929 56.5912 72.5173 56.5385 72.4591C56.4858 72.401 56.4133 72.3646 56.3352 72.357ZM40.6766 59.1662C40.7687 59.1046 40.8771 59.0718 40.9879 59.0718C41.1364 59.0718 41.2789 59.1308 41.384 59.2359C41.4891 59.3409 41.5481 59.4834 41.5481 59.632C41.5481 59.7428 41.5153 59.8512 41.4537 59.9433C41.3921 60.0354 41.3046 60.1072 41.2023 60.1496C41.0999 60.192 40.9872 60.2031 40.8786 60.1815C40.7699 60.1599 40.6701 60.1065 40.5917 60.0282C40.5133 59.9498 40.46 59.85 40.4384 59.7413C40.4168 59.6327 40.4278 59.52 40.4703 59.4176C40.5127 59.3153 40.5845 59.2278 40.6766 59.1662Z" fill="#666666"/>
<path d="M64.4227 67.1296C64.3542 67.0369 64.3046 66.9316 64.2769 66.8198C64.2491 66.7079 64.2436 66.5917 64.2607 66.4777C64.2953 66.2475 64.42 66.0405 64.6072 65.9022C64.7944 65.764 65.0289 65.7057 65.2591 65.7403C65.4893 65.7749 65.6963 65.8995 65.8346 66.0868C66.1589 66.522 66.4124 67.0058 66.5856 67.5202C66.7657 68.0539 66.8571 68.6135 66.856 69.1767C66.8566 69.7385 66.7653 70.2967 66.5856 70.829C66.4124 71.3434 66.1589 71.8272 65.8346 72.2624C65.6963 72.4496 65.4893 72.5743 65.2591 72.6089C65.0289 72.6435 64.7944 72.5852 64.6072 72.4469C64.42 72.3086 64.2953 72.1016 64.2607 71.8714C64.2261 71.6413 64.2844 71.4068 64.4227 71.2195C64.637 70.9343 64.805 70.6172 64.9205 70.2797C65.0433 69.9248 65.1071 69.5522 65.1093 69.1767C65.1108 68.8034 65.0514 68.4323 64.9334 68.0781C64.8147 67.7368 64.6423 67.4166 64.4227 67.1296ZM67.4268 65.4945C68.1099 66.6009 68.4696 67.8765 68.4654 69.1767C68.4712 70.4747 68.1145 71.7485 67.4354 72.8546C67.3748 72.9527 67.3341 73.0617 67.3157 73.1755C67.2972 73.2893 67.3014 73.4056 67.3279 73.5178C67.3544 73.63 67.4027 73.7358 67.4701 73.8293C67.5375 73.9228 67.6227 74.0021 67.7208 74.0627C67.8188 74.1233 67.9279 74.164 68.0416 74.1824C68.1554 74.2009 68.2717 74.1967 68.3839 74.1702C68.4961 74.1437 68.602 74.0954 68.6955 74.028C68.789 73.9606 68.8683 73.8754 68.9288 73.7773C69.7798 72.3944 70.2258 70.8005 70.2163 69.1767C70.2264 67.5516 69.7803 65.9561 68.9288 64.5718C68.8683 64.4738 68.789 64.3886 68.6955 64.3212C68.602 64.2538 68.4961 64.2054 68.3839 64.1789C68.2717 64.1524 68.1554 64.1483 68.0416 64.1667C67.9279 64.1852 67.8188 64.2259 67.7208 64.2865C67.6227 64.347 67.5375 64.4263 67.4701 64.5198C67.4027 64.6133 67.3544 64.7192 67.3279 64.8314C67.3014 64.9436 67.2972 65.0599 67.3157 65.1737C67.3341 65.2874 67.3748 65.3965 67.4354 65.4945H67.4268ZM70.624 63.8423C71.5723 65.4663 72.0715 67.3133 72.0703 69.1939C72.0709 71.0731 71.5718 72.9186 70.624 74.5412C70.5657 74.6407 70.5275 74.7507 70.5117 74.8649C70.4959 74.9791 70.5027 75.0954 70.5318 75.2069C70.5609 75.3185 70.6117 75.4233 70.6813 75.5152C70.7508 75.6072 70.8378 75.6845 70.9373 75.7429C71.0368 75.8012 71.1468 75.8394 71.261 75.8552C71.3752 75.871 71.4914 75.8642 71.603 75.8351C71.7146 75.806 71.8194 75.7552 71.9113 75.6856C72.0033 75.6161 72.0806 75.5291 72.139 75.4296C73.2469 73.5401 73.8293 71.3886 73.8256 69.1982C73.8329 66.9998 73.252 64.8394 72.1433 62.941C72.0237 62.7396 71.8291 62.5938 71.6021 62.5359C71.3752 62.4779 71.1345 62.5125 70.933 62.632C70.7316 62.7516 70.5858 62.9462 70.5279 63.1732C70.4699 63.4001 70.5045 63.6408 70.624 63.8423ZM73.8084 62.1686C75.0281 64.3087 75.6672 66.7306 75.6624 69.1939C75.6667 71.6558 75.0276 74.0761 73.8084 76.215C73.752 76.315 73.7159 76.4251 73.7021 76.5391C73.6884 76.6531 73.6972 76.7687 73.728 76.8793C73.7589 76.9899 73.8113 77.0933 73.8821 77.1837C73.953 77.274 74.041 77.3495 74.141 77.4059C74.241 77.4622 74.3512 77.4983 74.4652 77.5121C74.5792 77.5259 74.6947 77.5171 74.8053 77.4862C74.9159 77.4553 75.0193 77.403 75.1097 77.3321C75.2 77.2613 75.2756 77.1733 75.3319 77.0733C76.7016 74.6686 77.4205 71.9484 77.4176 69.181C77.424 66.4064 76.705 63.6784 75.3319 61.2673C75.2181 61.0653 75.0287 60.9167 74.8053 60.8544C74.582 60.792 74.343 60.8209 74.141 60.9347C73.939 61.0485 73.7904 61.238 73.728 61.4613C73.6657 61.6846 73.6946 61.9236 73.8084 62.1256" fill="#323232"/>
<path d="M224.442 119.526H208.475V145.606H224.442V119.526Z" fill="#FF5F00"/>
<path d="M210.12 132.568C210.118 130.057 210.687 127.578 211.785 125.32C212.882 123.061 214.479 121.082 216.454 119.531C214.008 117.608 211.069 116.413 207.975 116.081C204.881 115.749 201.756 116.294 198.958 117.654C196.159 119.014 193.799 121.134 192.148 123.772C190.498 126.41 189.622 129.459 189.622 132.571C189.622 135.682 190.498 138.731 192.148 141.369C193.799 144.007 196.159 146.127 198.958 147.487C201.756 148.847 204.881 149.392 207.975 149.061C211.069 148.729 214.008 147.533 216.454 145.61C214.478 144.059 212.881 142.079 211.784 139.819C210.686 137.56 210.117 135.08 210.12 132.568Z" fill="#EB001B"/>
<path d="M241.704 142.846V142.312H241.934V142.201H241.386V142.312H241.603V142.846H241.704ZM242.768 142.846V142.201H242.602L242.409 142.662L242.215 142.201H242.05V142.846H242.169V142.358L242.349 142.777H242.473L242.653 142.358V142.846H242.768Z" fill="#F79E1B"/>
<path d="M243.289 132.568C243.289 135.68 242.413 138.729 240.762 141.367C239.111 144.005 236.751 146.125 233.951 147.485C231.152 148.845 228.027 149.39 224.933 149.057C221.839 148.725 218.901 147.529 216.454 145.606C218.429 144.054 220.025 142.074 221.123 139.815C222.221 137.556 222.791 135.077 222.791 132.566C222.791 130.055 222.221 127.576 221.123 125.317C220.025 123.058 218.429 121.078 216.454 119.526C218.901 117.603 221.839 116.407 224.933 116.074C228.027 115.742 231.152 116.287 233.951 117.647C236.751 119.007 239.111 121.127 240.762 123.765C242.413 126.403 243.289 129.452 243.289 132.564V132.568Z" fill="#F79E1B"/>
<path d="M14.334 14.8587V29.8203H16.0288V18.453H16.175L20.8505 29.8203H22.4869L27.1624 18.453H27.3085V29.8203H29.0034V14.8587H26.841L21.7563 27.278H21.581L16.4964 14.8587H14.334ZM33.2707 29.8203L34.7756 25.5831H40.8245L42.3295 29.8203H44.2289L38.7352 14.8587H36.865L31.3712 29.8203H33.2707ZM35.3454 23.9759L37.7416 17.2257H37.8585L40.2547 23.9759H35.3454ZM47.194 29.8203L48.6989 25.5831H54.7478L56.2528 29.8203H58.1522L52.6585 14.8587H50.7883L45.2946 29.8203H47.194ZM49.2687 23.9759L51.6649 17.2257H51.7818L54.178 23.9759H49.2687ZM57.691 14.8587L63.0971 23.6545V29.8203H64.9088V23.6545L70.3149 14.8587H68.2401L64.0906 21.8427H63.9153L59.7658 14.8587H57.691ZM71.7659 29.8203L73.2708 25.5831H79.3198L80.8247 29.8203H82.7241L77.2304 14.8587H75.3602L69.8665 29.8203H71.7659ZM73.8407 23.9759L76.2369 17.2257H76.3538L78.7499 23.9759H73.8407ZM96.9397 14.8587H95.1571V26.6351H95.011L86.8289 14.8587H85.0756V29.8203H86.8873V18.0731H87.0334L95.1863 29.8203H96.9397V14.8587Z" fill="#7B7B7B"/>
<path d="M13.9979 48.8203H16.7083V43.7649H19.572C23.0275 43.7649 24.8831 41.6902 24.8831 38.8118C24.8831 35.9554 23.0494 33.8587 19.6085 33.8587H13.9979V48.8203ZM16.7083 41.5367V36.1234H19.1921C21.223 36.1234 22.1216 37.2192 22.1216 38.8118C22.1216 40.4044 21.223 41.5367 19.2067 41.5367H16.7083ZM27.5121 48.8203L28.7467 45.131H34.372L35.6139 48.8203H38.5069L33.2323 33.8587H29.8864L24.6192 48.8203H27.5121ZM29.4773 42.954L31.5009 36.927H31.6178L33.6414 42.954H29.4773ZM37.9489 33.8587L43.3915 43.2389V48.8203H46.0945V43.2389L51.5371 33.8587H48.4761L44.816 40.4775H44.6699L41.0099 33.8587H37.9489ZM53.4776 33.8587V48.8203H56.0783V38.5196H56.2171L60.352 48.7765H62.2953L66.4302 38.5415H66.569V48.8203H69.1697V33.8587H65.8531L61.4113 44.7H61.236L56.7943 33.8587H53.4776ZM72.1421 48.8203H81.9315V46.5483H74.8525V42.4645H81.369V40.1925H74.8525V36.1307H81.873V33.8587H72.1421V48.8203ZM96.9543 33.8587H94.2585V44.0571H94.1271L87.0846 33.8587H84.6592V48.8203H87.3695V38.6292H87.4937L94.5435 48.8203H96.9543V33.8587ZM99.271 36.1307H103.895V48.8203H106.584V36.1307H111.208V33.8587H99.271V36.1307ZM121.661 37.9717H124.269C124.218 35.444 122.063 33.6541 118.878 33.6541C115.737 33.6541 113.377 35.4221 113.384 38.0666C113.384 40.2145 114.911 41.4491 117.373 42.0847L119.075 42.523C120.69 42.9321 121.756 43.4362 121.764 44.5977C121.756 45.8762 120.544 46.7309 118.776 46.7309C117.081 46.7309 115.766 45.9712 115.656 44.4005H112.99C113.099 47.3738 115.313 49.0468 118.798 49.0468C122.385 49.0468 124.467 47.2569 124.474 44.6197C124.467 42.0262 122.326 40.8427 120.076 40.3094L118.673 39.9588C117.446 39.6665 116.116 39.1479 116.131 37.8986C116.138 36.7736 117.147 35.9481 118.841 35.9481C120.456 35.9481 121.523 36.7005 121.661 37.9717Z" fill="#515151"/>
<path d="M30.7474 105.084C32.812 105.084 34.326 103.559 34.326 101.484C34.326 99.3826 32.8649 97.8421 30.8745 97.8421C30.1439 97.8421 29.4345 98.1015 28.9898 98.4561H28.9263L29.3075 95.2587H33.839V94.094H28.2064L27.5499 99.4302L28.7781 99.5784C29.2281 99.2555 29.9957 99.0226 30.6627 99.0279C32.0444 99.0385 33.0555 100.087 33.0555 101.505C33.0555 102.898 32.0814 103.919 30.7474 103.919C29.6357 103.919 28.7516 103.205 28.651 102.225H27.3805C27.4599 103.877 28.884 105.084 30.7474 105.084ZM39.7268 105.084C42.1196 105.084 43.496 103.056 43.496 99.5149C43.496 95.9998 42.0984 93.9458 39.7268 93.9458C37.3551 93.9458 35.9575 95.9998 35.9575 99.5149C35.9575 103.056 37.3339 105.084 39.7268 105.084ZM39.7268 103.919C38.1492 103.919 37.2281 102.337 37.2281 99.5149C37.2281 96.6986 38.1598 95.0893 39.7268 95.0893C41.2937 95.0893 42.2254 96.6986 42.2254 99.5149C42.2254 102.337 41.3043 103.919 39.7268 103.919ZM48.8054 105.084C51.1982 105.084 52.5746 103.056 52.5746 99.5149C52.5746 95.9998 51.177 93.9458 48.8054 93.9458C46.4337 93.9458 45.0362 95.9998 45.0362 99.5149C45.0362 103.056 46.4126 105.084 48.8054 105.084ZM48.8054 103.919C47.2278 103.919 46.3067 102.337 46.3067 99.5149C46.3067 96.6986 47.2384 95.0893 48.8054 95.0893C50.3723 95.0893 51.304 96.6986 51.304 99.5149C51.304 102.337 50.3829 103.919 48.8054 103.919ZM57.884 105.084C60.2768 105.084 61.6532 103.056 61.6532 99.5149C61.6532 95.9998 60.2556 93.9458 57.884 93.9458C55.5123 93.9458 54.1148 95.9998 54.1148 99.5149C54.1148 103.056 55.4912 105.084 57.884 105.084ZM57.884 103.919C56.3064 103.919 55.3853 102.337 55.3853 99.5149C55.3853 96.6986 56.317 95.0893 57.884 95.0893C59.4509 95.0893 60.3827 96.6986 60.3827 99.5149C60.3827 102.337 59.4615 103.919 57.884 103.919Z" fill="#AAAEAF"/>
<path d="M74.7235 105.084C77.1163 105.084 78.4927 103.056 78.4927 99.5144C78.4927 95.9993 77.0951 93.9453 74.7235 93.9453C72.3519 93.9453 70.9543 95.9993 70.9543 99.5144C70.9543 103.056 72.3307 105.084 74.7235 105.084ZM74.7235 103.919C73.1459 103.919 72.2248 102.336 72.2248 99.5144C72.2248 96.6981 73.1565 95.0888 74.7235 95.0888C76.2905 95.0888 77.2222 96.6981 77.2222 99.5144C77.2222 102.336 76.3011 103.919 74.7235 103.919ZM83.8021 105.084C86.1949 105.084 87.5713 103.056 87.5713 99.5144C87.5713 95.9993 86.1738 93.9453 83.8021 93.9453C81.4305 93.9453 80.0329 95.9993 80.0329 99.5144C80.0329 103.056 81.4093 105.084 83.8021 105.084ZM83.8021 103.919C82.2246 103.919 81.3034 102.336 81.3034 99.5144C81.3034 96.6981 82.2351 95.0888 83.8021 95.0888C85.3691 95.0888 86.3008 96.6981 86.3008 99.5144C86.3008 102.336 85.3797 103.919 83.8021 103.919ZM92.8807 105.084C95.2735 105.084 96.6499 103.056 96.6499 99.5144C96.6499 95.9993 95.2524 93.9453 92.8807 93.9453C90.5091 93.9453 89.1115 95.9993 89.1115 99.5144C89.1115 103.056 90.4879 105.084 92.8807 105.084ZM92.8807 103.919C91.3032 103.919 90.382 102.336 90.382 99.5144C90.382 96.6981 91.3138 95.0888 92.8807 95.0888C94.4477 95.0888 95.3794 96.6981 95.3794 99.5144C95.3794 102.336 94.4583 103.919 92.8807 103.919ZM101.959 105.084C104.352 105.084 105.729 103.056 105.729 99.5144C105.729 95.9993 104.331 93.9453 101.959 93.9453C99.5877 93.9453 98.1901 95.9993 98.1901 99.5144C98.1901 103.056 99.5665 105.084 101.959 105.084ZM101.959 103.919C100.382 103.919 99.4607 102.336 99.4607 99.5144C99.4607 96.6981 100.392 95.0888 101.959 95.0888C103.526 95.0888 104.458 96.6981 104.458 99.5144C104.458 102.336 103.537 103.919 101.959 103.919Z" fill="#AAAEAF"/>
<path d="M118.551 105.084C120.944 105.084 122.32 103.056 122.32 99.5144C122.32 95.9993 120.923 93.9453 118.551 93.9453C116.18 93.9453 114.782 95.9993 114.782 99.5144C114.782 103.056 116.158 105.084 118.551 105.084ZM118.551 103.919C116.974 103.919 116.052 102.336 116.052 99.5144C116.052 96.6981 116.984 95.0888 118.551 95.0888C120.118 95.0888 121.05 96.6981 121.05 99.5144C121.05 102.336 120.129 103.919 118.551 103.919ZM127.63 105.084C130.023 105.084 131.399 103.056 131.399 99.5144C131.399 95.9993 130.001 93.9453 127.63 93.9453C125.258 93.9453 123.861 95.9993 123.861 99.5144C123.861 103.056 125.237 105.084 127.63 105.084ZM127.63 103.919C126.052 103.919 125.131 102.336 125.131 99.5144C125.131 96.6981 126.063 95.0888 127.63 95.0888C129.197 95.0888 130.128 96.6981 130.128 99.5144C130.128 102.336 129.207 103.919 127.63 103.919ZM136.708 105.084C139.101 105.084 140.478 103.056 140.478 99.5144C140.478 95.9993 139.08 93.9453 136.708 93.9453C134.337 93.9453 132.939 95.9993 132.939 99.5144C132.939 103.056 134.316 105.084 136.708 105.084ZM136.708 103.919C135.131 103.919 134.21 102.336 134.21 99.5144C134.21 96.6981 135.141 95.0888 136.708 95.0888C138.275 95.0888 139.207 96.6981 139.207 99.5144C139.207 102.336 138.286 103.919 136.708 103.919ZM145.787 105.084C148.18 105.084 149.556 103.056 149.556 99.5144C149.556 95.9993 148.159 93.9453 145.787 93.9453C143.415 93.9453 142.018 95.9993 142.018 99.5144C142.018 103.056 143.394 105.084 145.787 105.084ZM145.787 103.919C144.209 103.919 143.288 102.336 143.288 99.5144C143.288 96.6981 144.22 95.0888 145.787 95.0888C147.354 95.0888 148.286 96.6981 148.286 99.5144C148.286 102.336 147.365 103.919 145.787 103.919Z" fill="#AAAEAF"/>
<path d="M162.379 105.084C164.772 105.084 166.148 103.056 166.148 99.5144C166.148 95.9993 164.75 93.9453 162.379 93.9453C160.007 93.9453 158.61 95.9993 158.61 99.5144C158.61 103.056 159.986 105.084 162.379 105.084ZM162.379 103.919C160.801 103.919 159.88 102.336 159.88 99.5144C159.88 96.6981 160.812 95.0888 162.379 95.0888C163.946 95.0888 164.877 96.6981 164.877 99.5144C164.877 102.336 163.956 103.919 162.379 103.919ZM171.457 105.084C173.85 105.084 175.227 103.056 175.227 99.5144C175.227 95.9993 173.829 93.9453 171.457 93.9453C169.086 93.9453 167.688 95.9993 167.688 99.5144C167.688 103.056 169.065 105.084 171.457 105.084ZM171.457 103.919C169.88 103.919 168.959 102.336 168.959 99.5144C168.959 96.6981 169.89 95.0888 171.457 95.0888C173.024 95.0888 173.956 96.6981 173.956 99.5144C173.956 102.336 173.035 103.919 171.457 103.919ZM180.536 105.084C182.929 105.084 184.305 103.056 184.305 99.5144C184.305 95.9993 182.908 93.9453 180.536 93.9453C178.164 93.9453 176.767 95.9993 176.767 99.5144C176.767 103.056 178.143 105.084 180.536 105.084ZM180.536 103.919C178.958 103.919 178.037 102.336 178.037 99.5144C178.037 96.6981 178.969 95.0888 180.536 95.0888C182.103 95.0888 183.035 96.6981 183.035 99.5144C183.035 102.336 182.114 103.919 180.536 103.919ZM189.615 105.084C192.007 105.084 193.384 103.056 193.384 99.5144C193.384 95.9993 191.986 93.9453 189.615 93.9453C187.243 93.9453 185.845 95.9993 185.845 99.5144C185.845 103.056 187.222 105.084 189.615 105.084ZM189.615 103.919C188.037 103.919 187.116 102.336 187.116 99.5144C187.116 96.6981 188.048 95.0888 189.615 95.0888C191.182 95.0888 192.113 96.6981 192.113 99.5144C192.113 102.336 191.192 103.919 189.615 103.919Z" fill="#AAAEAF"/>
<path d="M26.972 130.729V136.8H27.6598V132.187H27.7191L29.6164 136.8H30.2805L32.1778 132.187H32.237V136.8H32.9248V130.729H32.0473L29.984 135.769H29.9128L27.8495 130.729H26.972ZM34.4884 136.8H35.2236V134.429H36.5517C36.6051 134.429 36.6555 134.429 36.7059 134.426L37.9865 136.8H38.8403L37.4677 134.292C38.2415 134.028 38.6032 133.397 38.6032 132.591C38.6032 131.517 37.9628 130.729 36.5398 130.729H34.4884V136.8ZM35.2236 133.764V131.381H36.5161C37.5004 131.381 37.8798 131.861 37.8798 132.591C37.8798 133.32 37.5004 133.764 36.528 133.764H35.2236ZM40.3327 136.848C40.6262 136.848 40.8664 136.607 40.8664 136.314C40.8664 136.02 40.6262 135.78 40.3327 135.78C40.0393 135.78 39.7991 136.02 39.7991 136.314C39.7991 136.607 40.0393 136.848 40.3327 136.848ZM49.6291 132.626C49.4038 131.381 48.4077 130.646 47.1863 130.646C45.6329 130.646 44.5064 131.843 44.5064 133.764C44.5064 135.686 45.6329 136.883 47.1863 136.883C48.4077 136.883 49.4038 136.148 49.6291 134.903H48.8939C48.716 135.745 47.9927 136.195 47.1863 136.195C46.0835 136.195 45.2178 135.342 45.2178 133.764C45.2178 132.187 46.0835 131.334 47.1863 131.334C47.9927 131.334 48.716 131.784 48.8939 132.626H49.6291ZM51.1556 136.8L51.7663 135.081H54.2209L54.8316 136.8H55.6024L53.3731 130.729H52.6141L50.3848 136.8H51.1556ZM51.9975 134.429L52.9699 131.689H53.0173L53.9897 134.429H51.9975ZM56.6375 136.8H57.3727V134.429H58.7009C58.7542 134.429 58.8046 134.429 58.855 134.426L60.1357 136.8H60.9895L59.6169 134.292C60.3906 134.028 60.7523 133.397 60.7523 132.591C60.7523 131.517 60.112 130.729 58.689 130.729H56.6375V136.8ZM57.3727 133.764V131.381H58.6653C59.6495 131.381 60.029 131.861 60.029 132.591C60.029 133.32 59.6495 133.764 58.6771 133.764H57.3727ZM63.9404 136.8C65.7903 136.8 66.8338 135.65 66.8338 133.753C66.8338 131.867 65.7903 130.729 64.0235 130.729H62.0669V136.8H63.9404ZM62.8021 136.148V131.381H63.976C65.399 131.381 66.1224 132.282 66.1224 133.753C66.1224 135.235 65.399 136.148 63.893 136.148H62.8021ZM68.1565 136.8H68.8917V134.085H72.129V136.8H72.8642V130.729H72.129V133.432H68.8917V130.729H68.1565V136.8ZM79.5483 133.764C79.5483 131.843 78.4218 130.646 76.8683 130.646C75.3149 130.646 74.1884 131.843 74.1884 133.764C74.1884 135.686 75.3149 136.883 76.8683 136.883C78.4218 136.883 79.5483 135.686 79.5483 133.764ZM78.8368 133.764C78.8368 135.342 77.9712 136.195 76.8683 136.195C75.7655 136.195 74.8999 135.342 74.8999 133.764C74.8999 132.187 75.7655 131.334 76.8683 131.334C77.9712 131.334 78.8368 132.187 78.8368 133.764ZM80.874 136.8H84.4314V136.148H81.6092V130.729H80.874V136.8ZM87.5328 136.8C89.3827 136.8 90.4262 135.65 90.4262 133.753C90.4262 131.867 89.3827 130.729 87.6158 130.729H85.6592V136.8H87.5328ZM86.3944 136.148V131.381H87.5684C88.9914 131.381 89.7147 132.282 89.7147 133.753C89.7147 135.235 88.9914 136.148 87.4854 136.148H86.3944ZM91.7489 136.8H95.4605V136.148H92.4841V134.085H95.2233V133.432H92.4841V131.381H95.4131V130.729H91.7489V136.8ZM96.8277 136.8H97.5629V134.429H98.891C98.9444 134.429 98.9948 134.429 99.0451 134.426L100.326 136.8H101.18L99.807 134.292C100.581 134.028 100.942 133.397 100.942 132.591C100.942 131.517 100.302 130.729 98.8791 130.729H96.8277V136.8ZM97.5629 133.764V131.381H98.8554C99.8396 131.381 100.219 131.861 100.219 132.591C100.219 133.32 99.8396 133.764 98.8673 133.764H97.5629Z" fill="#AAAEAF"/>
<path d="M80.4254 121.975C81.7654 121.975 82.5362 120.84 82.5362 118.857C82.5362 116.888 81.7536 115.738 80.4254 115.738C79.0973 115.738 78.3147 116.888 78.3147 118.857C78.3147 120.84 79.0855 121.975 80.4254 121.975ZM80.4254 121.323C79.542 121.323 79.0262 120.437 79.0262 118.857C79.0262 117.28 79.5479 116.378 80.4254 116.378C81.303 116.378 81.8247 117.28 81.8247 118.857C81.8247 120.437 81.3089 121.323 80.4254 121.323ZM83.6099 120.647H86.4677V121.892H87.1673V120.647H87.9974V119.995H87.1673V115.821H86.278L83.6099 120.042V120.647ZM86.4677 119.995H84.4044V119.948L86.4203 116.758H86.4677V119.995ZM91.356 115.536H90.7156L88.759 122.805H89.3994L91.356 115.536ZM92.2629 121.892H96.0931V121.24H93.2708V121.193L94.6345 119.734C95.6781 118.617 95.9864 118.095 95.9864 117.422C95.9864 116.485 95.2274 115.738 94.1602 115.738C93.0959 115.738 92.2866 116.461 92.2866 117.529H92.9863C92.9863 116.838 93.4339 116.378 94.1365 116.378C94.7946 116.378 95.2986 116.781 95.2986 117.422C95.2986 117.982 94.9695 118.397 94.2669 119.165L92.2629 121.359V121.892ZM99.3872 121.975C100.727 121.975 101.498 120.84 101.498 118.857C101.498 116.888 100.715 115.738 99.3872 115.738C98.0591 115.738 97.2765 116.888 97.2765 118.857C97.2765 120.84 98.0472 121.975 99.3872 121.975ZM99.3872 121.323C98.5038 121.323 97.9879 120.437 97.9879 118.857C97.9879 117.28 98.5097 116.378 99.3872 116.378C100.265 116.378 100.786 117.28 100.786 118.857C100.786 120.437 100.271 121.323 99.3872 121.323Z" fill="#AAAEAF"/>
<path d="M66.8737 115.402H66.5709L67.4467 117.787H67.7449L68.6207 115.402H68.3179L67.6098 117.409H67.5818L66.8737 115.402ZM68.9745 117.787L69.2144 117.111H70.1787L70.4187 117.787H70.7215L69.8457 115.402H69.5475L68.6717 117.787H68.9745ZM69.3053 116.855L69.6873 115.779H69.7059L70.0879 116.855H69.3053ZM71.1824 117.787H72.58V117.531H71.4713V115.402H71.1824V117.787ZM73.4055 115.402H73.1167V117.787H73.4055V115.402ZM74.8101 117.787C75.5368 117.787 75.9468 117.335 75.9468 116.589C75.9468 115.849 75.5368 115.402 74.8427 115.402H74.0741V117.787H74.8101ZM74.3629 117.531V115.658H74.8241C75.3831 115.658 75.6673 116.012 75.6673 116.589C75.6673 117.172 75.3831 117.531 74.7915 117.531H74.3629ZM66.6455 119.658H67.3955V121.787H67.6843V119.658H68.4343V119.402H66.6455V119.658ZM68.9696 121.787H69.2584V120.72H70.5302V121.787H70.819V119.402H70.5302V120.464H69.2584V119.402H68.9696V121.787ZM71.4867 121.787H71.7755V120.855H72.2973C72.3182 120.855 72.338 120.855 72.3578 120.854L72.861 121.787H73.1964L72.6572 120.801C72.9611 120.698 73.1032 120.45 73.1032 120.133C73.1032 119.711 72.8517 119.402 72.2926 119.402H71.4867V121.787ZM71.7755 120.594V119.658H72.2833C72.67 119.658 72.819 119.846 72.819 120.133C72.819 120.419 72.67 120.594 72.288 120.594H71.7755ZM75.2392 119.402V120.958C75.2392 121.307 74.9993 121.558 74.601 121.558C74.2027 121.558 73.9628 121.307 73.9628 120.958V119.402H73.6739V120.981C73.6739 121.47 74.0396 121.829 74.601 121.829C75.1624 121.829 75.5281 121.47 75.5281 120.981V119.402H75.2392Z" fill="#515151"/>
<path d="M199.757 5.04367C199.651 4.44494 199.162 3.98279 198.469 3.98279C197.648 3.98279 197.064 4.63552 197.064 5.65352C197.064 6.67152 197.648 7.32425 198.469 7.32425C199.162 7.32425 199.651 6.86051 199.757 6.26337H199.459C199.368 6.70964 198.979 7.04474 198.469 7.04474C197.853 7.04474 197.351 6.55718 197.351 5.65352C197.351 4.75304 197.853 4.26231 198.469 4.26231C198.979 4.26231 199.368 4.59899 199.459 5.04367H199.757ZM201.365 7.33061C201.997 7.33061 202.439 6.81446 202.439 6.0712C202.439 5.32319 201.997 4.80704 201.365 4.80704C200.733 4.80704 200.292 5.32319 200.292 6.0712C200.292 6.81446 200.733 7.33061 201.365 7.33061ZM201.365 7.07174C200.859 7.07174 200.576 6.61753 200.576 6.0712C200.576 5.52488 200.859 5.06432 201.365 5.06432C201.872 5.06432 202.154 5.52488 202.154 6.0712C202.154 6.61753 201.872 7.07174 201.365 7.07174ZM203.363 5.75516C203.363 5.32954 203.642 5.0675 204.027 5.0675C204.402 5.0675 204.643 5.31842 204.643 5.71705V7.27978H204.926V5.69958C204.926 5.12149 204.591 4.80863 204.098 4.80863C203.741 4.80863 203.495 4.9738 203.38 5.22313H203.355V4.84039H203.08V7.27978H203.363V5.75516ZM207.629 8.19456V4.84039H207.354V5.30572H207.319C207.221 5.08655 207.022 4.80704 206.574 4.80704C205.971 4.80704 205.566 5.31366 205.566 6.06644C205.566 6.8224 205.972 7.33061 206.569 7.33061C207.012 7.33061 207.222 7.05109 207.319 6.82716H207.344V8.19456H207.629ZM207.349 6.06168C207.349 6.65088 207.076 7.07174 206.604 7.07174C206.118 7.07174 205.85 6.63023 205.85 6.06168C205.85 5.49947 206.114 5.06432 206.604 5.06432C207.081 5.06432 207.349 5.47724 207.349 6.06168ZM209.939 6.34754C209.939 6.7954 209.603 7.0368 209.272 7.0368C208.92 7.0368 208.672 6.78428 208.672 6.40313V4.84039H208.389V6.4206C208.389 6.99868 208.723 7.31155 209.191 7.31155C209.549 7.31155 209.803 7.12573 209.917 6.87481H209.939V7.27978H210.222V4.84039H209.939V6.34754ZM211.978 7.33061C212.467 7.33061 212.796 7.06539 212.907 6.75887L212.638 6.67152C212.545 6.89069 212.324 7.07174 211.978 7.07174C211.479 7.07174 211.163 6.70805 211.15 6.14426H212.967V6.0045C212.967 5.18978 212.464 4.80704 211.935 4.80704C211.303 4.80704 210.866 5.33589 210.866 6.07438C210.866 6.81446 211.295 7.33061 211.978 7.33061ZM211.152 5.89492C211.182 5.44071 211.489 5.06432 211.935 5.06432C212.372 5.06432 212.678 5.42483 212.678 5.89492H211.152ZM213.611 7.27978H213.894V5.70434C213.894 5.34225 214.172 5.0802 214.553 5.0802C214.627 5.0802 214.697 5.09291 214.723 5.09608V4.80863C214.685 4.80704 214.62 4.80386 214.573 4.80386C214.267 4.80386 214.005 4.96903 213.906 5.21519H213.886V4.84039H213.611V7.27978ZM215.229 7.27978H215.514V4.84039H215.229V7.27978ZM215.374 4.42112C215.49 4.42112 215.587 4.32901 215.587 4.21784C215.587 4.10667 215.49 4.01455 215.374 4.01455C215.258 4.01455 215.163 4.10667 215.163 4.21784C215.163 4.32901 215.258 4.42112 215.374 4.42112ZM216.565 5.75516C216.565 5.32954 216.844 5.0675 217.229 5.0675C217.604 5.0675 217.845 5.31842 217.845 5.71705V7.27978H218.128V5.69958C218.128 5.12149 217.793 4.80863 217.3 4.80863C216.943 4.80863 216.697 4.9738 216.582 5.22313H216.557V4.84039H216.282V7.27978H216.565V5.75516ZM219.824 8.24538C220.402 8.24538 220.831 7.96269 220.831 7.34331V4.84039H220.554V5.30572H220.526C220.426 5.08655 220.224 4.80704 219.776 4.80704C219.173 4.80704 218.768 5.31207 218.768 6.05374C218.768 6.80175 219.187 7.25437 219.771 7.25437C220.21 7.25437 220.424 7.00027 220.521 6.77634H220.546V7.32584C220.546 7.78005 220.256 7.99127 219.824 7.99127C219.406 7.99127 219.206 7.78958 219.103 7.60377L218.871 7.75623C219.014 8.03574 219.325 8.24538 219.824 8.24538ZM219.805 6.99551C219.32 6.99551 219.052 6.608 219.052 6.04897C219.052 5.49947 219.316 5.06432 219.805 5.06432C220.283 5.06432 220.551 5.47724 220.551 6.04897C220.551 6.63817 220.275 6.99551 219.805 6.99551ZM223.84 4.84039H223.323V4.25595H223.039V4.84039H222.676V5.08655H223.039V6.70964C223.039 7.10827 223.354 7.31631 223.667 7.31631C223.784 7.31631 223.863 7.29408 223.917 7.27343L223.857 7.01774C223.817 7.02886 223.767 7.03997 223.692 7.03997C223.5 7.03997 223.323 6.94945 223.323 6.64294V5.08655H223.84V4.84039ZM224.838 5.75516C224.838 5.32954 225.124 5.0675 225.514 5.0675C225.892 5.0675 226.134 5.31525 226.134 5.71705V7.27978H226.418V5.69958C226.418 5.11832 226.081 4.80863 225.586 4.80863C225.217 4.80863 224.977 4.97062 224.863 5.22313H224.838V4.02726H224.555V7.27978H224.838V5.75516ZM228.17 7.33061C228.659 7.33061 228.987 7.06539 229.099 6.75887L228.83 6.67152C228.737 6.89069 228.516 7.07174 228.17 7.07174C227.671 7.07174 227.355 6.70805 227.342 6.14426H229.159V6.0045C229.159 5.18978 228.656 4.80704 228.127 4.80704C227.495 4.80704 227.058 5.33589 227.058 6.07438C227.058 6.81446 227.487 7.33061 228.17 7.33061ZM227.344 5.89492C227.374 5.44071 227.68 5.06432 228.127 5.06432C228.563 5.06432 228.87 5.42483 228.87 5.89492H227.344ZM231.077 8.19456H231.361V6.82716H231.387C231.484 7.05109 231.693 7.33061 232.136 7.33061C232.733 7.33061 233.14 6.8224 233.14 6.06644C233.14 5.31366 232.735 4.80704 232.132 4.80704C231.684 4.80704 231.485 5.08655 231.387 5.30572H231.352V4.84039H231.077V8.19456ZM231.356 6.06168C231.356 5.47724 231.625 5.06432 232.101 5.06432C232.592 5.06432 232.856 5.49947 232.856 6.06168C232.856 6.63023 232.587 7.07174 232.101 7.07174C231.63 7.07174 231.356 6.65088 231.356 6.06168ZM234.766 7.33061C235.255 7.33061 235.584 7.06539 235.695 6.75887L235.427 6.67152C235.333 6.89069 235.112 7.07174 234.766 7.07174C234.268 7.07174 233.951 6.70805 233.939 6.14426H235.756V6.0045C235.756 5.18978 235.252 4.80704 234.723 4.80704C234.091 4.80704 233.654 5.33589 233.654 6.07438C233.654 6.81446 234.083 7.33061 234.766 7.33061ZM233.94 5.89492C233.971 5.44071 234.277 5.06432 234.723 5.06432C235.16 5.06432 235.467 5.42483 235.467 5.89492H233.94ZM237.081 7.33537C237.487 7.33537 237.735 7.10985 237.837 6.89387H237.854V7.27978H238.137V5.62335C238.137 4.96903 237.645 4.80704 237.271 4.80704C236.898 4.80704 236.514 4.95474 236.349 5.35336L236.617 5.45024C236.706 5.2406 236.927 5.06114 237.279 5.06114C237.649 5.06114 237.854 5.26443 237.854 5.59794V5.65511C237.854 5.83934 237.626 5.84251 237.216 5.89333C236.665 5.96162 236.279 6.11567 236.279 6.59847C236.279 7.06856 236.638 7.33537 237.081 7.33537ZM237.119 7.0765C236.8 7.0765 236.562 6.90657 236.562 6.61117C236.562 6.31578 236.803 6.1919 237.216 6.14108C237.416 6.11726 237.772 6.07279 237.854 5.9918V6.34437C237.854 6.74458 237.57 7.0765 237.119 7.0765ZM238.91 7.27978H239.193V6.33484L239.474 6.0712L240.43 7.27978H240.792L239.685 5.88539L240.728 4.84039H240.371L239.228 5.98862H239.193V4.02726H238.91V7.27978ZM242.92 5.3756C242.8 5.02303 242.54 4.80704 242.094 4.80704C241.601 4.80704 241.244 5.08814 241.244 5.48994C241.244 5.8171 241.443 6.03944 241.867 6.14108L242.265 6.23637C242.534 6.2999 242.662 6.43807 242.662 6.63341C242.662 6.88751 242.419 7.0765 242.044 7.0765C241.711 7.0765 241.503 6.92563 241.435 6.63659L241.163 6.70329C241.249 7.10985 241.571 7.33061 242.049 7.33061C242.586 7.33061 242.954 7.03521 242.954 6.6207C242.954 6.29513 242.75 6.07756 242.341 5.9775L241.973 5.88698C241.67 5.81075 241.528 5.68846 241.528 5.47724C241.528 5.22949 241.765 5.05638 242.094 5.05638C242.422 5.05638 242.584 5.22949 242.661 5.44865L242.92 5.3756Z" fill="#AAAEAF"/>
<rect x="195.487" y="36.6537" width="28.9372" height="19.9345" fill="#20201B"/>
<g filter="url(#filter11_d_2_4746)">
<path d="M179.008 58.1153L197.836 63.1601L184.053 76.9425L179.008 58.1153Z" fill="white"/>
</g>
<line x1="214.457" y1="46.4716" x2="214.457" y2="56.5881" stroke="#515151" stroke-width="0.643049"/>
<rect x="200.631" y="39.8689" width="15.4332" height="8.41809" fill="#FFF741"/>
<rect x="203.763" y="40.9076" width="1.15946" height="6.33752" fill="black"/>
<rect x="205.713" y="41.6584" width="1.15946" height="3.96589" fill="black"/>
<rect x="207.664" y="40.9075" width="1.15946" height="6.33752" fill="black"/>
<rect x="209.943" y="40.9075" width="1.15946" height="6.33752" fill="black"/>
<path d="M211.893 40.9075C212.533 40.9075 213.053 41.4266 213.053 42.0669V43.569C213.053 44.2093 212.533 44.7284 211.893 44.7284V40.9075Z" fill="black"/>
</g>
<defs>
<filter id="filter0_d_2_4746" x="176.578" y="18.8329" width="150.321" height="131.044" filterUnits="userSpaceOnUse" color-interpolation-filters="sRGB">
<feFlood flood-opacity="0" result="BackgroundImageFix"/>
<feColorMatrix in="SourceAlpha" type="matrix" values="0 0 0 0 0 0 0 0 0 0 0 0 0 0 0 0 0 0 127 0" result="hardAlpha"/>
<feOffset dx="1.2861" dy="-0.643049"/>
<feGaussianBlur stdDeviation="1.60762"/>
<feComposite in2="hardAlpha" operator="out"/>
<feColorMatrix type="matrix" values="0 0 0 0 0 0 0 0 0 0 0 0 0 0 0 0 0 0 0.15 0"/>
<feBlend mode="normal" in2="BackgroundImageFix" result="effect1_dropShadow_2_4746"/>
<feBlend mode="normal" in="SourceGraphic" in2="effect1_dropShadow_2_4746" result="shape"/>
</filter>
<filter id="filter1_d_2_4746" x="87.8433" y="123.965" width="121.384" height="107.269" filterUnits="userSpaceOnUse" color-interpolation-filters="sRGB">
<feFlood flood-opacity="0" result="BackgroundImageFix"/>
<feColorMatrix in="SourceAlpha" type="matrix" values="0 0 0 0 0 0 0 0 0 0 0 0 0 0 0 0 0 0 127 0" result="hardAlpha"/>
<feOffset dx="3.21524" dy="4.50134"/>
<feGaussianBlur stdDeviation="1.60762"/>
<feComposite in2="hardAlpha" operator="out"/>
<feColorMatrix type="matrix" values="0 0 0 0 0 0 0 0 0 0 0 0 0 0 0 0 0 0 0.15 0"/>
<feBlend mode="normal" in2="BackgroundImageFix" result="effect1_dropShadow_2_4746"/>
<feBlend mode="normal" in="SourceGraphic" in2="effect1_dropShadow_2_4746" result="shape"/>
</filter>
<filter id="filter2_d_2_4746" x="134.78" y="40.6975" width="152.251" height="131.687" filterUnits="userSpaceOnUse" color-interpolation-filters="sRGB">
<feFlood flood-opacity="0" result="BackgroundImageFix"/>
<feColorMatrix in="SourceAlpha" type="matrix" values="0 0 0 0 0 0 0 0 0 0 0 0 0 0 0 0 0 0 127 0" result="hardAlpha"/>
<feOffset dx="-5.14439" dy="3.85829"/>
<feGaussianBlur stdDeviation="1.60762"/>
<feComposite in2="hardAlpha" operator="out"/>
<feColorMatrix type="matrix" values="0 0 0 0 0 0 0 0 0 0 0 0 0 0 0 0 0 0 0.1 0"/>
<feBlend mode="normal" in2="BackgroundImageFix" result="effect1_dropShadow_2_4746"/>
<feBlend mode="normal" in="SourceGraphic" in2="effect1_dropShadow_2_4746" result="shape"/>
</filter>
<filter id="filter3_d_2_4746" x="143.14" y="40.6975" width="150.964" height="131.044" filterUnits="userSpaceOnUse" color-interpolation-filters="sRGB">
<feFlood flood-opacity="0" result="BackgroundImageFix"/>
<feColorMatrix in="SourceAlpha" type="matrix" values="0 0 0 0 0 0 0 0 0 0 0 0 0 0 0 0 0 0 127 0" result="hardAlpha"/>
<feOffset dx="3.85829" dy="3.21524"/>
<feGaussianBlur stdDeviation="1.60762"/>
<feComposite in2="hardAlpha" operator="out"/>
<feColorMatrix type="matrix" values="0 0 0 0 0 0 0 0 0 0 0 0 0 0 0 0 0 0 0.1 0"/>
<feBlend mode="normal" in2="BackgroundImageFix" result="effect1_dropShadow_2_4746"/>
<feBlend mode="normal" in="SourceGraphic" in2="effect1_dropShadow_2_4746" result="shape"/>
</filter>
<filter id="filter4_d_2_4746" x="18.0054" y="135.683" width="43.0843" height="30.2233" filterUnits="userSpaceOnUse" color-interpolation-filters="sRGB">
<feFlood flood-opacity="0" result="BackgroundImageFix"/>
<feColorMatrix in="SourceAlpha" type="matrix" values="0 0 0 0 0 0 0 0 0 0 0 0 0 0 0 0 0 0 127 0" result="hardAlpha"/>
<feOffset dx="3.21524"/>
<feGaussianBlur stdDeviation="1.60762"/>
<feComposite in2="hardAlpha" operator="out"/>
<feColorMatrix type="matrix" values="0 0 0 0 0 0 0 0 0 0 0 0 0 0 0 0 0 0 0.15 0"/>
<feBlend mode="normal" in2="BackgroundImageFix" result="effect1_dropShadow_2_4746"/>
<feBlend mode="normal" in="SourceGraphic" in2="effect1_dropShadow_2_4746" result="shape"/>
</filter>
<filter id="filter5_d_2_4746" x="-18.6484" y="135.683" width="43.0843" height="30.2233" filterUnits="userSpaceOnUse" color-interpolation-filters="sRGB">
<feFlood flood-opacity="0" result="BackgroundImageFix"/>
<feColorMatrix in="SourceAlpha" type="matrix" values="0 0 0 0 0 0 0 0 0 0 0 0 0 0 0 0 0 0 127 0" result="hardAlpha"/>
<feOffset dx="3.21524"/>
<feGaussianBlur stdDeviation="1.60762"/>
<feComposite in2="hardAlpha" operator="out"/>
<feColorMatrix type="matrix" values="0 0 0 0 0 0 0 0 0 0 0 0 0 0 0 0 0 0 0.15 0"/>
<feBlend mode="normal" in2="BackgroundImageFix" result="effect1_dropShadow_2_4746"/>
<feBlend mode="normal" in="SourceGraphic" in2="effect1_dropShadow_2_4746" result="shape"/>
</filter>
<filter id="filter6_d_2_4746" x="-1.28613" y="135.039" width="43.0843" height="30.2233" filterUnits="userSpaceOnUse" color-interpolation-filters="sRGB">
<feFlood flood-opacity="0" result="BackgroundImageFix"/>
<feColorMatrix in="SourceAlpha" type="matrix" values="0 0 0 0 0 0 0 0 0 0 0 0 0 0 0 0 0 0 127 0" result="hardAlpha"/>
<feOffset dx="3.21524"/>
<feGaussianBlur stdDeviation="1.60762"/>
<feComposite in2="hardAlpha" operator="out"/>
<feColorMatrix type="matrix" values="0 0 0 0 0 0 0 0 0 0 0 0 0 0 0 0 0 0 0.15 0"/>
<feBlend mode="normal" in2="BackgroundImageFix" result="effect1_dropShadow_2_4746"/>
<feBlend mode="normal" in="SourceGraphic" in2="effect1_dropShadow_2_4746" result="shape"/>
</filter>
<filter id="filter7_d_2_4746" x="-19.9346" y="88.098" width="43.0843" height="30.2233" filterUnits="userSpaceOnUse" color-interpolation-filters="sRGB">
<feFlood flood-opacity="0" result="BackgroundImageFix"/>
<feColorMatrix in="SourceAlpha" type="matrix" values="0 0 0 0 0 0 0 0 0 0 0 0 0 0 0 0 0 0 127 0" result="hardAlpha"/>
<feOffset dx="3.21524"/>
<feGaussianBlur stdDeviation="1.60762"/>
<feComposite in2="hardAlpha" operator="out"/>
<feColorMatrix type="matrix" values="0 0 0 0 0 0 0 0 0 0 0 0 0 0 0 0 0 0 0.15 0"/>
<feBlend mode="normal" in2="BackgroundImageFix" result="effect1_dropShadow_2_4746"/>
<feBlend mode="normal" in="SourceGraphic" in2="effect1_dropShadow_2_4746" result="shape"/>
</filter>
<filter id="filter8_d_2_4746" x="-1.28613" y="111.889" width="43.0843" height="30.2233" filterUnits="userSpaceOnUse" color-interpolation-filters="sRGB">
<feFlood flood-opacity="0" result="BackgroundImageFix"/>
<feColorMatrix in="SourceAlpha" type="matrix" values="0 0 0 0 0 0 0 0 0 0 0 0 0 0 0 0 0 0 127 0" result="hardAlpha"/>
<feOffset dx="3.21524"/>
<feGaussianBlur stdDeviation="1.60762"/>
<feComposite in2="hardAlpha" operator="out"/>
<feColorMatrix type="matrix" values="0 0 0 0 0 0 0 0 0 0 0 0 0 0 0 0 0 0 0.15 0"/>
<feBlend mode="normal" in2="BackgroundImageFix" result="effect1_dropShadow_2_4746"/>
<feBlend mode="normal" in="SourceGraphic" in2="effect1_dropShadow_2_4746" result="shape"/>
</filter>
<filter id="filter9_d_2_4746" x="-19.9346" y="64.9481" width="43.0843" height="30.2233" filterUnits="userSpaceOnUse" color-interpolation-filters="sRGB">
<feFlood flood-opacity="0" result="BackgroundImageFix"/>
<feColorMatrix in="SourceAlpha" type="matrix" values="0 0 0 0 0 0 0 0 0 0 0 0 0 0 0 0 0 0 127 0" result="hardAlpha"/>
<feOffset dx="3.21524"/>
<feGaussianBlur stdDeviation="1.60762"/>
<feComposite in2="hardAlpha" operator="out"/>
<feColorMatrix type="matrix" values="0 0 0 0 0 0 0 0 0 0 0 0 0 0 0 0 0 0 0.15 0"/>
<feBlend mode="normal" in2="BackgroundImageFix" result="effect1_dropShadow_2_4746"/>
<feBlend mode="normal" in="SourceGraphic" in2="effect1_dropShadow_2_4746" result="shape"/>
</filter>
<filter id="filter10_d_2_4746" x="-2.25073" y="88.4193" width="44.692" height="29.9017" filterUnits="userSpaceOnUse" color-interpolation-filters="sRGB">
<feFlood flood-opacity="0" result="BackgroundImageFix"/>
<feColorMatrix in="SourceAlpha" type="matrix" values="0 0 0 0 0 0 0 0 0 0 0 0 0 0 0 0 0 0 127 0" result="hardAlpha"/>
<feOffset dx="3.21524"/>
<feGaussianBlur stdDeviation="1.60762"/>
<feComposite in2="hardAlpha" operator="out"/>
<feColorMatrix type="matrix" values="0 0 0 0 0 0 0 0 0 0 0 0 0 0 0 0 0 0 0.15 0"/>
<feBlend mode="normal" in2="BackgroundImageFix" result="effect1_dropShadow_2_4746"/>
<feBlend mode="normal" in="SourceGraphic" in2="effect1_dropShadow_2_4746" result="shape"/>
</filter>
<filter id="filter11_d_2_4746" x="175.793" y="54.9001" width="25.2576" height="25.2576" filterUnits="userSpaceOnUse" color-interpolation-filters="sRGB">
<feFlood flood-opacity="0" result="BackgroundImageFix"/>
<feColorMatrix in="SourceAlpha" type="matrix" values="0 0 0 0 0 0 0 0 0 0 0 0 0 0 0 0 0 0 127 0" result="hardAlpha"/>
<feOffset/>
<feGaussianBlur stdDeviation="1.60762"/>
<feComposite in2="hardAlpha" operator="out"/>
<feColorMatrix type="matrix" values="0 0 0 0 0 0 0 0 0 0 0 0 0 0 0 0 0 0 0.15 0"/>
<feBlend mode="normal" in2="BackgroundImageFix" result="effect1_dropShadow_2_4746"/>
<feBlend mode="normal" in="SourceGraphic" in2="effect1_dropShadow_2_4746" result="shape"/>
</filter>
<linearGradient id="paint0_linear_2_4746" x1="22.361" y1="57.2445" x2="59.1823" y2="81.0964" gradientUnits="userSpaceOnUse">
<stop stop-color="#DDD9D6"/>
<stop offset="0.212761" stop-color="#8A868C"/>
<stop offset="0.548384" stop-color="#F2F3F3" stop-opacity="0.8"/>
<stop offset="0.914316" stop-color="#807C80"/>
<stop offset="1" stop-color="#A6A8AB"/>
</linearGradient>
<clipPath id="clip0_2_4746">
<rect width="255.215" height="161" rx="9.4513" fill="white"/>
</clipPath>
</defs>
</svg>
