<svg width="1438" height="713" viewBox="0 0 1438 713" fill="none" xmlns="http://www.w3.org/2000/svg">
<path d="M1086.18 518.828L1439 68.5168V60.4945L1040.26 488.294L1086.18 518.828Z" fill="url(#paint0_linear_2_4535)"/>
<path d="M1157.53 160.282L1040.26 488.294L1097.64 524.477L1211.21 197.855L1157.53 160.282Z" fill="url(#paint1_linear_2_4535)"/>
<path d="M1157.53 160.282L1242.38 190.897L1392.49 618.124L1298.32 665.521L1157.53 160.282Z" fill="url(#paint2_linear_2_4535)"/>
<path d="M1392 618.124L1334.76 713L0 0H576.533L1392 618.124Z" fill="url(#paint3_linear_2_4535)"/>
<path d="M205.809 443.545H199.554V485H205.809V443.545ZM219.484 466.54C219.484 461.581 222.52 458.747 226.73 458.747C230.839 458.747 233.329 461.439 233.329 465.953V485H239.381V465.224C239.381 457.532 235.151 453.504 228.795 453.504C224.119 453.504 221.063 455.67 219.626 458.969H219.241V453.909H213.432V485H219.484V466.54ZM261.011 453.909H254.635V446.46H248.583V453.909H244.029V458.767H248.583V477.126C248.563 482.773 252.874 485.506 257.651 485.405C259.574 485.385 260.87 485.02 261.578 484.757L260.485 479.757C260.08 479.838 259.331 480.021 258.36 480.021C256.396 480.021 254.635 479.373 254.635 475.871V458.767H261.011V453.909ZM279.772 485.627C286.553 485.627 291.35 482.288 292.727 477.227L286.998 476.195C285.905 479.13 283.274 480.628 279.833 480.628C274.651 480.628 271.169 477.268 271.008 471.276H293.111V469.131C293.111 457.897 286.391 453.504 279.347 453.504C270.684 453.504 264.976 460.103 264.976 469.657C264.976 479.312 270.603 485.627 279.772 485.627ZM271.028 466.742C271.271 462.33 274.469 458.504 279.388 458.504C284.084 458.504 287.16 461.985 287.18 466.742H271.028ZM298.826 485H304.879V466.013C304.879 461.945 308.016 459.01 312.307 459.01C313.562 459.01 314.979 459.233 315.465 459.374V453.585C314.858 453.504 313.663 453.444 312.894 453.444C309.251 453.444 306.134 455.508 305 458.848H304.676V453.909H298.826V485ZM325.755 466.54C325.755 461.581 328.791 458.747 333.001 458.747C337.11 458.747 339.6 461.439 339.6 465.953V485H345.652V465.224C345.652 457.532 341.421 453.504 335.066 453.504C330.39 453.504 327.333 455.67 325.896 458.969H325.512V453.909H319.702V485H325.755V466.54ZM361.817 485.688C366.958 485.688 369.853 483.077 371.006 480.749H371.249V485H377.16V464.354C377.16 455.306 370.035 453.504 365.096 453.504C359.469 453.504 354.287 455.771 352.263 461.439L357.951 462.734C358.841 460.528 361.108 458.403 365.177 458.403C369.083 458.403 371.087 460.447 371.087 463.969V464.111C371.087 466.317 368.82 466.277 363.234 466.924C357.343 467.613 351.311 469.151 351.311 476.215C351.311 482.328 355.906 485.688 361.817 485.688ZM363.132 480.83C359.712 480.83 357.242 479.292 357.242 476.296C357.242 473.058 360.116 471.904 363.618 471.438C365.582 471.175 370.237 470.649 371.108 469.778V473.786C371.108 477.47 368.172 480.83 363.132 480.83ZM398.734 453.909H392.358V446.46H386.306V453.909H381.751V458.767H386.306V477.126C386.286 482.773 390.597 485.506 395.374 485.405C397.297 485.385 398.592 485.02 399.301 484.757L398.208 479.757C397.803 479.838 397.054 480.021 396.082 480.021C394.119 480.021 392.358 479.373 392.358 475.871V458.767H398.734V453.909ZM404.429 485H410.481V453.909H404.429V485ZM407.485 449.112C409.57 449.112 411.311 447.493 411.311 445.509C411.311 443.525 409.57 441.886 407.485 441.886C405.38 441.886 403.66 443.525 403.66 445.509C403.66 447.493 405.38 449.112 407.485 449.112ZM430.719 485.627C439.484 485.627 445.212 479.211 445.212 469.596C445.212 459.921 439.484 453.504 430.719 453.504C421.955 453.504 416.227 459.921 416.227 469.596C416.227 479.211 421.955 485.627 430.719 485.627ZM430.74 480.547C425.011 480.547 422.339 475.547 422.339 469.576C422.339 463.625 425.011 458.565 430.74 458.565C436.428 458.565 439.099 463.625 439.099 469.576C439.099 475.547 436.428 480.547 430.74 480.547ZM457.02 466.54C457.02 461.581 460.056 458.747 464.267 458.747C468.376 458.747 470.865 461.439 470.865 465.953V485H476.918V465.224C476.918 457.532 472.687 453.504 466.331 453.504C461.655 453.504 458.599 455.67 457.162 458.969H456.777V453.909H450.968V485H457.02V466.54ZM493.082 485.688C498.224 485.688 501.118 483.077 502.272 480.749H502.515V485H508.425V464.354C508.425 455.306 501.3 453.504 496.361 453.504C490.734 453.504 485.552 455.771 483.528 461.439L489.216 462.734C490.107 460.528 492.374 458.403 496.442 458.403C500.349 458.403 502.353 460.447 502.353 463.969V464.111C502.353 466.317 500.086 466.277 494.499 466.924C488.609 467.613 482.577 469.151 482.577 476.215C482.577 482.328 487.172 485.688 493.082 485.688ZM494.398 480.83C490.977 480.83 488.508 479.292 488.508 476.296C488.508 473.058 491.382 471.904 494.884 471.438C496.847 471.175 501.503 470.649 502.373 469.778V473.786C502.373 477.47 499.438 480.83 494.398 480.83ZM521.539 443.545H515.487V485H521.539V443.545ZM199.554 533H205.809V518.426H214.31C223.925 518.426 228.682 512.617 228.682 504.966C228.682 497.335 223.966 491.545 214.331 491.545H199.554V533ZM205.809 513.123V496.909H213.663C219.857 496.909 222.387 500.27 222.387 504.966C222.387 509.662 219.857 513.123 213.744 513.123H205.809ZM243.298 533.688C248.439 533.688 251.334 531.077 252.488 528.749H252.731V533H258.641V512.354C258.641 503.306 251.516 501.504 246.577 501.504C240.95 501.504 235.768 503.771 233.744 509.439L239.432 510.734C240.323 508.528 242.59 506.403 246.658 506.403C250.565 506.403 252.569 508.447 252.569 511.969V512.111C252.569 514.317 250.302 514.277 244.715 514.924C238.825 515.613 232.793 517.151 232.793 524.215C232.793 530.328 237.388 533.688 243.298 533.688ZM244.614 528.83C241.193 528.83 238.724 527.292 238.724 524.296C238.724 521.058 241.598 519.904 245.1 519.438C247.063 519.175 251.719 518.649 252.589 517.778V521.786C252.589 525.47 249.654 528.83 244.614 528.83ZM268.415 544.659C273.414 544.659 276.572 542.048 278.373 537.15L291.227 501.97L284.689 501.909L276.815 526.037H276.491L268.617 501.909H262.14L273.516 533.405L272.767 535.469C271.228 539.599 269.062 539.943 265.743 539.032L264.285 543.991C265.014 544.315 266.593 544.659 268.415 544.659ZM295.93 533H301.982V513.831C301.982 509.641 304.917 506.727 308.358 506.727C311.718 506.727 314.046 508.953 314.046 512.333V533H320.078V513.184C320.078 509.439 322.365 506.727 326.312 506.727C329.51 506.727 332.142 508.508 332.142 512.718V533H338.194V512.151C338.194 505.047 334.227 501.504 328.6 501.504C324.126 501.504 320.766 503.65 319.268 506.969H318.944C317.588 503.569 314.734 501.504 310.585 501.504C306.476 501.504 303.419 503.549 302.124 506.969H301.739V501.909H295.93V533ZM358.706 533.627C365.487 533.627 370.284 530.288 371.66 525.227L365.932 524.195C364.839 527.13 362.207 528.628 358.766 528.628C353.585 528.628 350.103 525.268 349.941 519.276H372.045V517.131C372.045 505.897 365.325 501.504 358.281 501.504C349.617 501.504 343.909 508.103 343.909 517.657C343.909 527.312 349.536 533.627 358.706 533.627ZM349.961 514.742C350.204 510.33 353.402 506.504 358.321 506.504C363.017 506.504 366.094 509.985 366.114 514.742H349.961ZM383.812 514.54C383.812 509.581 386.848 506.747 391.059 506.747C395.168 506.747 397.657 509.439 397.657 513.953V533H403.71V513.224C403.71 505.532 399.479 501.504 393.123 501.504C388.447 501.504 385.391 503.67 383.954 506.969H383.569V501.909H377.76V533H383.812V514.54ZM425.339 501.909H418.963V494.46H412.911V501.909H408.357V506.767H412.911V525.126C412.891 530.773 417.202 533.506 421.979 533.405C423.902 533.385 425.198 533.02 425.906 532.757L424.813 527.757C424.408 527.838 423.659 528.021 422.688 528.021C420.724 528.021 418.963 527.373 418.963 523.871V506.767H425.339V501.909ZM453.831 509.5C452.576 504.662 448.791 501.504 442.071 501.504C435.047 501.504 430.068 505.208 430.068 510.714C430.068 515.127 432.74 518.062 438.569 519.357L443.832 520.511C446.828 521.179 448.224 522.515 448.224 524.458C448.224 526.867 445.654 528.749 441.686 528.749C438.063 528.749 435.735 527.191 435.007 524.134L429.157 525.025C430.169 530.531 434.744 533.627 441.727 533.627C449.237 533.627 454.439 529.64 454.439 524.013C454.439 519.62 451.645 516.908 445.937 515.592L440.998 514.459C437.577 513.649 436.1 512.495 436.12 510.39C436.1 508.002 438.691 506.301 442.132 506.301C445.897 506.301 447.637 508.386 448.346 510.471L453.831 509.5Z" fill="#1E1E1E"/>
<path d="M197.358 574L198.821 569.881H204.702L206.165 574H208.011L202.67 559.455H200.852L195.511 574H197.358ZM199.375 568.318L201.705 561.756H201.818L204.148 568.318H199.375ZM211.726 559.455H210.05V574H211.726V559.455ZM222.523 565.534C221.998 563.986 220.819 562.949 218.659 562.949C216.358 562.949 214.654 564.256 214.654 566.102C214.654 567.608 215.549 568.616 217.551 569.085L219.37 569.511C220.471 569.767 220.989 570.293 220.989 571.045C220.989 571.983 219.995 572.75 218.432 572.75C217.061 572.75 216.202 572.161 215.904 570.989L214.313 571.386C214.703 573.24 216.23 574.227 218.461 574.227C220.996 574.227 222.722 572.842 222.722 570.96C222.722 569.44 221.77 568.482 219.824 568.006L218.205 567.608C216.912 567.288 216.33 566.855 216.33 566.017C216.33 565.08 217.324 564.398 218.659 564.398C220.123 564.398 220.726 565.207 221.017 565.96L222.523 565.534ZM229.677 574.227C232.631 574.227 234.62 571.983 234.62 568.602C234.62 565.193 232.631 562.949 229.677 562.949C226.722 562.949 224.734 565.193 224.734 568.602C224.734 571.983 226.722 574.227 229.677 574.227ZM229.677 572.722C227.433 572.722 226.41 570.79 226.41 568.602C226.41 566.415 227.433 564.455 229.677 564.455C231.921 564.455 232.944 566.415 232.944 568.602C232.944 570.79 231.921 572.722 229.677 572.722ZM239.679 572.011H237.86L237.775 572.807C237.569 574.732 237.164 576.649 236.98 577.551H238.258C238.599 576.585 239.324 574.398 239.565 572.778L239.679 572.011ZM248.409 574H250.085V563.091H248.409V574ZM249.261 561.273C249.915 561.273 250.455 560.761 250.455 560.136C250.455 559.511 249.915 559 249.261 559C248.608 559 248.068 559.511 248.068 560.136C248.068 560.761 248.608 561.273 249.261 561.273ZM254.831 567.438C254.831 565.534 256.01 564.455 257.615 564.455C259.171 564.455 260.115 565.47 260.115 567.182V574H261.792V567.068C261.792 564.284 260.307 562.949 258.098 562.949C256.451 562.949 255.428 563.688 254.917 564.795H254.775V563.091H253.155V574H254.831V567.438ZM273.69 574.256C275.593 574.256 276.587 573.233 276.928 572.523H277.013V574H278.69V566.812C278.69 563.347 276.048 562.949 274.656 562.949C273.008 562.949 271.133 563.517 270.281 565.506L271.871 566.074C272.241 565.278 273.114 564.426 274.712 564.426C276.254 564.426 277.013 565.243 277.013 566.642V566.699C277.013 567.509 276.19 567.438 274.201 567.693C272.177 567.956 269.968 568.403 269.968 570.903C269.968 573.034 271.616 574.256 273.69 574.256ZM273.945 572.75C272.61 572.75 271.644 572.153 271.644 570.989C271.644 569.71 272.809 569.312 274.116 569.142C274.826 569.057 276.729 568.858 277.013 568.517V570.051C277.013 571.415 275.934 572.75 273.945 572.75ZM289.05 567.438C289.05 565.534 290.229 564.455 291.834 564.455C293.39 564.455 294.334 565.47 294.334 567.182V574H296.01V567.068C296.01 564.284 294.526 562.949 292.317 562.949C290.669 562.949 289.647 563.688 289.135 564.795H288.993V563.091H287.374V574H289.05V567.438ZM305.948 569.54C305.948 571.585 304.386 572.523 303.136 572.523C301.744 572.523 300.749 571.5 300.749 569.909V563.091H299.073V570.023C299.073 572.807 300.55 574.142 302.596 574.142C304.244 574.142 305.323 573.261 305.835 572.153H305.948V574H307.624V563.091H305.948V569.54ZM315.439 563.091H313.109V560.477H311.433V563.091H309.785V564.511H311.433V571.33C311.433 573.233 312.967 574.142 314.387 574.142C315.012 574.142 315.41 574.028 315.637 573.943L315.297 572.438C315.154 572.466 314.927 572.523 314.558 572.523C313.819 572.523 313.109 572.295 313.109 570.875V564.511H315.439V563.091ZM325.492 565.534C324.966 563.986 323.787 562.949 321.628 562.949C319.327 562.949 317.623 564.256 317.623 566.102C317.623 567.608 318.517 568.616 320.52 569.085L322.338 569.511C323.439 569.767 323.958 570.293 323.958 571.045C323.958 571.983 322.963 572.75 321.401 572.75C320.03 572.75 319.171 572.161 318.873 570.989L317.282 571.386C317.672 573.24 319.199 574.227 321.429 574.227C323.965 574.227 325.691 572.842 325.691 570.96C325.691 569.44 324.739 568.482 322.793 568.006L321.174 567.608C319.881 567.288 319.299 566.855 319.299 566.017C319.299 565.08 320.293 564.398 321.628 564.398C323.091 564.398 323.695 565.207 323.986 565.96L325.492 565.534ZM329.89 567.438C329.89 565.534 331.104 564.455 332.759 564.455C334.336 564.455 335.288 565.449 335.288 567.182V574H336.964V567.068C336.964 564.263 335.472 562.949 333.242 562.949C331.523 562.949 330.543 563.666 330.032 564.795H329.89V559.455H328.214V574H329.89V567.438ZM344.604 574.227C346.82 574.227 348.439 573.119 348.951 571.472L347.331 571.017C346.905 572.153 345.918 572.722 344.604 572.722C342.637 572.722 341.28 571.45 341.202 569.114H349.121V568.403C349.121 564.341 346.706 562.949 344.434 562.949C341.479 562.949 339.519 565.278 339.519 568.631C339.519 571.983 341.451 574.227 344.604 574.227ZM341.202 567.665C341.316 565.967 342.516 564.455 344.434 564.455C346.252 564.455 347.417 565.818 347.417 567.665H341.202ZM353.347 559.455H351.671V574H353.347V559.455ZM358.093 559.455H356.417V574H358.093V559.455ZM363.663 572.011H361.845L361.76 572.807C361.554 574.732 361.149 576.649 360.964 577.551H362.243C362.583 576.585 363.308 574.398 363.549 572.778L363.663 572.011ZM377.138 563.091H374.808V560.477H373.132V563.091H371.484V564.511H373.132V571.33C373.132 573.233 374.666 574.142 376.087 574.142C376.712 574.142 377.109 574.028 377.337 573.943L376.996 572.438C376.854 572.466 376.626 572.523 376.257 572.523C375.518 572.523 374.808 572.295 374.808 570.875V564.511H377.138V563.091ZM381.57 567.438C381.57 565.534 382.784 564.455 384.439 564.455C386.016 564.455 386.967 565.449 386.967 567.182V574H388.643V567.068C388.643 564.263 387.152 562.949 384.922 562.949C383.203 562.949 382.223 563.666 381.712 564.795H381.57V559.455H379.893V574H381.57V567.438ZM396.284 574.227C398.5 574.227 400.119 573.119 400.63 571.472L399.011 571.017C398.585 572.153 397.598 572.722 396.284 572.722C394.316 572.722 392.96 571.45 392.882 569.114H400.801V568.403C400.801 564.341 398.386 562.949 396.113 562.949C393.159 562.949 391.199 565.278 391.199 568.631C391.199 571.983 393.13 574.227 396.284 574.227ZM392.882 567.665C392.995 565.967 394.196 564.455 396.113 564.455C397.931 564.455 399.096 565.818 399.096 567.665H392.882ZM403.35 574H405.027V567.097C405.027 565.619 406.191 564.54 407.782 564.54C408.23 564.54 408.691 564.625 408.805 564.653V562.949C408.613 562.935 408.173 562.92 407.924 562.92C406.618 562.92 405.481 563.659 405.083 564.739H404.97V563.091H403.35V574ZM415.034 574.227C417.25 574.227 418.869 573.119 419.38 571.472L417.761 571.017C417.335 572.153 416.348 572.722 415.034 572.722C413.066 572.722 411.71 571.45 411.632 569.114H419.551V568.403C419.551 564.341 417.136 562.949 414.863 562.949C411.909 562.949 409.949 565.278 409.949 568.631C409.949 571.983 411.88 574.227 415.034 574.227ZM411.632 567.665C411.745 565.967 412.946 564.455 414.863 564.455C416.681 564.455 417.846 565.818 417.846 567.665H411.632ZM430.936 574.256C432.839 574.256 433.833 573.233 434.174 572.523H434.26V574H435.936V566.812C435.936 563.347 433.294 562.949 431.902 562.949C430.254 562.949 428.379 563.517 427.527 565.506L429.118 566.074C429.487 565.278 430.36 564.426 431.958 564.426C433.5 564.426 434.26 565.243 434.26 566.642V566.699C434.26 567.509 433.436 567.438 431.447 567.693C429.423 567.956 427.214 568.403 427.214 570.903C427.214 573.034 428.862 574.256 430.936 574.256ZM431.191 572.75C429.856 572.75 428.89 572.153 428.89 570.989C428.89 569.71 430.055 569.312 431.362 569.142C432.072 569.057 433.975 568.858 434.26 568.517V570.051C434.26 571.415 433.18 572.75 431.191 572.75ZM438.995 574H440.671V567.097C440.671 565.619 441.836 564.54 443.427 564.54C443.874 564.54 444.336 564.625 444.45 564.653V562.949C444.258 562.935 443.817 562.92 443.569 562.92C442.262 562.92 441.126 563.659 440.728 564.739H440.614V563.091H438.995V574ZM450.678 574.227C452.894 574.227 454.513 573.119 455.025 571.472L453.406 571.017C452.979 572.153 451.992 572.722 450.678 572.722C448.711 572.722 447.354 571.45 447.276 569.114H455.195V568.403C455.195 564.341 452.781 562.949 450.508 562.949C447.553 562.949 445.593 565.278 445.593 568.631C445.593 571.983 447.525 574.227 450.678 574.227ZM447.276 567.665C447.39 565.967 448.59 564.455 450.508 564.455C452.326 564.455 453.491 565.818 453.491 567.665H447.276ZM465.046 559.455H463.37V574H465.046V559.455ZM468.116 574H469.792V563.091H468.116V574ZM468.968 561.273C469.622 561.273 470.162 560.761 470.162 560.136C470.162 559.511 469.622 559 468.968 559C468.315 559 467.775 559.511 467.775 560.136C467.775 560.761 468.315 561.273 468.968 561.273ZM477.607 563.091H475.277V560.477H473.601V563.091H471.953V564.511H473.601V571.33C473.601 573.233 475.135 574.142 476.555 574.142C477.18 574.142 477.578 574.028 477.805 573.943L477.464 572.438C477.322 572.466 477.095 572.523 476.726 572.523C475.987 572.523 475.277 572.295 475.277 570.875V564.511H477.607V563.091ZM484.585 574.227C486.8 574.227 488.42 573.119 488.931 571.472L487.312 571.017C486.886 572.153 485.898 572.722 484.585 572.722C482.617 572.722 481.261 571.45 481.183 569.114H489.102V568.403C489.102 564.341 486.687 562.949 484.414 562.949C481.46 562.949 479.499 565.278 479.499 568.631C479.499 571.983 481.431 574.227 484.585 574.227ZM481.183 567.665C481.296 565.967 482.496 564.455 484.414 564.455C486.232 564.455 487.397 565.818 487.397 567.665H481.183ZM491.651 574H493.327V567.097C493.327 565.619 494.492 564.54 496.083 564.54C496.531 564.54 496.992 564.625 497.106 564.653V562.949C496.914 562.935 496.474 562.92 496.225 562.92C494.918 562.92 493.782 563.659 493.384 564.739H493.271V563.091H491.651V574ZM502.303 574.256C504.206 574.256 505.201 573.233 505.542 572.523H505.627V574H507.303V566.812C507.303 563.347 504.661 562.949 503.269 562.949C501.621 562.949 499.746 563.517 498.894 565.506L500.485 566.074C500.854 565.278 501.728 564.426 503.326 564.426C504.867 564.426 505.627 565.243 505.627 566.642V566.699C505.627 567.509 504.803 567.438 502.814 567.693C500.79 567.956 498.581 568.403 498.581 570.903C498.581 573.034 500.229 574.256 502.303 574.256ZM502.559 572.75C501.223 572.75 500.257 572.153 500.257 570.989C500.257 569.71 501.422 569.312 502.729 569.142C503.439 569.057 505.343 568.858 505.627 568.517V570.051C505.627 571.415 504.547 572.75 502.559 572.75ZM512.038 559.455H510.362V574H512.038V559.455ZM516.784 559.455H515.108V574H516.784V559.455ZM520.934 578.091C522.447 578.091 523.512 577.288 524.144 575.591L528.789 563.119L526.957 563.091L523.945 571.784H523.832L520.82 563.091H519.002L523.036 574.057L522.724 574.909C522.113 576.571 521.36 576.727 520.138 576.415L519.712 577.892C519.883 577.977 520.366 578.091 520.934 578.091ZM201.619 581.455H199.858L196.222 583.869V585.659L199.773 583.301H199.858V596H201.619V581.455ZM212.081 587.946H205.717V589.509H212.081V587.946ZM214.318 596H223.494V594.438H216.733V594.324L220 590.83C222.5 588.152 223.239 586.902 223.239 585.29C223.239 583.045 221.42 581.256 218.864 581.256C216.314 581.256 214.375 582.989 214.375 585.545H216.051C216.051 583.891 217.124 582.79 218.807 582.79C220.384 582.79 221.591 583.756 221.591 585.29C221.591 586.632 220.803 587.626 219.119 589.466L214.318 594.722V596ZM239.808 587.534C239.283 585.986 238.104 584.949 235.945 584.949C233.643 584.949 231.939 586.256 231.939 588.102C231.939 589.608 232.834 590.616 234.837 591.085L236.655 591.511C237.756 591.767 238.274 592.293 238.274 593.045C238.274 593.983 237.28 594.75 235.717 594.75C234.347 594.75 233.487 594.161 233.189 592.989L231.598 593.386C231.989 595.24 233.516 596.227 235.746 596.227C238.281 596.227 240.007 594.842 240.007 592.96C240.007 591.44 239.055 590.482 237.109 590.006L235.49 589.608C234.197 589.288 233.615 588.855 233.615 588.017C233.615 587.08 234.609 586.398 235.945 586.398C237.408 586.398 238.011 587.207 238.303 587.96L239.808 587.534ZM247.104 596.227C249.32 596.227 250.939 595.119 251.451 593.472L249.831 593.017C249.405 594.153 248.418 594.722 247.104 594.722C245.137 594.722 243.78 593.45 243.702 591.114H251.621V590.403C251.621 586.341 249.206 584.949 246.934 584.949C243.979 584.949 242.019 587.278 242.019 590.631C242.019 593.983 243.951 596.227 247.104 596.227ZM243.702 589.665C243.816 587.967 245.016 586.455 246.934 586.455C248.752 586.455 249.917 587.818 249.917 589.665H243.702ZM255.847 589.438C255.847 587.534 257.026 586.455 258.631 586.455C260.186 586.455 261.131 587.47 261.131 589.182V596H262.807V589.068C262.807 586.284 261.323 584.949 259.114 584.949C257.466 584.949 256.444 585.688 255.932 586.795H255.79V585.091H254.171V596H255.847V589.438ZM270.614 585.091H268.285V582.477H266.609V585.091H264.961V586.511H266.609V593.33C266.609 595.233 268.143 596.142 269.563 596.142C270.188 596.142 270.586 596.028 270.813 595.943L270.472 594.438C270.33 594.466 270.103 594.523 269.734 594.523C268.995 594.523 268.285 594.295 268.285 592.875V586.511H270.614V585.091ZM277.592 596.227C279.808 596.227 281.428 595.119 281.939 593.472L280.32 593.017C279.893 594.153 278.906 594.722 277.592 594.722C275.625 594.722 274.268 593.45 274.19 591.114H282.109V590.403C282.109 586.341 279.695 584.949 277.422 584.949C274.467 584.949 272.507 587.278 272.507 590.631C272.507 593.983 274.439 596.227 277.592 596.227ZM274.19 589.665C274.304 587.967 275.504 586.455 277.422 586.455C279.24 586.455 280.405 587.818 280.405 589.665H274.19ZM286.335 589.438C286.335 587.534 287.514 586.455 289.119 586.455C290.675 586.455 291.619 587.47 291.619 589.182V596H293.295V589.068C293.295 586.284 291.811 584.949 289.602 584.949C287.955 584.949 286.932 585.688 286.42 586.795H286.278V585.091H284.659V596H286.335V589.438ZM300.79 596.227C303.205 596.227 304.796 594.75 305.08 592.818H303.404C303.091 594.011 302.097 594.722 300.79 594.722C298.801 594.722 297.523 593.074 297.523 590.545C297.523 588.074 298.83 586.455 300.79 586.455C302.267 586.455 303.148 587.364 303.404 588.358H305.08C304.796 586.312 303.063 584.949 300.762 584.949C297.807 584.949 295.847 587.278 295.847 590.602C295.847 593.869 297.722 596.227 300.79 596.227ZM312.104 596.227C314.32 596.227 315.939 595.119 316.451 593.472L314.831 593.017C314.405 594.153 313.418 594.722 312.104 594.722C310.137 594.722 308.78 593.45 308.702 591.114H316.621V590.403C316.621 586.341 314.206 584.949 311.934 584.949C308.979 584.949 307.019 587.278 307.019 590.631C307.019 593.983 308.951 596.227 312.104 596.227ZM308.702 589.665C308.816 587.967 310.016 586.455 311.934 586.455C313.752 586.455 314.917 587.818 314.917 589.665H308.702ZM326.898 587.534C326.373 585.986 325.194 584.949 323.034 584.949C320.733 584.949 319.029 586.256 319.029 588.102C319.029 589.608 319.924 590.616 321.926 591.085L323.745 591.511C324.846 591.767 325.364 592.293 325.364 593.045C325.364 593.983 324.37 594.75 322.807 594.75C321.436 594.75 320.577 594.161 320.279 592.989L318.688 593.386C319.078 595.24 320.605 596.227 322.836 596.227C325.371 596.227 327.097 594.842 327.097 592.96C327.097 591.44 326.145 590.482 324.199 590.006L322.58 589.608C321.287 589.288 320.705 588.855 320.705 588.017C320.705 587.08 321.699 586.398 323.034 586.398C324.498 586.398 325.101 587.207 325.392 587.96L326.898 587.534ZM338.455 596.256C340.359 596.256 341.353 595.233 341.694 594.523H341.779V596H343.455V588.812C343.455 585.347 340.813 584.949 339.421 584.949C337.773 584.949 335.898 585.517 335.046 587.506L336.637 588.074C337.006 587.278 337.88 586.426 339.478 586.426C341.019 586.426 341.779 587.243 341.779 588.642V588.699C341.779 589.509 340.955 589.438 338.967 589.693C336.942 589.956 334.734 590.403 334.734 592.903C334.734 595.034 336.381 596.256 338.455 596.256ZM338.711 594.75C337.376 594.75 336.41 594.153 336.41 592.989C336.41 591.71 337.575 591.312 338.881 591.142C339.592 591.057 341.495 590.858 341.779 590.517V592.051C341.779 593.415 340.7 594.75 338.711 594.75ZM346.742 596H348.361V594.324H348.56C348.929 594.92 349.64 596.227 351.742 596.227C354.469 596.227 356.373 594.04 356.373 590.574C356.373 587.136 354.469 584.949 351.713 584.949C349.583 584.949 348.929 586.256 348.56 586.824H348.418V581.455H346.742V596ZM348.39 590.545C348.39 588.102 349.469 586.455 351.515 586.455C353.645 586.455 354.696 588.244 354.696 590.545C354.696 592.875 353.617 594.722 351.515 594.722C349.498 594.722 348.39 593.017 348.39 590.545ZM363.368 596.227C366.323 596.227 368.311 593.983 368.311 590.602C368.311 587.193 366.323 584.949 363.368 584.949C360.414 584.949 358.425 587.193 358.425 590.602C358.425 593.983 360.414 596.227 363.368 596.227ZM363.368 594.722C361.124 594.722 360.101 592.79 360.101 590.602C360.101 588.415 361.124 586.455 363.368 586.455C365.613 586.455 366.635 588.415 366.635 590.602C366.635 592.79 365.613 594.722 363.368 594.722ZM377.745 591.54C377.745 593.585 376.183 594.523 374.933 594.523C373.54 594.523 372.546 593.5 372.546 591.909V585.091H370.87V592.023C370.87 594.807 372.347 596.142 374.393 596.142C376.04 596.142 377.12 595.261 377.631 594.153H377.745V596H379.421V585.091H377.745V591.54ZM387.235 585.091H384.906V582.477H383.23V585.091H381.582V586.511H383.23V593.33C383.23 595.233 384.764 596.142 386.184 596.142C386.809 596.142 387.207 596.028 387.434 595.943L387.093 594.438C386.951 594.466 386.724 594.523 386.355 594.523C385.616 594.523 384.906 594.295 384.906 592.875V586.511H387.235V585.091ZM400.126 585.091H397.797V582.477H396.12V585.091H394.473V586.511H396.12V593.33C396.12 595.233 397.654 596.142 399.075 596.142C399.7 596.142 400.098 596.028 400.325 595.943L399.984 594.438C399.842 594.466 399.615 594.523 399.245 594.523C398.507 594.523 397.797 594.295 397.797 592.875V586.511H400.126V585.091ZM404.558 589.438C404.558 587.534 405.772 586.455 407.427 586.455C409.004 586.455 409.956 587.449 409.956 589.182V596H411.632V589.068C411.632 586.263 410.14 584.949 407.91 584.949C406.191 584.949 405.211 585.666 404.7 586.795H404.558V581.455H402.882V596H404.558V589.438ZM419.272 596.227C421.488 596.227 423.107 595.119 423.619 593.472L421.999 593.017C421.573 594.153 420.586 594.722 419.272 594.722C417.305 594.722 415.948 593.45 415.87 591.114H423.789V590.403C423.789 586.341 421.374 584.949 419.102 584.949C416.147 584.949 414.187 587.278 414.187 590.631C414.187 593.983 416.119 596.227 419.272 596.227ZM415.87 589.665C415.984 587.967 417.184 586.455 419.102 586.455C420.92 586.455 422.085 587.818 422.085 589.665H415.87ZM439.691 587.534C439.165 585.986 437.987 584.949 435.827 584.949C433.526 584.949 431.822 586.256 431.822 588.102C431.822 589.608 432.717 590.616 434.719 591.085L436.538 591.511C437.638 591.767 438.157 592.293 438.157 593.045C438.157 593.983 437.163 594.75 435.6 594.75C434.229 594.75 433.37 594.161 433.072 592.989L431.481 593.386C431.871 595.24 433.398 596.227 435.629 596.227C438.164 596.227 439.89 594.842 439.89 592.96C439.89 591.44 438.938 590.482 436.992 590.006L435.373 589.608C434.08 589.288 433.498 588.855 433.498 588.017C433.498 587.08 434.492 586.398 435.827 586.398C437.29 586.398 437.894 587.207 438.185 587.96L439.691 587.534ZM446.987 596.227C449.203 596.227 450.822 595.119 451.333 593.472L449.714 593.017C449.288 594.153 448.301 594.722 446.987 594.722C445.02 594.722 443.663 593.45 443.585 591.114H451.504V590.403C451.504 586.341 449.089 584.949 446.816 584.949C443.862 584.949 441.902 587.278 441.902 590.631C441.902 593.983 443.833 596.227 446.987 596.227ZM443.585 589.665C443.699 587.967 444.899 586.455 446.816 586.455C448.635 586.455 449.799 587.818 449.799 589.665H443.585ZM454.054 596H455.73V589.097C455.73 587.619 456.895 586.54 458.485 586.54C458.933 586.54 459.395 586.625 459.508 586.653V584.949C459.316 584.935 458.876 584.92 458.627 584.92C457.321 584.92 456.184 585.659 455.787 586.739H455.673V585.091H454.054V596ZM470.748 585.091H468.929L465.918 593.784H465.804L462.793 585.091H460.975L465.009 596H466.713L470.748 585.091ZM472.96 596H474.636V585.091H472.96V596ZM473.812 583.273C474.466 583.273 475.005 582.761 475.005 582.136C475.005 581.511 474.466 581 473.812 581C473.159 581 472.619 581.511 472.619 582.136C472.619 582.761 473.159 583.273 473.812 583.273ZM482.138 596.227C484.553 596.227 486.143 594.75 486.428 592.818H484.751C484.439 594.011 483.445 594.722 482.138 594.722C480.149 594.722 478.871 593.074 478.871 590.545C478.871 588.074 480.178 586.455 482.138 586.455C483.615 586.455 484.496 587.364 484.751 588.358H486.428C486.143 586.312 484.411 584.949 482.109 584.949C479.155 584.949 477.195 587.278 477.195 590.602C477.195 593.869 479.07 596.227 482.138 596.227ZM493.452 596.227C495.668 596.227 497.287 595.119 497.798 593.472L496.179 593.017C495.753 594.153 494.766 594.722 493.452 594.722C491.484 594.722 490.128 593.45 490.05 591.114H497.969V590.403C497.969 586.341 495.554 584.949 493.281 584.949C490.327 584.949 488.366 587.278 488.366 590.631C488.366 593.983 490.298 596.227 493.452 596.227ZM490.05 589.665C490.163 587.967 491.364 586.455 493.281 586.455C495.099 586.455 496.264 587.818 496.264 589.665H490.05ZM503.018 594.011H501.2L501.115 594.807C500.909 596.732 500.504 598.649 500.32 599.551H501.598C501.939 598.585 502.663 596.398 502.905 594.778L503.018 594.011ZM516.493 585.091H514.164V582.477H512.488V585.091H510.84V586.511H512.488V593.33C512.488 595.233 514.022 596.142 515.442 596.142C516.067 596.142 516.465 596.028 516.692 595.943L516.351 594.438C516.209 594.466 515.982 594.523 515.613 594.523C514.874 594.523 514.164 594.295 514.164 592.875V586.511H516.493V585.091ZM520.925 589.438C520.925 587.534 522.14 586.455 523.794 586.455C525.371 586.455 526.323 587.449 526.323 589.182V596H527.999V589.068C527.999 586.263 526.507 584.949 524.277 584.949C522.559 584.949 521.578 585.666 521.067 586.795H520.925V581.455H519.249V596H520.925V589.438ZM535.639 596.227C537.855 596.227 539.474 595.119 539.986 593.472L538.366 593.017C537.94 594.153 536.953 594.722 535.639 594.722C533.672 594.722 532.315 593.45 532.237 591.114H540.156V590.403C540.156 586.341 537.741 584.949 535.469 584.949C532.514 584.949 530.554 587.278 530.554 590.631C530.554 593.983 532.486 596.227 535.639 596.227ZM532.237 589.665C532.351 587.967 533.551 586.455 535.469 586.455C537.287 586.455 538.452 587.818 538.452 589.665H532.237ZM544.382 589.438C544.382 587.534 545.561 586.455 547.166 586.455C548.722 586.455 549.666 587.47 549.666 589.182V596H551.342V589.068C551.342 586.284 549.858 584.949 547.649 584.949C546.001 584.949 544.979 585.688 544.467 586.795H544.325V585.091H542.706V596H544.382V589.438ZM201.278 607.091H198.949V604.477H197.273V607.091H195.625V608.511H197.273V615.33C197.273 617.233 198.807 618.142 200.227 618.142C200.852 618.142 201.25 618.028 201.477 617.943L201.136 616.438C200.994 616.466 200.767 616.523 200.398 616.523C199.659 616.523 198.949 616.295 198.949 614.875V608.511H201.278V607.091ZM205.71 611.438C205.71 609.534 206.925 608.455 208.58 608.455C210.156 608.455 211.108 609.449 211.108 611.182V618H212.784V611.068C212.784 608.263 211.293 606.949 209.062 606.949C207.344 606.949 206.364 607.666 205.852 608.795H205.71V603.455H204.034V618H205.71V611.438ZM220.424 618.227C222.64 618.227 224.26 617.119 224.771 615.472L223.152 615.017C222.725 616.153 221.738 616.722 220.424 616.722C218.457 616.722 217.1 615.45 217.022 613.114H224.941V612.403C224.941 608.341 222.527 606.949 220.254 606.949C217.299 606.949 215.339 609.278 215.339 612.631C215.339 615.983 217.271 618.227 220.424 618.227ZM217.022 611.665C217.136 609.967 218.336 608.455 220.254 608.455C222.072 608.455 223.237 609.818 223.237 611.665H217.022ZM234.565 603.455H233.002V608.455H234.565V603.455ZM238.201 603.455H236.639V608.455H238.201V603.455ZM241.41 618H249.933V616.438H243.171V603.455H241.41V618ZM257.006 618.227C259.222 618.227 260.842 617.119 261.353 615.472L259.734 615.017C259.308 616.153 258.32 616.722 257.006 616.722C255.039 616.722 253.683 615.45 253.604 613.114H261.523V612.403C261.523 608.341 259.109 606.949 256.836 606.949C253.881 606.949 251.921 609.278 251.921 612.631C251.921 615.983 253.853 618.227 257.006 618.227ZM253.604 611.665C253.718 609.967 254.918 608.455 256.836 608.455C258.654 608.455 259.819 609.818 259.819 611.665H253.604ZM267.283 618.256C269.187 618.256 270.181 617.233 270.522 616.523H270.607V618H272.283V610.812C272.283 607.347 269.641 606.949 268.249 606.949C266.602 606.949 264.727 607.517 263.874 609.506L265.465 610.074C265.835 609.278 266.708 608.426 268.306 608.426C269.847 608.426 270.607 609.243 270.607 610.642V610.699C270.607 611.509 269.783 611.438 267.795 611.693C265.771 611.956 263.562 612.403 263.562 614.903C263.562 617.034 265.21 618.256 267.283 618.256ZM267.539 616.75C266.204 616.75 265.238 616.153 265.238 614.989C265.238 613.71 266.403 613.312 267.71 613.142C268.42 613.057 270.323 612.858 270.607 612.517V614.051C270.607 615.415 269.528 616.75 267.539 616.75ZM275.343 618H277.019V611.097C277.019 609.619 278.184 608.54 279.775 608.54C280.222 608.54 280.684 608.625 280.797 608.653V606.949C280.605 606.935 280.165 606.92 279.917 606.92C278.61 606.92 277.473 607.659 277.076 608.739H276.962V607.091H275.343V618ZM284.46 611.438C284.46 609.534 285.639 608.455 287.244 608.455C288.8 608.455 289.744 609.47 289.744 611.182V618H291.42V611.068C291.42 608.284 289.936 606.949 287.727 606.949C286.08 606.949 285.057 607.688 284.545 608.795H284.403V607.091H282.784V618H284.46V611.438ZM300.336 603.455V618H301.983V606.949H302.125L306.671 618H308.262L312.807 606.949H312.949V618H314.597V603.455H312.495L307.551 615.528H307.381L302.438 603.455H300.336ZM322.333 618.227C325.288 618.227 327.276 615.983 327.276 612.602C327.276 609.193 325.288 606.949 322.333 606.949C319.379 606.949 317.39 609.193 317.39 612.602C317.39 615.983 319.379 618.227 322.333 618.227ZM322.333 616.722C320.089 616.722 319.066 614.79 319.066 612.602C319.066 610.415 320.089 608.455 322.333 608.455C324.577 608.455 325.6 610.415 325.6 612.602C325.6 614.79 324.577 616.722 322.333 616.722ZM329.835 618H331.511V611.097C331.511 609.619 332.676 608.54 334.267 608.54C334.714 608.54 335.176 608.625 335.289 608.653V606.949C335.098 606.935 334.657 606.92 334.409 606.92C333.102 606.92 331.966 607.659 331.568 608.739H331.454V607.091H329.835V618ZM341.518 618.227C343.734 618.227 345.353 617.119 345.865 615.472L344.245 615.017C343.819 616.153 342.832 616.722 341.518 616.722C339.551 616.722 338.194 615.45 338.116 613.114H346.035V612.403C346.035 608.341 343.62 606.949 341.348 606.949C338.393 606.949 336.433 609.278 336.433 612.631C336.433 615.983 338.365 618.227 341.518 618.227ZM338.116 611.665C338.23 609.967 339.43 608.455 341.348 608.455C343.166 608.455 344.331 609.818 344.331 611.665H338.116ZM350.034 603.455H348.471V608.455H350.034V603.455ZM353.67 603.455H352.108V608.455H353.67V603.455ZM362.504 618H364.123V616.324H364.322C364.691 616.92 365.401 618.227 367.504 618.227C370.231 618.227 372.134 616.04 372.134 612.574C372.134 609.136 370.231 606.949 367.475 606.949C365.344 606.949 364.691 608.256 364.322 608.824H364.18V603.455H362.504V618ZM364.151 612.545C364.151 610.102 365.231 608.455 367.276 608.455C369.407 608.455 370.458 610.244 370.458 612.545C370.458 614.875 369.379 616.722 367.276 616.722C365.259 616.722 364.151 615.017 364.151 612.545ZM381.573 613.54C381.573 615.585 380.011 616.523 378.761 616.523C377.369 616.523 376.374 615.5 376.374 613.909V607.091H374.698V614.023C374.698 616.807 376.175 618.142 378.221 618.142C379.869 618.142 380.948 617.261 381.46 616.153H381.573V618H383.249V607.091H381.573V613.54ZM391.064 607.091H388.734V604.477H387.058V607.091H385.41V608.511H387.058V615.33C387.058 617.233 388.592 618.142 390.012 618.142C390.637 618.142 391.035 618.028 391.262 617.943L390.922 616.438C390.779 616.466 390.552 616.523 390.183 616.523C389.444 616.523 388.734 616.295 388.734 614.875V608.511H391.064V607.091ZM398.329 607.091H396V604.477H394.324V607.091H392.676V608.511H394.324V615.33C394.324 617.233 395.858 618.142 397.278 618.142C397.903 618.142 398.301 618.028 398.528 617.943L398.187 616.438C398.045 616.466 397.818 616.523 397.449 616.523C396.71 616.523 396 616.295 396 614.875V608.511H398.329V607.091ZM405.165 618.227C408.12 618.227 410.108 615.983 410.108 612.602C410.108 609.193 408.12 606.949 405.165 606.949C402.211 606.949 400.222 609.193 400.222 612.602C400.222 615.983 402.211 618.227 405.165 618.227ZM405.165 616.722C402.921 616.722 401.898 614.79 401.898 612.602C401.898 610.415 402.921 608.455 405.165 608.455C407.409 608.455 408.432 610.415 408.432 612.602C408.432 614.79 407.409 616.722 405.165 616.722ZM414.343 611.438C414.343 609.534 415.522 608.455 417.127 608.455C418.683 608.455 419.627 609.47 419.627 611.182V618H421.303V611.068C421.303 608.284 419.819 606.949 417.61 606.949C415.962 606.949 414.94 607.688 414.428 608.795H414.286V607.091H412.667V618H414.343V611.438ZM432.463 618H434.11L436.497 609.619H436.667L439.054 618H440.701L444.025 607.091H442.264L439.906 615.415H439.792L437.491 607.091H435.701L433.372 615.443H433.258L430.9 607.091H429.139L432.463 618ZM446.241 618H447.917V607.091H446.241V618ZM447.093 605.273C447.747 605.273 448.287 604.761 448.287 604.136C448.287 603.511 447.747 603 447.093 603C446.44 603 445.9 603.511 445.9 604.136C445.9 604.761 446.44 605.273 447.093 605.273ZM452.663 603.455H450.987V618H452.663V603.455ZM457.409 603.455H455.733V618H457.409V603.455ZM469.315 618.256C471.218 618.256 472.212 617.233 472.553 616.523H472.638V618H474.315V610.812C474.315 607.347 471.673 606.949 470.281 606.949C468.633 606.949 466.758 607.517 465.906 609.506L467.496 610.074C467.866 609.278 468.739 608.426 470.337 608.426C471.879 608.426 472.638 609.243 472.638 610.642V610.699C472.638 611.509 471.815 611.438 469.826 611.693C467.802 611.956 465.593 612.403 465.593 614.903C465.593 617.034 467.241 618.256 469.315 618.256ZM469.57 616.75C468.235 616.75 467.269 616.153 467.269 614.989C467.269 613.71 468.434 613.312 469.741 613.142C470.451 613.057 472.354 612.858 472.638 612.517V614.051C472.638 615.415 471.559 616.75 469.57 616.75ZM477.374 622.091H479.05V616.324H479.192C479.561 616.92 480.272 618.227 482.374 618.227C485.101 618.227 487.005 616.04 487.005 612.574C487.005 609.136 485.101 606.949 482.346 606.949C480.215 606.949 479.561 608.256 479.192 608.824H478.993V607.091H477.374V622.091ZM479.022 612.545C479.022 610.102 480.101 608.455 482.147 608.455C484.277 608.455 485.328 610.244 485.328 612.545C485.328 614.875 484.249 616.722 482.147 616.722C480.13 616.722 479.022 615.017 479.022 612.545ZM489.561 622.091H491.238V616.324H491.38C491.749 616.92 492.459 618.227 494.561 618.227C497.289 618.227 499.192 616.04 499.192 612.574C499.192 609.136 497.289 606.949 494.533 606.949C492.402 606.949 491.749 608.256 491.38 608.824H491.181V607.091H489.561V622.091ZM491.209 612.545C491.209 610.102 492.289 608.455 494.334 608.455C496.465 608.455 497.516 610.244 497.516 612.545C497.516 614.875 496.436 616.722 494.334 616.722C492.317 616.722 491.209 615.017 491.209 612.545ZM506.323 618.227C508.539 618.227 510.158 617.119 510.669 615.472L509.05 615.017C508.624 616.153 507.637 616.722 506.323 616.722C504.355 616.722 502.999 615.45 502.921 613.114H510.84V612.403C510.84 608.341 508.425 606.949 506.152 606.949C503.198 606.949 501.238 609.278 501.238 612.631C501.238 615.983 503.169 618.227 506.323 618.227ZM502.921 611.665C503.034 609.967 504.235 608.455 506.152 608.455C507.971 608.455 509.135 609.818 509.135 611.665H502.921ZM516.6 618.256C518.503 618.256 519.498 617.233 519.838 616.523H519.924V618H521.6V610.812C521.6 607.347 518.958 606.949 517.566 606.949C515.918 606.949 514.043 607.517 513.191 609.506L514.782 610.074C515.151 609.278 516.025 608.426 517.623 608.426C519.164 608.426 519.924 609.243 519.924 610.642V610.699C519.924 611.509 519.1 611.438 517.111 611.693C515.087 611.956 512.878 612.403 512.878 614.903C512.878 617.034 514.526 618.256 516.6 618.256ZM516.855 616.75C515.52 616.75 514.554 616.153 514.554 614.989C514.554 613.71 515.719 613.312 517.026 613.142C517.736 613.057 519.64 612.858 519.924 612.517V614.051C519.924 615.415 518.844 616.75 516.855 616.75ZM524.659 618H526.335V611.097C526.335 609.619 527.5 608.54 529.091 608.54C529.538 608.54 530 608.625 530.114 608.653V606.949C529.922 606.935 529.482 606.92 529.233 606.92C527.926 606.92 526.79 607.659 526.392 608.739H526.278V607.091H524.659V618ZM533.35 616.011H531.532L531.447 616.807C531.241 618.732 530.836 620.649 530.652 621.551H531.93C532.271 620.585 532.995 618.398 533.237 616.778L533.35 616.011ZM199.006 640H200.653L203.04 631.619H203.21L205.597 640H207.244L210.568 629.091H208.807L206.449 637.415H206.335L204.034 629.091H202.244L199.915 637.443H199.801L197.443 629.091H195.682L199.006 640ZM214.46 633.438C214.46 631.534 215.675 630.455 217.33 630.455C218.906 630.455 219.858 631.449 219.858 633.182V640H221.534V633.068C221.534 630.263 220.043 628.949 217.812 628.949C216.094 628.949 215.114 629.666 214.602 630.795H214.46V625.455H212.784V640H214.46V633.438ZM229.174 640.227C231.39 640.227 233.01 639.119 233.521 637.472L231.902 637.017C231.475 638.153 230.488 638.722 229.174 638.722C227.207 638.722 225.85 637.45 225.772 635.114H233.691V634.403C233.691 630.341 231.277 628.949 229.004 628.949C226.049 628.949 224.089 631.278 224.089 634.631C224.089 637.983 226.021 640.227 229.174 640.227ZM225.772 633.665C225.886 631.967 227.086 630.455 229.004 630.455C230.822 630.455 231.987 631.818 231.987 633.665H225.772ZM236.241 640H237.917V633.097C237.917 631.619 239.082 630.54 240.673 630.54C241.12 630.54 241.582 630.625 241.696 630.653V628.949C241.504 628.935 241.064 628.92 240.815 628.92C239.508 628.92 238.372 629.659 237.974 630.739H237.86V629.091H236.241V640ZM247.924 640.227C250.14 640.227 251.76 639.119 252.271 637.472L250.652 637.017C250.225 638.153 249.238 638.722 247.924 638.722C245.957 638.722 244.6 637.45 244.522 635.114H252.441V634.403C252.441 630.341 250.027 628.949 247.754 628.949C244.799 628.949 242.839 631.278 242.839 634.631C242.839 637.983 244.771 640.227 247.924 640.227ZM244.522 633.665C244.636 631.967 245.836 630.455 247.754 630.455C249.572 630.455 250.737 631.818 250.737 633.665H244.522ZM265.36 629.091H263.031V626.477H261.355V629.091H259.707V630.511H261.355V637.33C261.355 639.233 262.889 640.142 264.309 640.142C264.934 640.142 265.332 640.028 265.559 639.943L265.218 638.438C265.076 638.466 264.849 638.523 264.48 638.523C263.741 638.523 263.031 638.295 263.031 636.875V630.511H265.36V629.091ZM269.792 633.438C269.792 631.534 271.007 630.455 272.662 630.455C274.238 630.455 275.19 631.449 275.19 633.182V640H276.866V633.068C276.866 630.263 275.375 628.949 273.145 628.949C271.426 628.949 270.446 629.666 269.934 630.795H269.792V625.455H268.116V640H269.792V633.438ZM284.506 640.227C286.722 640.227 288.342 639.119 288.853 637.472L287.234 637.017C286.808 638.153 285.82 638.722 284.506 638.722C282.539 638.722 281.183 637.45 281.104 635.114H289.023V634.403C289.023 630.341 286.609 628.949 284.336 628.949C281.381 628.949 279.421 631.278 279.421 634.631C279.421 637.983 281.353 640.227 284.506 640.227ZM281.104 633.665C281.218 631.967 282.418 630.455 284.336 630.455C286.154 630.455 287.319 631.818 287.319 633.665H281.104ZM291.573 640H293.249V633.097C293.249 631.619 294.414 630.54 296.005 630.54C296.452 630.54 296.914 630.625 297.028 630.653V628.949C296.836 628.935 296.396 628.92 296.147 628.92C294.84 628.92 293.704 629.659 293.306 630.739H293.192V629.091H291.573V640ZM303.256 640.227C305.472 640.227 307.092 639.119 307.603 637.472L305.984 637.017C305.558 638.153 304.57 638.722 303.256 638.722C301.289 638.722 299.933 637.45 299.854 635.114H307.773V634.403C307.773 630.341 305.359 628.949 303.086 628.949C300.131 628.949 298.171 631.278 298.171 634.631C298.171 637.983 300.103 640.227 303.256 640.227ZM299.854 633.665C299.968 631.967 301.168 630.455 303.086 630.455C304.904 630.455 306.069 631.818 306.069 633.665H299.854ZM318.42 640H320.067L322.454 631.619H322.624L325.011 640H326.658L329.982 629.091H328.221L325.863 637.415H325.749L323.448 629.091H321.658L319.329 637.443H319.215L316.857 629.091H315.096L318.42 640ZM332.198 640H333.874V629.091H332.198V640ZM333.05 627.273C333.704 627.273 334.244 626.761 334.244 626.136C334.244 625.511 333.704 625 333.05 625C332.397 625 331.857 625.511 331.857 626.136C331.857 626.761 332.397 627.273 333.05 627.273ZM338.62 625.455H336.944V640H338.62V625.455ZM343.366 625.455H341.69V640H343.366V625.455ZM352.289 640H353.908V638.324H354.107C354.476 638.92 355.186 640.227 357.289 640.227C360.016 640.227 361.919 638.04 361.919 634.574C361.919 631.136 360.016 628.949 357.26 628.949C355.13 628.949 354.476 630.256 354.107 630.824H353.965V625.455H352.289V640ZM353.936 634.545C353.936 632.102 355.016 630.455 357.061 630.455C359.192 630.455 360.243 632.244 360.243 634.545C360.243 636.875 359.164 638.722 357.061 638.722C355.044 638.722 353.936 637.017 353.936 634.545ZM369.057 640.227C371.273 640.227 372.892 639.119 373.404 637.472L371.784 637.017C371.358 638.153 370.371 638.722 369.057 638.722C367.09 638.722 365.733 637.45 365.655 635.114H373.574V634.403C373.574 630.341 371.159 628.949 368.887 628.949C365.932 628.949 363.972 631.278 363.972 634.631C363.972 637.983 365.904 640.227 369.057 640.227ZM365.655 633.665C365.769 631.967 366.969 630.455 368.887 630.455C370.705 630.455 371.87 631.818 371.87 633.665H365.655ZM384.959 640.256C386.863 640.256 387.857 639.233 388.198 638.523H388.283V640H389.959V632.812C389.959 629.347 387.317 628.949 385.925 628.949C384.277 628.949 382.402 629.517 381.55 631.506L383.141 632.074C383.51 631.278 384.384 630.426 385.982 630.426C387.523 630.426 388.283 631.243 388.283 632.642V632.699C388.283 633.509 387.459 633.438 385.471 633.693C383.446 633.956 381.238 634.403 381.238 636.903C381.238 639.034 382.885 640.256 384.959 640.256ZM385.215 638.75C383.88 638.75 382.914 638.153 382.914 636.989C382.914 635.71 384.078 635.312 385.385 635.142C386.096 635.057 387.999 634.858 388.283 634.517V636.051C388.283 637.415 387.203 638.75 385.215 638.75ZM403.388 629.091H401.058V626.477H399.382V629.091H397.734V630.511H399.382V637.33C399.382 639.233 400.916 640.142 402.337 640.142C402.962 640.142 403.359 640.028 403.587 639.943L403.246 638.438C403.104 638.466 402.876 638.523 402.507 638.523C401.768 638.523 401.058 638.295 401.058 636.875V630.511H403.388V629.091ZM405.909 640H407.585V633.097C407.585 631.619 408.75 630.54 410.341 630.54C410.788 630.54 411.25 630.625 411.364 630.653V628.949C411.172 628.935 410.732 628.92 410.483 628.92C409.176 628.92 408.04 629.659 407.642 630.739H407.528V629.091H405.909V640ZM416.561 640.256C418.464 640.256 419.458 639.233 419.799 638.523H419.885V640H421.561V632.812C421.561 629.347 418.919 628.949 417.527 628.949C415.879 628.949 414.004 629.517 413.152 631.506L414.743 632.074C415.112 631.278 415.985 630.426 417.583 630.426C419.125 630.426 419.885 631.243 419.885 632.642V632.699C419.885 633.509 419.061 633.438 417.072 633.693C415.048 633.956 412.839 634.403 412.839 636.903C412.839 639.034 414.487 640.256 416.561 640.256ZM416.816 638.75C415.481 638.75 414.515 638.153 414.515 636.989C414.515 635.71 415.68 635.312 416.987 635.142C417.697 635.057 419.6 634.858 419.885 634.517V636.051C419.885 637.415 418.805 638.75 416.816 638.75ZM426.296 633.438C426.296 631.534 427.475 630.455 429.08 630.455C430.636 630.455 431.58 631.47 431.58 633.182V640H433.256V633.068C433.256 630.284 431.772 628.949 429.563 628.949C427.915 628.949 426.893 629.688 426.381 630.795H426.239V629.091H424.62V640H426.296V633.438ZM444.047 631.534C443.521 629.986 442.342 628.949 440.183 628.949C437.882 628.949 436.177 630.256 436.177 632.102C436.177 633.608 437.072 634.616 439.075 635.085L440.893 635.511C441.994 635.767 442.512 636.293 442.512 637.045C442.512 637.983 441.518 638.75 439.956 638.75C438.585 638.75 437.725 638.161 437.427 636.989L435.836 637.386C436.227 639.24 437.754 640.227 439.984 640.227C442.52 640.227 444.245 638.842 444.245 636.96C444.245 635.44 443.294 634.482 441.348 634.006L439.728 633.608C438.436 633.288 437.853 632.855 437.853 632.017C437.853 631.08 438.848 630.398 440.183 630.398C441.646 630.398 442.25 631.207 442.541 631.96L444.047 631.534ZM446.768 640H448.445V629.091H446.768V640ZM447.621 627.273C448.274 627.273 448.814 626.761 448.814 626.136C448.814 625.511 448.274 625 447.621 625C446.967 625 446.428 625.511 446.428 626.136C446.428 626.761 446.967 627.273 447.621 627.273ZM456.259 629.091H453.929V626.477H452.253V629.091H450.605V630.511H452.253V637.33C452.253 639.233 453.787 640.142 455.208 640.142C455.833 640.142 456.23 640.028 456.458 639.943L456.117 638.438C455.975 638.466 455.748 638.523 455.378 638.523C454.64 638.523 453.929 638.295 453.929 636.875V630.511H456.259V629.091ZM458.78 640H460.456V629.091H458.78V640ZM459.632 627.273C460.286 627.273 460.826 626.761 460.826 626.136C460.826 625.511 460.286 625 459.632 625C458.979 625 458.439 625.511 458.439 626.136C458.439 626.761 458.979 627.273 459.632 627.273ZM467.958 640.227C470.913 640.227 472.901 637.983 472.901 634.602C472.901 631.193 470.913 628.949 467.958 628.949C465.004 628.949 463.015 631.193 463.015 634.602C463.015 637.983 465.004 640.227 467.958 640.227ZM467.958 638.722C465.714 638.722 464.691 636.79 464.691 634.602C464.691 632.415 465.714 630.455 467.958 630.455C470.202 630.455 471.225 632.415 471.225 634.602C471.225 636.79 470.202 638.722 467.958 638.722ZM477.136 633.438C477.136 631.534 478.315 630.455 479.92 630.455C481.475 630.455 482.42 631.47 482.42 633.182V640H484.096V633.068C484.096 630.284 482.612 628.949 480.403 628.949C478.755 628.949 477.733 629.688 477.221 630.795H477.079V629.091H475.46V640H477.136V633.438ZM497.528 629.091H495.199V626.477H493.523V629.091H491.875V630.511H493.523V637.33C493.523 639.233 495.057 640.142 496.477 640.142C497.102 640.142 497.5 640.028 497.727 639.943L497.386 638.438C497.244 638.466 497.017 638.523 496.648 638.523C495.909 638.523 495.199 638.295 495.199 636.875V630.511H497.528V629.091ZM504.364 640.227C507.319 640.227 509.308 637.983 509.308 634.602C509.308 631.193 507.319 628.949 504.364 628.949C501.41 628.949 499.421 631.193 499.421 634.602C499.421 637.983 501.41 640.227 504.364 640.227ZM504.364 638.722C502.12 638.722 501.097 636.79 501.097 634.602C501.097 632.415 502.12 630.455 504.364 630.455C506.609 630.455 507.631 632.415 507.631 634.602C507.631 636.79 506.609 638.722 504.364 638.722ZM520.701 640.256C522.605 640.256 523.599 639.233 523.94 638.523H524.025V640H525.701V632.812C525.701 629.347 523.059 628.949 521.667 628.949C520.02 628.949 518.145 629.517 517.292 631.506L518.883 632.074C519.252 631.278 520.126 630.426 521.724 630.426C523.265 630.426 524.025 631.243 524.025 632.642V632.699C524.025 633.509 523.201 633.438 521.213 633.693C519.189 633.956 516.98 634.403 516.98 636.903C516.98 639.034 518.627 640.256 520.701 640.256ZM520.957 638.75C519.622 638.75 518.656 638.153 518.656 636.989C518.656 635.71 519.821 635.312 521.127 635.142C521.838 635.057 523.741 634.858 524.025 634.517V636.051C524.025 637.415 522.946 638.75 520.957 638.75ZM196.534 666.091H198.21V660.324H198.352C198.722 660.92 199.432 662.227 201.534 662.227C204.261 662.227 206.165 660.04 206.165 656.574C206.165 653.136 204.261 650.949 201.506 650.949C199.375 650.949 198.722 652.256 198.352 652.824H198.153V651.091H196.534V666.091ZM198.182 656.545C198.182 654.102 199.261 652.455 201.307 652.455C203.438 652.455 204.489 654.244 204.489 656.545C204.489 658.875 203.409 660.722 201.307 660.722C199.29 660.722 198.182 659.017 198.182 656.545ZM211.932 662.256C213.835 662.256 214.83 661.233 215.17 660.523H215.256V662H216.932V654.812C216.932 651.347 214.29 650.949 212.898 650.949C211.25 650.949 209.375 651.517 208.523 653.506L210.114 654.074C210.483 653.278 211.357 652.426 212.955 652.426C214.496 652.426 215.256 653.243 215.256 654.642V654.699C215.256 655.509 214.432 655.438 212.443 655.693C210.419 655.956 208.21 656.403 208.21 658.903C208.21 661.034 209.858 662.256 211.932 662.256ZM212.188 660.75C210.852 660.75 209.886 660.153 209.886 658.989C209.886 657.71 211.051 657.312 212.358 657.142C213.068 657.057 214.972 656.858 215.256 656.517V658.051C215.256 659.415 214.176 660.75 212.188 660.75ZM224.395 666.318C227.008 666.318 229.11 665.125 229.11 662.312V651.091H227.491V652.824H227.321C226.951 652.256 226.27 650.949 224.139 650.949C221.383 650.949 219.48 653.136 219.48 656.489C219.48 659.898 221.468 661.83 224.11 661.83C226.241 661.83 226.923 660.58 227.292 659.983H227.434V662.199C227.434 664.017 226.156 664.841 224.395 664.841C222.413 664.841 221.717 663.797 221.27 663.193L219.934 664.131C220.616 665.274 221.958 666.318 224.395 666.318ZM224.338 660.324C222.235 660.324 221.156 658.733 221.156 656.46C221.156 654.244 222.207 652.455 224.338 652.455C226.383 652.455 227.463 654.102 227.463 656.46C227.463 658.875 226.355 660.324 224.338 660.324ZM236.752 662.227C238.968 662.227 240.588 661.119 241.099 659.472L239.48 659.017C239.054 660.153 238.066 660.722 236.752 660.722C234.785 660.722 233.429 659.45 233.35 657.114H241.27V656.403C241.27 652.341 238.855 650.949 236.582 650.949C233.627 650.949 231.667 653.278 231.667 656.631C231.667 659.983 233.599 662.227 236.752 662.227ZM233.35 655.665C233.464 653.967 234.664 652.455 236.582 652.455C238.4 652.455 239.565 653.818 239.565 655.665H233.35ZM251.916 662H253.564L255.95 653.619H256.12L258.507 662H260.154L263.478 651.091H261.717L259.359 659.415H259.245L256.944 651.091H255.154L252.825 659.443H252.711L250.353 651.091H248.592L251.916 662ZM265.694 662H267.37V651.091H265.694V662ZM266.547 649.273C267.2 649.273 267.74 648.761 267.74 648.136C267.74 647.511 267.2 647 266.547 647C265.893 647 265.353 647.511 265.353 648.136C265.353 648.761 265.893 649.273 266.547 649.273ZM275.185 651.091H272.855V648.477H271.179V651.091H269.531V652.511H271.179V659.33C271.179 661.233 272.713 662.142 274.134 662.142C274.759 662.142 275.156 662.028 275.384 661.943L275.043 660.438C274.901 660.466 274.673 660.523 274.304 660.523C273.565 660.523 272.855 660.295 272.855 658.875V652.511H275.185V651.091ZM279.616 655.438C279.616 653.534 280.831 652.455 282.486 652.455C284.062 652.455 285.014 653.449 285.014 655.182V662H286.69V655.068C286.69 652.263 285.199 650.949 282.969 650.949C281.25 650.949 280.27 651.666 279.759 652.795H279.616V647.455H277.94V662H279.616V655.438ZM299.501 662.227C301.603 662.227 302.314 660.92 302.683 660.324H302.882V662H304.501V647.455H302.825V652.824H302.683C302.314 652.256 301.66 650.949 299.529 650.949C296.774 650.949 294.87 653.136 294.87 656.574C294.87 660.04 296.774 662.227 299.501 662.227ZM299.728 660.722C297.626 660.722 296.547 658.875 296.547 656.545C296.547 654.244 297.598 652.455 299.728 652.455C301.774 652.455 302.853 654.102 302.853 656.545C302.853 659.017 301.745 660.722 299.728 660.722ZM312.377 662.227C314.593 662.227 316.213 661.119 316.724 659.472L315.105 659.017C314.679 660.153 313.691 660.722 312.377 660.722C310.41 660.722 309.054 659.45 308.975 657.114H316.895V656.403C316.895 652.341 314.48 650.949 312.207 650.949C309.252 650.949 307.292 653.278 307.292 656.631C307.292 659.983 309.224 662.227 312.377 662.227ZM308.975 655.665C309.089 653.967 310.289 652.455 312.207 652.455C314.025 652.455 315.19 653.818 315.19 655.665H308.975ZM324.189 651.091H321.859V648.477H320.183V651.091H318.535V652.511H320.183V659.33C320.183 661.233 321.717 662.142 323.137 662.142C323.762 662.142 324.16 662.028 324.387 661.943L324.047 660.438C323.904 660.466 323.677 660.523 323.308 660.523C322.569 660.523 321.859 660.295 321.859 658.875V652.511H324.189V651.091ZM329.92 662.256C331.824 662.256 332.818 661.233 333.159 660.523H333.244V662H334.92V654.812C334.92 651.347 332.278 650.949 330.886 650.949C329.238 650.949 327.363 651.517 326.511 653.506L328.102 654.074C328.471 653.278 329.345 652.426 330.943 652.426C332.484 652.426 333.244 653.243 333.244 654.642V654.699C333.244 655.509 332.42 655.438 330.431 655.693C328.407 655.956 326.199 656.403 326.199 658.903C326.199 661.034 327.846 662.256 329.92 662.256ZM330.176 660.75C328.841 660.75 327.875 660.153 327.875 658.989C327.875 657.71 329.039 657.312 330.346 657.142C331.056 657.057 332.96 656.858 333.244 656.517V658.051C333.244 659.415 332.164 660.75 330.176 660.75ZM337.979 662H339.656V651.091H337.979V662ZM338.832 649.273C339.485 649.273 340.025 648.761 340.025 648.136C340.025 647.511 339.485 647 338.832 647C338.178 647 337.638 647.511 337.638 648.136C337.638 648.761 338.178 649.273 338.832 649.273ZM344.402 647.455H342.725V662H344.402V647.455ZM355.199 653.534C354.673 651.986 353.494 650.949 351.335 650.949C349.034 650.949 347.33 652.256 347.33 654.102C347.33 655.608 348.224 656.616 350.227 657.085L352.045 657.511C353.146 657.767 353.665 658.293 353.665 659.045C353.665 659.983 352.67 660.75 351.108 660.75C349.737 660.75 348.878 660.161 348.58 658.989L346.989 659.386C347.379 661.24 348.906 662.227 351.136 662.227C353.672 662.227 355.398 660.842 355.398 658.96C355.398 657.44 354.446 656.482 352.5 656.006L350.881 655.608C349.588 655.288 349.006 654.855 349.006 654.017C349.006 653.08 350 652.398 351.335 652.398C352.798 652.398 353.402 653.207 353.693 653.96L355.199 653.534ZM359.142 662.114C359.846 662.114 360.421 661.538 360.421 660.835C360.421 660.132 359.846 659.557 359.142 659.557C358.439 659.557 357.864 660.132 357.864 660.835C357.864 661.538 358.439 662.114 359.142 662.114Z" fill="black" fill-opacity="0.6"/>
<defs>
<linearGradient id="paint0_linear_2_4535" x1="1469.02" y1="52.7042" x2="916.084" y2="379.572" gradientUnits="userSpaceOnUse">
<stop offset="0.591" stop-color="#0D0F32"/>
<stop offset="0.6444" stop-color="#0D0F32"/>
<stop offset="0.707" stop-color="#0D0F32"/>
<stop offset="0.7743" stop-color="#843CF1"/>
<stop offset="0.8449" stop-color="#0D0F32"/>
<stop offset="0.9181" stop-color="#3971EA"/>
<stop offset="0.9924" stop-color="#0696E6"/>
<stop offset="1" stop-color="#ECECEC"/>
</linearGradient>
<linearGradient id="paint1_linear_2_4535" x1="1006.37" y1="665.072" x2="1352.7" y2="174.639" gradientUnits="userSpaceOnUse">
<stop stop-color="#AAAEAF"/>
<stop offset="0.5379" stop-color="#AAAEAF"/>
<stop offset="0.8187" stop-color="#AAAEAF"/>
</linearGradient>
<linearGradient id="paint2_linear_2_4535" x1="1462.35" y1="801.438" x2="936.535" y2="257.549" gradientUnits="userSpaceOnUse">
<stop stop-color="#8C8C8C"/>
<stop offset="0.1584" stop-color="#E5E5E5"/>
<stop offset="0.4108" stop-color="#DEDEDE"/>
<stop offset="0.7238" stop-color="#DBDDDE"/>
<stop offset="1" stop-color="#E5E5E5"/>
</linearGradient>
<linearGradient id="paint3_linear_2_4535" x1="52.5" y1="-90.5" x2="1912.77" y2="403.107" gradientUnits="userSpaceOnUse">
<stop stop-color="#FFF741"/>
<stop offset="0.0001" stop-color="#FFE141"/>
<stop offset="0.5074" stop-color="#FFF741"/>
<stop offset="0.6618" stop-color="#FFF741"/>
<stop offset="0.7977" stop-color="#FFF741"/>
<stop offset="0.9204" stop-color="#FFF741"/>
<stop offset="1" stop-color="#FFF741"/>
</linearGradient>
</defs>
</svg>
