<svg width="79" height="13" viewBox="0 0 79 13" fill="none" xmlns="http://www.w3.org/2000/svg">
<path d="M0.901101 1.09091H2.47781L6.18519 10.1463H6.31303L10.0204 1.09091H11.5971V12H10.3613V3.71165H10.2548L6.8457 12H5.65252L2.24343 3.71165H2.1369V12H0.901101V1.09091ZM13.3083 1.09091H14.8211L17.8467 6.18324H17.9745L21.0001 1.09091H22.5129L18.5711 7.50426V12H17.2501V7.50426L13.3083 1.09091ZM24.2214 12V1.09091H27.9075C28.7633 1.09091 29.4629 1.24538 30.0062 1.55433C30.5531 1.85973 30.9579 2.27344 31.2207 2.79545C31.4835 3.31747 31.6149 3.89986 31.6149 4.54261C31.6149 5.18537 31.4835 5.76953 31.2207 6.2951C30.9615 6.82067 30.5602 7.2397 30.0169 7.5522C29.4735 7.86115 28.7775 8.01562 27.9288 8.01562H25.2868V6.84375H27.8862C28.4721 6.84375 28.9426 6.74254 29.2978 6.54013C29.6529 6.33771 29.9103 6.06428 30.0701 5.71982C30.2335 5.3718 30.3152 4.9794 30.3152 4.54261C30.3152 4.10582 30.2335 3.7152 30.0701 3.37074C29.9103 3.02628 29.6511 2.75639 29.2924 2.56108C28.9338 2.36222 28.4579 2.26278 27.8649 2.26278H25.5424V12H24.2214ZM33.0771 12H31.6921L35.6978 1.09091H37.0614L41.0671 12H39.6822L36.4222 2.81676H36.337L33.0771 12ZM33.5884 7.73864H39.1708V8.91051H33.5884V7.73864ZM49.711 4.5C49.5938 4.14134 49.4394 3.81996 49.2476 3.53587C49.0594 3.24822 48.8339 3.0032 48.5711 2.80078C48.3119 2.59837 48.0171 2.44389 47.6869 2.33736C47.3566 2.23082 46.9944 2.17756 46.6002 2.17756C45.9539 2.17756 45.3662 2.34446 44.8371 2.67827C44.308 3.01207 43.8872 3.50391 43.5747 4.15376C43.2622 4.80362 43.1059 5.60085 43.1059 6.54545C43.1059 7.49006 43.2639 8.28729 43.58 8.93714C43.896 9.587 44.324 10.0788 44.8637 10.4126C45.4035 10.7464 46.0107 10.9134 46.6855 10.9134C47.3105 10.9134 47.8609 10.7802 48.3367 10.5138C48.8161 10.244 49.189 9.86399 49.4553 9.37393C49.7252 8.88033 49.8602 8.29972 49.8602 7.6321L50.265 7.71733H46.9838V6.54545H51.1386V7.71733C51.1386 8.61577 50.9468 9.39702 50.5633 10.0611C50.1833 10.7251 49.6578 11.2401 48.9866 11.6058C48.319 11.968 47.5519 12.1491 46.6855 12.1491C45.7195 12.1491 44.8708 11.9219 44.1393 11.4673C43.4113 11.0128 42.8431 10.3665 42.4347 9.52841C42.0299 8.69034 41.8275 7.69602 41.8275 6.54545C41.8275 5.68253 41.9429 4.9066 42.1737 4.21768C42.4081 3.52521 42.7384 2.93572 43.1645 2.44922C43.5906 1.96271 44.0949 1.58984 44.6773 1.33061C45.2597 1.07138 45.9007 0.941761 46.6002 0.941761C47.1755 0.941761 47.7117 1.02876 48.2089 1.20277C48.7096 1.37322 49.1553 1.61648 49.5459 1.93253C49.9401 2.24503 50.2686 2.61967 50.5313 3.05646C50.7941 3.4897 50.9752 3.97088 51.0747 4.5H49.711ZM53.4011 12V1.09091H57.215C57.975 1.09091 58.6017 1.2223 59.0953 1.48509C59.589 1.74432 59.9565 2.0941 60.198 2.53445C60.4395 2.97124 60.5602 3.45597 60.5602 3.98864C60.5602 4.45739 60.4767 4.84446 60.3098 5.14986C60.1465 5.45526 59.9299 5.69673 59.66 5.87429C59.3936 6.05185 59.1042 6.18324 58.7917 6.26847V6.375C59.1255 6.39631 59.4611 6.51349 59.7985 6.72656C60.1358 6.93963 60.4181 7.24503 60.6454 7.64276C60.8727 8.04048 60.9863 8.52699 60.9863 9.10227C60.9863 9.64915 60.862 10.141 60.6135 10.5778C60.3649 11.0146 59.9725 11.3608 59.4363 11.6165C58.9 11.8722 58.2022 12 57.3429 12H53.4011ZM54.7221 10.8281H57.3429C58.2058 10.8281 58.8184 10.6612 59.1806 10.3274C59.5463 9.99006 59.7292 9.58168 59.7292 9.10227C59.7292 8.73295 59.6351 8.39205 59.4469 8.07955C59.2587 7.76349 58.9906 7.51136 58.6426 7.32315C58.2946 7.13139 57.8826 7.03551 57.4068 7.03551H54.7221V10.8281ZM54.7221 5.88494H57.1724C57.5701 5.88494 57.9288 5.80682 58.2484 5.65057C58.5716 5.49432 58.8272 5.27415 59.0154 4.99006C59.2072 4.70597 59.3031 4.37216 59.3031 3.98864C59.3031 3.50923 59.1362 3.10263 58.8024 2.76882C58.4686 2.43146 57.9395 2.26278 57.215 2.26278H54.7221V5.88494ZM62.9652 12V11.0412L66.5661 7.09943C66.9886 6.63778 67.3366 6.23651 67.6101 5.8956C67.8835 5.55114 68.0859 5.22798 68.2173 4.92614C68.3523 4.62074 68.4197 4.30114 68.4197 3.96733C68.4197 3.58381 68.3274 3.25178 68.1428 2.97124C67.9616 2.6907 67.7131 2.47408 67.397 2.32138C67.081 2.16868 66.7259 2.09233 66.3317 2.09233C65.9126 2.09233 65.5469 2.17933 65.2344 2.35334C64.9254 2.52379 64.6857 2.76349 64.5153 3.07244C64.3484 3.38139 64.2649 3.74361 64.2649 4.15909H63.0078C63.0078 3.51989 63.1552 2.95881 63.4499 2.47585C63.7447 1.9929 64.146 1.61648 64.6538 1.34659C65.1651 1.0767 65.7386 0.941761 66.3743 0.941761C67.0135 0.941761 67.5799 1.0767 68.0735 1.34659C68.5671 1.61648 68.9542 1.98047 69.2347 2.43857C69.5153 2.89666 69.6555 3.40625 69.6555 3.96733C69.6555 4.36861 69.5827 4.76101 69.4371 5.14453C69.2951 5.5245 69.0465 5.94886 68.6914 6.41761C68.3398 6.88281 67.8516 7.45099 67.2266 8.12216L64.7763 10.7429V10.8281H69.8473V12H62.9652ZM72.0472 12V11.0412L75.6481 7.09943C76.0707 6.63778 76.4187 6.23651 76.6921 5.8956C76.9656 5.55114 77.168 5.22798 77.2994 4.92614C77.4343 4.62074 77.5018 4.30114 77.5018 3.96733C77.5018 3.58381 77.4094 3.25178 77.2248 2.97124C77.0437 2.6907 76.7951 2.47408 76.479 2.32138C76.163 2.16868 75.8079 2.09233 75.4137 2.09233C74.9947 2.09233 74.6289 2.17933 74.3164 2.35334C74.0075 2.52379 73.7678 2.76349 73.5973 3.07244C73.4304 3.38139 73.3469 3.74361 73.3469 4.15909H72.0898C72.0898 3.51989 72.2372 2.95881 72.532 2.47585C72.8267 1.9929 73.228 1.61648 73.7358 1.34659C74.2472 1.0767 74.8207 0.941761 75.4563 0.941761C76.0955 0.941761 76.6619 1.0767 77.1555 1.34659C77.6491 1.61648 78.0362 1.98047 78.3168 2.43857C78.5973 2.89666 78.7376 3.40625 78.7376 3.96733C78.7376 4.36861 78.6648 4.76101 78.5192 5.14453C78.3771 5.5245 78.1286 5.94886 77.7734 6.41761C77.4219 6.88281 76.9336 7.45099 76.3086 8.12216L73.8583 10.7429V10.8281H78.9293V12H72.0472Z" fill="black"/>
</svg>
