<svg width="53" height="14" viewBox="0 0 53 14" fill="none" xmlns="http://www.w3.org/2000/svg">
<path d="M7.92676 3.88423C7.86236 3.31274 7.59674 2.87003 7.12988 2.55611C6.66303 2.23816 6.07543 2.07919 5.3671 2.07919C4.86 2.07919 4.42131 2.15968 4.05105 2.32067C3.68078 2.47763 3.39302 2.69496 3.18777 2.97266C2.98654 3.24633 2.88592 3.55824 2.88592 3.90838C2.88592 4.20218 2.95434 4.45573 3.09118 4.66903C3.23204 4.88234 3.41516 5.06143 3.64054 5.20632C3.86994 5.34718 4.11544 5.46591 4.37704 5.5625C4.63864 5.65507 4.89018 5.73153 5.13166 5.7919L6.33904 6.10582C6.73346 6.20241 7.13793 6.33321 7.55247 6.49822C7.967 6.66323 8.35136 6.88056 8.70552 7.15021C9.05969 7.41986 9.34544 7.75391 9.56277 8.15234C9.78412 8.55078 9.8948 9.0277 9.8948 9.5831C9.8948 10.2834 9.71369 10.9052 9.35147 11.4485C8.99328 11.9918 8.47209 12.4205 7.78791 12.7344C7.10775 13.0483 6.28471 13.2053 5.3188 13.2053C4.39314 13.2053 3.59224 13.0584 2.9161 12.7646C2.23997 12.4708 1.71073 12.0542 1.32839 11.5149C0.946052 10.9716 0.73476 10.3277 0.694514 9.5831H2.56596C2.60218 10.0298 2.74707 10.4021 3.00062 10.6999C3.2582 10.9937 3.5862 11.2131 3.98464 11.358C4.3871 11.4988 4.8278 11.5692 5.30673 11.5692C5.83396 11.5692 6.30282 11.4867 6.71333 11.3217C7.12787 11.1527 7.45387 10.9193 7.69132 10.6214C7.92877 10.3196 8.0475 9.96745 8.0475 9.56499C8.0475 9.19875 7.94286 8.89891 7.73358 8.66548C7.52832 8.43205 7.24861 8.23887 6.89444 8.08594C6.5443 7.933 6.14788 7.79818 5.70517 7.68146L4.24423 7.28303C3.25417 7.01338 2.46937 6.61695 1.88983 6.09375C1.31431 5.57055 1.02654 4.87831 1.02654 4.01704C1.02654 3.30469 1.21973 2.68288 1.60609 2.15163C1.99245 1.62038 2.51565 1.20786 3.17569 0.914062C3.83573 0.61624 4.58029 0.467329 5.40936 0.467329C6.24648 0.467329 6.985 0.614228 7.62491 0.908025C8.26885 1.20182 8.77595 1.6063 9.14622 2.12145C9.51648 2.63258 9.70967 3.22017 9.72576 3.88423H7.92676ZM14.5447 13L11.1158 0.636363H13.0778L15.4865 10.2109H15.6012L18.1065 0.636363H20.0504L22.5558 10.217H22.6705L25.0732 0.636363H27.0412L23.6062 13H21.7287L19.1268 3.73935H19.0302L16.4283 13H14.5447ZM30.6075 0.636363V13H28.7421V0.636363H30.6075ZM33.3241 13V0.636363H40.991V2.24219H35.1895V6.00923H40.4417V7.60902H35.1895V13H33.3241ZM42.6753 2.24219V0.636363H52.2439V2.24219H48.3863V13H46.5269V2.24219H42.6753Z" fill="black"/>
</svg>
