<svg width="205" height="129" viewBox="0 0 205 129" fill="none" xmlns="http://www.w3.org/2000/svg">
<g clip-path="url(#clip0_2_4833)">
<rect x="0.414795" width="203.8" height="128.565" rx="7.54727" fill="#20201B"/>
<g filter="url(#filter0_d_2_4833)">
<path d="M142.96 117.629L200.412 18.1198L257.864 117.629L142.96 117.629Z" fill="white"/>
</g>
<g filter="url(#filter1_d_2_4833)">
<path d="M70.5613 178.488L116.459 98.9915L162.356 178.488L70.5613 178.488Z" fill="white"/>
</g>
<g filter="url(#filter2_d_2_4833)">
<path d="M114.718 132.008L172.17 32.4987L229.621 132.008L114.718 132.008Z" fill="white"/>
</g>
<g filter="url(#filter3_d_2_4833)">
<path d="M114.718 132.008L172.17 32.4987L229.621 132.008L114.718 132.008Z" fill="white"/>
</g>
<path d="M13.5093 74.9697L0.158203 57.5107V74.9697H13.5093Z" fill="#1D1D1D"/>
<path d="M71.1292 109.888L61.5217 121.699H82.0618L71.1292 109.888Z" fill="#FFF741"/>
<path d="M28.4836 91.9153L14.793 110.915H44.0626L28.4836 91.9153Z" fill="#FFF741"/>
<path d="M8.78827 61.1065L-0.0986328 73.4306H18.9009L8.78827 61.1065Z" fill="#FFF741"/>
<g filter="url(#filter4_d_2_4833)">
<path d="M30.3719 129.915L44.0625 110.916L14.7929 110.916L30.3719 129.915Z" fill="#2A2A2A"/>
</g>
<g filter="url(#filter5_d_2_4833)">
<path d="M1.10234 129.915L14.793 110.916L-14.4767 110.916L1.10234 129.915Z" fill="#2A2A2A"/>
</g>
<g filter="url(#filter6_d_2_4833)">
<path d="M14.9668 110.402L28.6575 129.401L-0.612154 129.401L14.9668 110.402Z" fill="#FFF741"/>
</g>
<g filter="url(#filter7_d_2_4833)">
<path d="M0.0752373 72.9175L13.7659 91.9171L-15.5038 91.9171L0.0752373 72.9175Z" fill="#FFF741"/>
</g>
<path d="M43.6154 110.403L29.6846 129.736H59.4677L43.6154 110.403Z" fill="#FFF741"/>
<g filter="url(#filter8_d_2_4833)">
<path d="M14.9668 110.915L28.6575 91.9153L-0.612154 91.9153L14.9668 110.915Z" fill="#FFF741"/>
</g>
<g filter="url(#filter9_d_2_4833)">
<path d="M0.0752373 73.4309L13.7659 54.4313L-15.5038 54.4313L0.0752373 73.4309Z" fill="#FFF741"/>
</g>
<g filter="url(#filter10_d_2_4833)">
<path d="M13.7661 91.9168L29.171 73.4307L-1.38238 73.174L13.7661 91.9168Z" fill="#2A2A2A"/>
</g>
<path d="M146.763 80.363L189.641 68.5524L157.29 63.1606L182.708 56.2284L164.479 51.6068L171.925 44.9313" stroke="black" stroke-opacity="0.1" stroke-width="0.513502"/>
<rect x="20.8899" y="45.9503" width="24.5227" height="18.5706" rx="3.57126" fill="url(#paint0_linear_2_4833)" stroke="#666666" stroke-width="0.476168"/>
<path fill-rule="evenodd" clip-rule="evenodd" d="M36.6649 49.8935C35.8106 48.1873 34.4684 46.8475 33.5856 46.324C33.5272 46.2902 33.4846 46.2346 33.4672 46.1695C33.4498 46.1043 33.459 46.0349 33.4928 45.9765C33.5265 45.9181 33.5821 45.8756 33.6473 45.8582C33.7124 45.8408 33.7818 45.8499 33.8402 45.8837C34.9967 46.5619 36.3413 48.1183 37.1123 49.6556C37.1309 49.685 37.1427 49.7181 37.1471 49.7527C37.1515 49.7872 37.1482 49.8223 37.1375 49.8554C37.1269 49.8885 37.1091 49.9189 37.0854 49.9444C37.0617 49.9699 37.0327 49.9899 37.0004 50.003C36.9661 50.0215 36.9277 50.0314 36.8886 50.0315C36.8422 50.0316 36.7967 50.0187 36.7571 49.9943C36.7176 49.9699 36.6857 49.935 36.6649 49.8935ZM28.9309 58.0584C28.9475 60.4238 31.1725 63.2438 32.7051 64.1552C32.7347 64.1707 32.7606 64.1921 32.7814 64.2183C32.8021 64.2444 32.8171 64.2746 32.8254 64.3069C32.8337 64.3393 32.8351 64.373 32.8296 64.4059C32.824 64.4387 32.8116 64.4701 32.7931 64.4979C32.7707 64.5354 32.739 64.5664 32.701 64.5881C32.6631 64.6098 32.6203 64.6213 32.5766 64.6216C32.532 64.6218 32.4883 64.6094 32.4504 64.5859C30.8156 63.6222 28.5787 60.8046 28.4359 58.2821H20.9017C20.8394 58.276 20.7815 58.2469 20.7394 58.2005C20.6973 58.1541 20.6739 58.0937 20.6739 58.031C20.6739 57.9684 20.6973 57.9079 20.7394 57.8615C20.7815 57.8151 20.8394 57.7861 20.9017 57.78H28.4835C28.9583 56.1157 28.9583 54.3517 28.4835 52.6874H20.9017C20.8355 52.6874 20.7719 52.6611 20.725 52.6142C20.6782 52.5674 20.6519 52.5038 20.6519 52.4375C20.6519 52.3713 20.6782 52.3077 20.725 52.2608C20.7719 52.214 20.8355 52.1877 20.9017 52.1877H28.4359C28.5787 49.6557 30.8251 46.8476 32.4504 45.8838C32.5088 45.85 32.5782 45.8409 32.6434 45.8583C32.7085 45.8757 32.7641 45.9182 32.7979 45.9766C32.8317 46.035 32.8408 46.1044 32.8234 46.1696C32.806 46.2347 32.7635 46.2903 32.7051 46.3241C31.1725 47.2236 28.9475 50.0459 28.9309 52.4137C29.4759 54.2558 29.4759 56.2163 28.9309 58.0584ZM45.4008 57.7799H37.8048C37.3299 56.1155 37.3299 54.3516 37.8048 52.6873H45.4008C45.4671 52.6873 45.5306 52.661 45.5775 52.6141C45.6244 52.5672 45.6507 52.5037 45.6507 52.4374C45.6507 52.3712 45.6244 52.3076 45.5775 52.2607C45.5306 52.2139 45.4671 52.1876 45.4008 52.1876H37.612C37.5579 52.1882 37.5054 52.2064 37.4624 52.2394C37.4195 52.2725 37.3885 52.3186 37.3741 52.3708C36.8208 54.2263 36.8208 56.2028 37.3741 58.0583C37.3574 60.4237 35.1324 63.2437 33.5998 64.1551C33.5695 64.1697 33.5426 64.1905 33.5209 64.2163C33.4991 64.242 33.4832 64.2721 33.4739 64.3045C33.4647 64.3369 33.4625 64.3709 33.4674 64.4042C33.4722 64.4375 33.4841 64.4694 33.5023 64.4978C33.5247 64.5352 33.5564 64.5663 33.5944 64.588C33.6323 64.6097 33.6752 64.6212 33.7188 64.6215C33.7634 64.6217 33.8071 64.6093 33.845 64.5858C35.4703 63.6339 37.7167 60.8045 37.8595 58.282H45.4008C45.4632 58.2759 45.5211 58.2468 45.5632 58.2004C45.6053 58.154 45.6286 58.0936 45.6286 58.0309C45.6286 57.9683 45.6053 57.9078 45.5632 57.8614C45.5211 57.815 45.4632 57.7859 45.4008 57.7799ZM32.8968 47.2466C32.9703 47.1974 33.0568 47.1712 33.1453 47.1712C33.264 47.1712 33.3778 47.2183 33.4617 47.3022C33.5456 47.3861 33.5927 47.4999 33.5927 47.6185C33.5927 47.707 33.5665 47.7935 33.5173 47.8671C33.4682 47.9407 33.3983 47.998 33.3165 48.0319C33.2348 48.0657 33.1448 48.0746 33.058 48.0573C32.9713 48.0401 32.8915 47.9975 32.829 47.9349C32.7664 47.8723 32.7238 47.7926 32.7065 47.7058C32.6893 47.619 32.6981 47.5291 32.732 47.4473C32.7659 47.3656 32.8232 47.2957 32.8968 47.2466Z" fill="#666666"/>
<path d="M51.859 53.6059C51.8043 53.5318 51.7648 53.4478 51.7426 53.3584C51.7204 53.2691 51.716 53.1763 51.7297 53.0853C51.7574 52.9015 51.8569 52.7362 52.0064 52.6257C52.1559 52.5153 52.3432 52.4688 52.527 52.4964C52.7108 52.5241 52.8761 52.6236 52.9865 52.7731C53.2455 53.1207 53.4479 53.507 53.5862 53.9177C53.7301 54.3439 53.803 54.7908 53.8021 55.2406C53.8026 55.6892 53.7297 56.1349 53.5862 56.56C53.4479 56.9707 53.2455 57.357 52.9865 57.7046C52.8761 57.8541 52.7108 57.9536 52.527 57.9813C52.3432 58.0089 52.1559 57.9624 52.0064 57.852C51.8569 57.7415 51.7574 57.5762 51.7297 57.3924C51.7021 57.2086 51.7486 57.0213 51.859 56.8718C52.0301 56.6441 52.1643 56.3908 52.2566 56.1213C52.3547 55.8379 52.4056 55.5404 52.4074 55.2406C52.4085 54.9424 52.3611 54.6461 52.2668 54.3632C52.1721 54.0907 52.0344 53.835 51.859 53.6059ZM54.2579 52.3002C54.8034 53.1837 55.0907 54.2022 55.0873 55.2406C55.092 56.277 54.8071 57.2942 54.2648 58.1775C54.2164 58.2558 54.1839 58.3429 54.1692 58.4338C54.1545 58.5246 54.1578 58.6175 54.1789 58.7071C54.2001 58.7967 54.2387 58.8812 54.2925 58.9559C54.3464 59.0305 54.4144 59.0938 54.4927 59.1422C54.571 59.1906 54.6581 59.2231 54.7489 59.2378C54.8398 59.2525 54.9327 59.2492 55.0222 59.2281C55.1118 59.2069 55.1964 59.1683 55.271 59.1145C55.3457 59.0606 55.409 58.9926 55.4574 58.9143C56.1369 57.81 56.4931 56.5372 56.4855 55.2406C56.4936 53.9428 56.1374 52.6688 55.4574 51.5634C55.409 51.4851 55.3457 51.417 55.271 51.3632C55.1964 51.3094 55.1118 51.2708 55.0222 51.2496C54.9327 51.2285 54.8398 51.2251 54.7489 51.2399C54.6581 51.2546 54.571 51.2871 54.4927 51.3355C54.4144 51.3838 54.3464 51.4472 54.2925 51.5218C54.2387 51.5965 54.2001 51.681 54.1789 51.7706C54.1578 51.8602 54.1545 51.9531 54.1692 52.0439C54.1839 52.1348 54.2164 52.2219 54.2648 52.3002H54.2579ZM56.8111 50.9808C57.5683 52.2776 57.9669 53.7525 57.966 55.2543C57.9665 56.7549 57.5679 58.2286 56.8111 59.5243C56.7645 59.6038 56.734 59.6916 56.7214 59.7828C56.7087 59.874 56.7142 59.9668 56.7374 60.0559C56.7607 60.145 56.8012 60.2287 56.8568 60.3021C56.9123 60.3756 56.9818 60.4373 57.0613 60.4839C57.1407 60.5305 57.2285 60.561 57.3197 60.5736C57.4109 60.5862 57.5037 60.5808 57.5928 60.5576C57.682 60.5343 57.7656 60.4938 57.839 60.4382C57.9125 60.3826 57.9742 60.3132 58.0208 60.2337C58.9056 58.7249 59.3706 57.0068 59.3676 55.2577C59.3735 53.5022 58.9096 51.777 58.0242 50.2611C57.9288 50.1002 57.7734 49.9838 57.5921 49.9376C57.4109 49.8913 57.2187 49.9189 57.0578 50.0143C56.8969 50.1098 56.7806 50.2652 56.7343 50.4465C56.688 50.6277 56.7156 50.8199 56.8111 50.9808ZM59.3539 49.6442C60.3279 51.3533 60.8383 53.2872 60.8344 55.2543C60.8378 57.2202 60.3275 59.1529 59.3539 60.8609C59.3089 60.9408 59.2801 61.0287 59.2691 61.1198C59.2581 61.2108 59.2651 61.3031 59.2898 61.3914C59.3144 61.4797 59.3562 61.5623 59.4128 61.6344C59.4694 61.7066 59.5396 61.7669 59.6195 61.8119C59.6994 61.8569 59.7874 61.8857 59.8784 61.8967C59.9694 61.9077 60.0617 61.9007 60.15 61.876C60.2383 61.8514 60.3209 61.8096 60.3931 61.753C60.4652 61.6964 60.5255 61.6262 60.5705 61.5463C61.6643 59.6261 62.2383 57.4538 62.2361 55.244C62.2411 53.0283 61.667 50.8499 60.5705 48.9246C60.4796 48.7632 60.3284 48.6446 60.15 48.5948C59.9717 48.545 59.7809 48.5681 59.6195 48.659C59.4582 48.7498 59.3396 48.9011 59.2898 49.0794C59.24 49.2578 59.263 49.4486 59.3539 49.61" fill="#323232"/>
<path d="M179.642 95.4471H166.891V116.272H179.642V95.4471Z" fill="#FF5F00"/>
<path d="M168.205 105.861C168.203 103.856 168.658 101.877 169.534 100.073C170.41 98.2695 171.685 96.6888 173.263 95.4507C171.309 93.9153 168.963 92.9605 166.492 92.6955C164.021 92.4304 161.526 92.8658 159.291 93.9519C157.056 95.038 155.172 96.731 153.854 98.8374C152.535 100.944 151.836 103.378 151.836 105.863C151.836 108.348 152.535 110.783 153.854 112.889C155.172 114.996 157.056 116.689 159.291 117.775C161.526 118.861 164.021 119.296 166.492 119.031C168.963 118.766 171.309 117.811 173.263 116.276C171.685 115.037 170.409 113.456 169.533 111.652C168.657 109.847 168.202 107.867 168.205 105.861Z" fill="#EB001B"/>
<path d="M193.426 114.069V113.642H193.61V113.554H193.172V113.642H193.345V114.069H193.426ZM194.276 114.069V113.554H194.143L193.989 113.922L193.834 113.554H193.702V114.069H193.798V113.679L193.941 114.014H194.04L194.184 113.679V114.069H194.276Z" fill="#F79E1B"/>
<path d="M194.691 105.861C194.691 108.347 193.992 110.781 192.673 112.888C191.355 114.994 189.47 116.687 187.235 117.773C185 118.859 182.504 119.294 180.033 119.029C177.563 118.763 175.216 117.808 173.263 116.272C174.84 115.033 176.114 113.452 176.991 111.648C177.867 109.844 178.323 107.865 178.323 105.86C178.323 103.854 177.867 101.875 176.991 100.071C176.114 98.2674 174.84 96.6862 173.263 95.447C175.216 93.9111 177.563 92.9559 180.033 92.6905C182.504 92.4251 185 92.8602 187.235 93.9461C189.47 95.0321 191.355 96.725 192.673 98.8315C193.992 100.938 194.691 103.373 194.691 105.858V105.861Z" fill="#F79E1B"/>
<path d="M11.8611 11.2901V23.2376H13.2145V14.1603H13.3312L17.0648 23.2376H18.3715L22.1051 14.1603H22.2218V23.2376H23.5752V11.2901H21.8484L17.7882 21.2075H17.6481L13.5879 11.2901H11.8611ZM26.9828 23.2376L28.1846 19.8541H33.0149L34.2167 23.2376H35.7334L31.3465 11.2901H29.853L25.4661 23.2376H26.9828ZM28.6396 18.5706L30.5531 13.1803H30.6464L32.5599 18.5706H28.6396ZM38.1012 23.2376L39.3029 19.8541H44.1333L45.335 23.2376H46.8518L42.4648 11.2901H40.9714L36.5844 23.2376H38.1012ZM39.758 18.5706L41.6714 13.1803H41.7648L43.6783 18.5706H39.758ZM46.4835 11.2901L50.8005 18.314V23.2376H52.2473V18.314L56.5642 11.2901H54.9075L51.5939 16.8672H51.4539L48.1403 11.2901H46.4835ZM57.7229 23.2376L58.9247 19.8541H63.755L64.9568 23.2376H66.4736L62.0866 11.2901H60.5931L56.2062 23.2376H57.7229ZM59.3797 18.5706L61.2932 13.1803H61.3865L63.3 18.5706H59.3797ZM77.8253 11.2901H76.4018V20.6941H76.2852L69.7514 11.2901H68.3513V23.2376H69.798V13.857H69.9147L76.4252 23.2376H77.8253V11.2901Z" fill="#7B7B7B"/>
<path d="M11.5927 38.2376H13.757V34.2007H16.0439C18.8032 34.2007 20.285 32.5439 20.285 30.2454C20.285 27.9644 18.8207 26.2901 16.073 26.2901H11.5927V38.2376ZM13.757 32.4214V28.0986H15.7405C17.3623 28.0986 18.0798 28.9737 18.0798 30.2454C18.0798 31.5172 17.3623 32.4214 15.7522 32.4214H13.757ZM22.3844 38.2376L23.3703 35.2916H27.8623L28.854 38.2376H31.1642L26.9522 26.2901H24.2804L20.0742 38.2376H22.3844ZM23.9537 33.5531L25.5696 28.7403H25.663L27.2789 33.5531H23.9537ZM30.7186 26.2901L35.0647 33.7807V38.2376H37.2232V33.7807L41.5694 26.2901H39.125L36.2023 31.5755H36.0856L33.1629 26.2901H30.7186ZM43.1189 26.2901V38.2376H45.1957V30.0121H45.3066L48.6085 38.2026H50.1602L53.4621 30.0296H53.573V38.2376H55.6498V26.2901H53.0013L49.4544 34.9474H49.3144L45.7674 26.2901H43.1189ZM58.0234 38.2376H65.8406V36.4233H60.1877V33.1623H65.3914V31.348H60.1877V28.1044H65.7939V26.2901H58.0234V38.2376ZM77.8369 26.2901H75.6843V34.434H75.5793L69.9556 26.2901H68.0188V38.2376H70.1831V30.0996H70.2822L75.9118 38.2376H77.8369V26.2901ZM79.6869 28.1044H83.3797V38.2376H85.5265V28.1044H89.2193V26.2901H79.6869V28.1044ZM97.5666 29.5745H99.6492C99.6084 27.5561 97.8875 26.1268 95.3439 26.1268C92.8354 26.1268 90.9511 27.5386 90.957 29.6504C90.957 31.3655 92.1762 32.3514 94.1422 32.8589L95.5015 33.209C96.7907 33.5356 97.6424 33.9382 97.6483 34.8657C97.6424 35.8866 96.674 36.5692 95.2623 36.5692C93.9088 36.5692 92.8588 35.9625 92.7713 34.7082H90.642C90.7295 37.0826 92.4971 38.4185 95.2798 38.4185C98.1441 38.4185 99.8068 36.9892 99.8126 34.8832C99.8068 32.8123 98.0975 31.8672 96.3007 31.4413L95.1806 31.1613C94.2005 30.928 93.1388 30.5138 93.1505 29.5162C93.1563 28.6178 93.9614 27.9586 95.3148 27.9586C96.604 27.9586 97.4558 28.5595 97.5666 29.5745Z" fill="#515151"/>
<path d="M24.9679 83.7346C26.6166 83.7346 27.8256 82.5171 27.8256 80.86C27.8256 79.1818 26.6588 77.9516 25.0694 77.9516C24.486 77.9516 23.9195 78.1587 23.5644 78.442H23.5137L23.8181 75.8887H27.4367V74.9586H22.9388L22.4146 79.2198L23.3953 79.3382C23.7547 79.0803 24.3676 78.8943 24.9003 78.8985C26.0036 78.907 26.811 79.744 26.811 80.8769C26.811 81.9887 26.0332 82.8046 24.9679 82.8046C24.0802 82.8046 23.3742 82.2339 23.2939 81.4518H22.2793C22.3427 82.7708 23.4799 83.7346 24.9679 83.7346ZM32.1383 83.7346C34.0491 83.7346 35.1482 82.1155 35.1482 79.2874C35.1482 76.4805 34.0322 74.8403 32.1383 74.8403C30.2445 74.8403 29.1284 76.4805 29.1284 79.2874C29.1284 82.1155 30.2275 83.7346 32.1383 83.7346ZM32.1383 82.8046C30.8786 82.8046 30.143 81.5406 30.143 79.2874C30.143 77.0385 30.887 75.7534 32.1383 75.7534C33.3896 75.7534 34.1336 77.0385 34.1336 79.2874C34.1336 81.5406 33.3981 82.8046 32.1383 82.8046ZM39.388 83.7346C41.2987 83.7346 42.3978 82.1155 42.3978 79.2874C42.3978 76.4805 41.2818 74.8403 39.388 74.8403C37.4941 74.8403 36.3781 76.4805 36.3781 79.2874C36.3781 82.1155 37.4772 83.7346 39.388 83.7346ZM39.388 82.8046C38.1282 82.8046 37.3927 81.5406 37.3927 79.2874C37.3927 77.0385 38.1367 75.7534 39.388 75.7534C40.6393 75.7534 41.3833 77.0385 41.3833 79.2874C41.3833 81.5406 40.6477 82.8046 39.388 82.8046ZM46.6376 83.7346C48.5484 83.7346 49.6475 82.1155 49.6475 79.2874C49.6475 76.4805 48.5315 74.8403 46.6376 74.8403C44.7438 74.8403 43.6278 76.4805 43.6278 79.2874C43.6278 82.1155 44.7269 83.7346 46.6376 83.7346ZM46.6376 82.8046C45.3779 82.8046 44.6423 81.5406 44.6423 79.2874C44.6423 77.0385 45.3863 75.7534 46.6376 75.7534C47.8889 75.7534 48.6329 77.0385 48.6329 79.2874C48.6329 81.5406 47.8974 82.8046 46.6376 82.8046Z" fill="#AAAEAF"/>
<path d="M60.0846 83.734C61.9953 83.734 63.0944 82.115 63.0944 79.2869C63.0944 76.4799 61.9784 74.8397 60.0846 74.8397C58.1907 74.8397 57.0747 76.4799 57.0747 79.2869C57.0747 82.115 58.1738 83.734 60.0846 83.734ZM60.0846 82.804C58.8248 82.804 58.0893 81.54 58.0893 79.2869C58.0893 77.0379 58.8333 75.7528 60.0846 75.7528C61.3359 75.7528 62.0799 77.0379 62.0799 79.2869C62.0799 81.54 61.3443 82.804 60.0846 82.804ZM67.3342 83.734C69.245 83.734 70.3441 82.115 70.3441 79.2869C70.3441 76.4799 69.2281 74.8397 67.3342 74.8397C65.4404 74.8397 64.3244 76.4799 64.3244 79.2869C64.3244 82.115 65.4235 83.734 67.3342 83.734ZM67.3342 82.804C66.0745 82.804 65.3389 81.54 65.3389 79.2869C65.3389 77.0379 66.0829 75.7528 67.3342 75.7528C68.5855 75.7528 69.3295 77.0379 69.3295 79.2869C69.3295 81.54 68.594 82.804 67.3342 82.804ZM74.5839 83.734C76.4947 83.734 77.5938 82.115 77.5938 79.2869C77.5938 76.4799 76.4777 74.8397 74.5839 74.8397C72.69 74.8397 71.574 76.4799 71.574 79.2869C71.574 82.115 72.6731 83.734 74.5839 83.734ZM74.5839 82.804C73.3241 82.804 72.5886 81.54 72.5886 79.2869C72.5886 77.0379 73.3326 75.7528 74.5839 75.7528C75.8352 75.7528 76.5792 77.0379 76.5792 79.2869C76.5792 81.54 75.8436 82.804 74.5839 82.804ZM81.8336 83.734C83.7443 83.734 84.8434 82.115 84.8434 79.2869C84.8434 76.4799 83.7274 74.8397 81.8336 74.8397C79.9397 74.8397 78.8237 76.4799 78.8237 79.2869C78.8237 82.115 79.9228 83.734 81.8336 83.734ZM81.8336 82.804C80.5738 82.804 79.8382 81.54 79.8382 79.2869C79.8382 77.0379 80.5823 75.7528 81.8336 75.7528C83.0848 75.7528 83.8289 77.0379 83.8289 79.2869C83.8289 81.54 83.0933 82.804 81.8336 82.804Z" fill="#AAAEAF"/>
<path d="M95.0831 83.734C96.9939 83.734 98.093 82.115 98.093 79.2869C98.093 76.4799 96.977 74.8397 95.0831 74.8397C93.1893 74.8397 92.0732 76.4799 92.0732 79.2869C92.0732 82.115 93.1723 83.734 95.0831 83.734ZM95.0831 82.804C93.8234 82.804 93.0878 81.54 93.0878 79.2869C93.0878 77.0379 93.8318 75.7528 95.0831 75.7528C96.3344 75.7528 97.0784 77.0379 97.0784 79.2869C97.0784 81.54 96.3429 82.804 95.0831 82.804ZM102.333 83.734C104.244 83.734 105.343 82.115 105.343 79.2869C105.343 76.4799 104.227 74.8397 102.333 74.8397C100.439 74.8397 99.3229 76.4799 99.3229 79.2869C99.3229 82.115 100.422 83.734 102.333 83.734ZM102.333 82.804C101.073 82.804 100.337 81.54 100.337 79.2869C100.337 77.0379 101.081 75.7528 102.333 75.7528C103.584 75.7528 104.328 77.0379 104.328 79.2869C104.328 81.54 103.593 82.804 102.333 82.804ZM109.582 83.734C111.493 83.734 112.592 82.115 112.592 79.2869C112.592 76.4799 111.476 74.8397 109.582 74.8397C107.689 74.8397 106.573 76.4799 106.573 79.2869C106.573 82.115 107.672 83.734 109.582 83.734ZM109.582 82.804C108.323 82.804 107.587 81.54 107.587 79.2869C107.587 77.0379 108.331 75.7528 109.582 75.7528C110.834 75.7528 111.578 77.0379 111.578 79.2869C111.578 81.54 110.842 82.804 109.582 82.804ZM116.832 83.734C118.743 83.734 119.842 82.115 119.842 79.2869C119.842 76.4799 118.726 74.8397 116.832 74.8397C114.938 74.8397 113.822 76.4799 113.822 79.2869C113.822 82.115 114.921 83.734 116.832 83.734ZM116.832 82.804C115.572 82.804 114.837 81.54 114.837 79.2869C114.837 77.0379 115.581 75.7528 116.832 75.7528C118.083 75.7528 118.827 77.0379 118.827 79.2869C118.827 81.54 118.092 82.804 116.832 82.804Z" fill="#AAAEAF"/>
<path d="M130.081 83.734C131.992 83.734 133.091 82.115 133.091 79.2869C133.091 76.4799 131.975 74.8397 130.081 74.8397C128.188 74.8397 127.072 76.4799 127.072 79.2869C127.072 82.115 128.171 83.734 130.081 83.734ZM130.081 82.804C128.822 82.804 128.086 81.54 128.086 79.2869C128.086 77.0379 128.83 75.7528 130.081 75.7528C131.333 75.7528 132.077 77.0379 132.077 79.2869C132.077 81.54 131.341 82.804 130.081 82.804ZM137.331 83.734C139.242 83.734 140.341 82.115 140.341 79.2869C140.341 76.4799 139.225 74.8397 137.331 74.8397C135.437 74.8397 134.321 76.4799 134.321 79.2869C134.321 82.115 135.42 83.734 137.331 83.734ZM137.331 82.804C136.071 82.804 135.336 81.54 135.336 79.2869C135.336 77.0379 136.08 75.7528 137.331 75.7528C138.582 75.7528 139.326 77.0379 139.326 79.2869C139.326 81.54 138.591 82.804 137.331 82.804ZM144.581 83.734C146.491 83.734 147.591 82.115 147.591 79.2869C147.591 76.4799 146.475 74.8397 144.581 74.8397C142.687 74.8397 141.571 76.4799 141.571 79.2869C141.571 82.115 142.67 83.734 144.581 83.734ZM144.581 82.804C143.321 82.804 142.585 81.54 142.585 79.2869C142.585 77.0379 143.329 75.7528 144.581 75.7528C145.832 75.7528 146.576 77.0379 146.576 79.2869C146.576 81.54 145.84 82.804 144.581 82.804ZM151.83 83.734C153.741 83.734 154.84 82.115 154.84 79.2869C154.84 76.4799 153.724 74.8397 151.83 74.8397C149.937 74.8397 148.821 76.4799 148.821 79.2869C148.821 82.115 149.92 83.734 151.83 83.734ZM151.83 82.804C150.571 82.804 149.835 81.54 149.835 79.2869C149.835 77.0379 150.579 75.7528 151.83 75.7528C153.082 75.7528 153.826 77.0379 153.826 79.2869C153.826 81.54 153.09 82.804 151.83 82.804Z" fill="#AAAEAF"/>
<path d="M21.9531 104.004V108.853H22.5023V105.169H22.5496L24.0647 108.853H24.595L26.1101 105.169H26.1574V108.853H26.7066V104.004H26.0059L24.3583 108.029H24.3014L22.6538 104.004H21.9531ZM27.9552 108.853H28.5423V106.959H29.6028C29.6455 106.959 29.6857 106.959 29.7259 106.956L30.7486 108.853H31.4304L30.3343 106.85C30.9522 106.639 31.241 106.135 31.241 105.491C31.241 104.634 30.7297 104.004 29.5934 104.004H27.9552V108.853ZM28.5423 106.428V104.525H29.5744C30.3604 104.525 30.6634 104.909 30.6634 105.491C30.6634 106.073 30.3604 106.428 29.5839 106.428H28.5423ZM32.6222 108.89C32.8565 108.89 33.0483 108.699 33.0483 108.464C33.0483 108.23 32.8565 108.038 32.6222 108.038C32.3878 108.038 32.1961 108.23 32.1961 108.464C32.1961 108.699 32.3878 108.89 32.6222 108.89ZM40.0457 105.519C39.8658 104.525 39.0704 103.938 38.095 103.938C36.8546 103.938 35.955 104.894 35.955 106.428C35.955 107.962 36.8546 108.919 38.095 108.919C39.0704 108.919 39.8658 108.332 40.0457 107.337H39.4586C39.3166 108.01 38.7389 108.37 38.095 108.37C37.2144 108.37 36.5231 107.688 36.5231 106.428C36.5231 105.169 37.2144 104.487 38.095 104.487C38.7389 104.487 39.3166 104.847 39.4586 105.519H40.0457ZM41.2647 108.853L41.7523 107.48H43.7125L44.2001 108.853H44.8156L43.0354 104.004H42.4294L40.6492 108.853H41.2647ZM41.937 106.959L42.7135 104.771H42.7513L43.5278 106.959H41.937ZM45.6422 108.853H46.2293V106.959H47.2899C47.3325 106.959 47.3728 106.959 47.413 106.956L48.4357 108.853H49.1175L48.0214 106.85C48.6393 106.639 48.9281 106.135 48.9281 105.491C48.9281 104.634 48.4167 104.004 47.2804 104.004H45.6422V108.853ZM46.2293 106.428V104.525H47.2615C48.0474 104.525 48.3505 104.909 48.3505 105.491C48.3505 106.073 48.0474 106.428 47.271 106.428H46.2293ZM51.4739 108.853C52.9511 108.853 53.7844 107.934 53.7844 106.419C53.7844 104.913 52.9511 104.004 51.5402 104.004H49.9778V108.853H51.4739ZM50.5649 108.332V104.525H51.5023C52.6387 104.525 53.2163 105.245 53.2163 106.419C53.2163 107.603 52.6387 108.332 51.4361 108.332H50.5649ZM54.8407 108.853H55.4278V106.684H58.0129V108.853H58.6V104.004H58.0129V106.163H55.4278V104.004H54.8407V108.853ZM63.9375 106.428C63.9375 104.894 63.0379 103.938 61.7974 103.938C60.5569 103.938 59.6574 104.894 59.6574 106.428C59.6574 107.962 60.5569 108.919 61.7974 108.919C63.0379 108.919 63.9375 107.962 63.9375 106.428ZM63.3693 106.428C63.3693 107.688 62.6781 108.37 61.7974 108.37C60.9168 108.37 60.2255 107.688 60.2255 106.428C60.2255 105.169 60.9168 104.487 61.7974 104.487C62.6781 104.487 63.3693 105.169 63.3693 106.428ZM64.9961 108.853H67.8368V108.332H65.5832V104.004H64.9961V108.853ZM70.3135 108.853C71.7907 108.853 72.624 107.934 72.624 106.419C72.624 104.913 71.7907 104.004 70.3797 104.004H68.8173V108.853H70.3135ZM69.4044 108.332V104.525H70.3419C71.4782 104.525 72.0558 105.245 72.0558 106.419C72.0558 107.603 71.4782 108.332 70.2756 108.332H69.4044ZM73.6802 108.853H76.6441V108.332H74.2673V106.684H76.4547V106.163H74.2673V104.525H76.6062V104.004H73.6802V108.853ZM77.7358 108.853H78.3229V106.959H79.3835C79.4261 106.959 79.4663 106.959 79.5066 106.956L80.5292 108.853H81.211L80.115 106.85C80.7328 106.639 81.0216 106.135 81.0216 105.491C81.0216 104.634 80.5103 104.004 79.374 104.004H77.7358V108.853ZM78.3229 106.428V104.525H79.355C80.141 104.525 80.444 104.909 80.444 105.491C80.444 106.073 80.141 106.428 79.3645 106.428H78.3229Z" fill="#AAAEAF"/>
<path d="M64.6379 97.0143C65.7079 97.0143 66.3235 96.1076 66.3235 94.5239C66.3235 92.952 65.6985 92.0335 64.6379 92.0335C63.5774 92.0335 62.9524 92.952 62.9524 94.5239C62.9524 96.1076 63.5679 97.0143 64.6379 97.0143ZM64.6379 96.4935C63.9325 96.4935 63.5206 95.7856 63.5206 94.5239C63.5206 93.2645 63.9372 92.5448 64.6379 92.5448C65.3386 92.5448 65.7553 93.2645 65.7553 94.5239C65.7553 95.7856 65.3434 96.4935 64.6379 96.4935ZM67.1808 95.9537H69.4629V96.948H70.0216V95.9537H70.6844V95.4329H70.0216V92.0997H69.3114L67.1808 95.4708V95.9537ZM69.4629 95.4329H67.8153V95.395L69.425 92.8478H69.4629V95.4329ZM73.3664 91.8725H72.8551L71.2927 97.6771H71.804L73.3664 91.8725ZM74.0906 96.948H77.1492V96.4272H74.8955V96.3893L75.9845 95.2246C76.8178 94.3321 77.064 93.9155 77.064 93.3781C77.064 92.63 76.458 92.0335 75.6057 92.0335C74.7559 92.0335 74.1096 92.6111 74.1096 93.4633H74.6683C74.6683 92.9117 75.0257 92.5448 75.5868 92.5448C76.1123 92.5448 76.5148 92.8667 76.5148 93.3781C76.5148 93.8255 76.252 94.1569 75.6909 94.7701L74.0906 96.5219V96.948ZM79.7797 97.0143C80.8497 97.0143 81.4652 96.1076 81.4652 94.5239C81.4652 92.952 80.8403 92.0335 79.7797 92.0335C78.7191 92.0335 78.0942 92.952 78.0942 94.5239C78.0942 96.1076 78.7097 97.0143 79.7797 97.0143ZM79.7797 96.4935C79.0742 96.4935 78.6623 95.7856 78.6623 94.5239C78.6623 93.2645 79.079 92.5448 79.7797 92.5448C80.4804 92.5448 80.8971 93.2645 80.8971 94.5239C80.8971 95.7856 80.4852 96.4935 79.7797 96.4935Z" fill="#AAAEAF"/>
<path d="M53.8163 91.7576H53.5745L54.2739 93.6622H54.512L55.2114 91.7576H54.9696L54.4041 93.3609H54.3818L53.8163 91.7576ZM55.4939 93.6622L55.6855 93.1228H56.4555L56.6471 93.6622H56.8889L56.1895 91.7576H55.9515L55.2521 93.6622H55.4939ZM55.758 92.9182L56.0631 92.0589H56.0779L56.383 92.9182H55.758ZM57.257 93.6622H58.373V93.4576H57.4877V91.7576H57.257V93.6622ZM59.0322 91.7576H58.8016V93.6622H59.0322V91.7576ZM60.1539 93.6622C60.7342 93.6622 61.0616 93.3014 61.0616 92.7062C61.0616 92.1147 60.7342 91.7576 60.1799 91.7576H59.5661V93.6622H60.1539ZM59.7968 93.4576V91.9622H60.165C60.6115 91.9622 60.8384 92.2449 60.8384 92.7062C60.8384 93.1712 60.6115 93.4576 60.139 93.4576H59.7968ZM53.6341 94.9622H54.233V96.6622H54.4636V94.9622H55.0626V94.7576H53.6341V94.9622ZM55.4899 96.6622H55.7206V95.8103H56.7362V96.6622H56.9668V94.7576H56.7362V95.6057H55.7206V94.7576H55.4899V96.6622ZM57.5 96.6622H57.7306V95.9182H58.1473C58.164 95.9182 58.1798 95.9182 58.1956 95.9173L58.5974 96.6622H58.8653L58.4347 95.8754C58.6774 95.7927 58.7909 95.5946 58.7909 95.3416C58.7909 95.0049 58.59 94.7576 58.1436 94.7576H57.5V96.6622ZM57.7306 95.7099V94.9622H58.1361C58.4449 94.9622 58.5639 95.1128 58.5639 95.3416C58.5639 95.5704 58.4449 95.7099 58.1398 95.7099H57.7306ZM60.4965 94.7576V96.0001C60.4965 96.2791 60.305 96.4799 59.9869 96.4799C59.6688 96.4799 59.4772 96.2791 59.4772 96.0001V94.7576H59.2466V96.0187C59.2466 96.4093 59.5386 96.6957 59.9869 96.6957C60.4352 96.6957 60.7272 96.4093 60.7272 96.0187V94.7576H60.4965Z" fill="#515151"/>
<path d="M159.929 3.83339C159.844 3.35527 159.454 2.98623 158.901 2.98623C158.245 2.98623 157.779 3.50746 157.779 4.32038C157.779 5.1333 158.245 5.65453 158.901 5.65453C159.454 5.65453 159.844 5.28421 159.929 4.80737H159.691C159.619 5.16373 159.308 5.43132 158.901 5.43132C158.409 5.43132 158.008 5.04199 158.008 4.32038C158.008 3.60131 158.409 3.20943 158.901 3.20943C159.308 3.20943 159.619 3.47829 159.691 3.83339H159.929ZM161.213 5.6596C161.718 5.6596 162.071 5.24743 162.071 4.65392C162.071 4.05659 161.718 3.64443 161.213 3.64443C160.709 3.64443 160.356 4.05659 160.356 4.65392C160.356 5.24743 160.709 5.6596 161.213 5.6596ZM161.213 5.45288C160.809 5.45288 160.583 5.09018 160.583 4.65392C160.583 4.21765 160.809 3.84987 161.213 3.84987C161.618 3.84987 161.844 4.21765 161.844 4.65392C161.844 5.09018 161.618 5.45288 161.213 5.45288ZM162.809 4.40154C162.809 4.06166 163.032 3.85241 163.339 3.85241C163.638 3.85241 163.831 4.05279 163.831 4.37111V5.61902H164.057V4.35716C164.057 3.89553 163.789 3.64569 163.396 3.64569C163.111 3.64569 162.914 3.77759 162.823 3.97669H162.802V3.67106H162.583V5.61902H162.809V4.40154ZM166.215 6.3495V3.67106H165.996V4.04264H165.968C165.889 3.86763 165.731 3.64443 165.373 3.64443C164.891 3.64443 164.568 4.04898 164.568 4.65011C164.568 5.25378 164.892 5.6596 165.369 5.6596C165.723 5.6596 165.89 5.4364 165.968 5.25758H165.988V6.3495H166.215ZM165.992 4.64631C165.992 5.11681 165.774 5.45288 165.397 5.45288C165.009 5.45288 164.795 5.10032 164.795 4.64631C164.795 4.19736 165.005 3.84987 165.397 3.84987C165.778 3.84987 165.992 4.17961 165.992 4.64631ZM168.06 4.87458C168.06 5.23222 167.791 5.42498 167.528 5.42498C167.246 5.42498 167.048 5.22334 167.048 4.91897V3.67106H166.823V4.93292C166.823 5.39455 167.089 5.64438 167.463 5.64438C167.748 5.64438 167.951 5.496 168.043 5.29563H168.06V5.61902H168.286V3.67106H168.06V4.87458ZM169.688 5.6596C170.079 5.6596 170.341 5.44781 170.43 5.20305L170.216 5.1333C170.141 5.30831 169.965 5.45288 169.688 5.45288C169.29 5.45288 169.037 5.16247 169.027 4.71225H170.478V4.60065C170.478 3.95006 170.076 3.64443 169.654 3.64443C169.149 3.64443 168.8 4.06674 168.8 4.65645C168.8 5.24743 169.143 5.6596 169.688 5.6596ZM169.029 4.51314C169.053 4.15044 169.297 3.84987 169.654 3.84987C170.003 3.84987 170.247 4.13776 170.247 4.51314H169.029ZM170.992 5.61902H171.218V4.36096C171.218 4.07181 171.44 3.86256 171.744 3.86256C171.804 3.86256 171.86 3.8727 171.88 3.87524V3.64569C171.85 3.64443 171.798 3.64189 171.761 3.64189C171.516 3.64189 171.307 3.77378 171.228 3.97035H171.212V3.67106H170.992V5.61902ZM172.285 5.61902H172.512V3.67106H172.285V5.61902ZM172.4 3.33625C172.493 3.33625 172.57 3.2627 172.57 3.17392C172.57 3.08515 172.493 3.01159 172.4 3.01159C172.307 3.01159 172.231 3.08515 172.231 3.17392C172.231 3.2627 172.307 3.33625 172.4 3.33625ZM173.351 4.40154C173.351 4.06166 173.574 3.85241 173.881 3.85241C174.181 3.85241 174.373 4.05279 174.373 4.37111V5.61902H174.599V4.35716C174.599 3.89553 174.331 3.64569 173.938 3.64569C173.653 3.64569 173.456 3.77759 173.365 3.97669H173.345V3.67106H173.125V5.61902H173.351V4.40154ZM175.953 6.39009C176.415 6.39009 176.757 6.16435 176.757 5.66975V3.67106H176.537V4.04264H176.514C176.434 3.86763 176.273 3.64443 175.915 3.64443C175.433 3.64443 175.11 4.04771 175.11 4.63996C175.11 5.23729 175.445 5.59873 175.912 5.59873C176.262 5.59873 176.433 5.39581 176.51 5.217H176.53V5.6558C176.53 6.0185 176.298 6.18717 175.953 6.18717C175.62 6.18717 175.46 6.02611 175.378 5.87773L175.192 5.99948C175.307 6.22268 175.555 6.39009 175.953 6.39009ZM175.938 5.39201C175.551 5.39201 175.337 5.08257 175.337 4.63616C175.337 4.19736 175.548 3.84987 175.938 3.84987C176.32 3.84987 176.534 4.17961 176.534 4.63616C176.534 5.10666 176.314 5.39201 175.938 5.39201ZM179.16 3.67106H178.748V3.20436H178.521V3.67106H178.231V3.86763H178.521V5.16373C178.521 5.48205 178.772 5.64819 179.022 5.64819C179.116 5.64819 179.179 5.63043 179.222 5.61395L179.174 5.40976C179.143 5.41864 179.102 5.42752 179.042 5.42752C178.889 5.42752 178.748 5.35523 178.748 5.11047V3.86763H179.16V3.67106ZM179.957 4.40154C179.957 4.06166 180.186 3.85241 180.498 3.85241C180.799 3.85241 180.992 4.05025 180.992 4.37111V5.61902H181.219V4.35716C181.219 3.89299 180.95 3.64569 180.555 3.64569C180.26 3.64569 180.069 3.77505 179.978 3.97669H179.957V3.02174H179.732V5.61902H179.957V4.40154ZM182.618 5.6596C183.009 5.6596 183.271 5.44781 183.36 5.20305L183.146 5.1333C183.071 5.30831 182.894 5.45288 182.618 5.45288C182.22 5.45288 181.967 5.16247 181.957 4.71225H183.408V4.60065C183.408 3.95006 183.006 3.64443 182.584 3.64443C182.079 3.64443 181.73 4.06674 181.73 4.65645C181.73 5.24743 182.073 5.6596 182.618 5.6596ZM181.958 4.51314C181.983 4.15044 182.227 3.84987 182.584 3.84987C182.932 3.84987 183.177 4.13776 183.177 4.51314H181.958ZM184.94 6.3495H185.167V5.25758H185.187C185.264 5.4364 185.432 5.6596 185.786 5.6596C186.262 5.6596 186.587 5.25378 186.587 4.65011C186.587 4.04898 186.264 3.64443 185.782 3.64443C185.424 3.64443 185.266 3.86763 185.187 4.04264H185.159V3.67106H184.94V6.3495ZM185.163 4.64631C185.163 4.17961 185.377 3.84987 185.758 3.84987C186.149 3.84987 186.36 4.19736 186.36 4.64631C186.36 5.10032 186.146 5.45288 185.758 5.45288C185.381 5.45288 185.163 5.11681 185.163 4.64631ZM187.886 5.6596C188.276 5.6596 188.539 5.44781 188.628 5.20305L188.413 5.1333C188.338 5.30831 188.162 5.45288 187.886 5.45288C187.487 5.45288 187.235 5.16247 187.225 4.71225H188.676V4.60065C188.676 3.95006 188.274 3.64443 187.851 3.64443C187.347 3.64443 186.998 4.06674 186.998 4.65645C186.998 5.24743 187.34 5.6596 187.886 5.6596ZM187.226 4.51314C187.25 4.15044 187.495 3.84987 187.851 3.84987C188.2 3.84987 188.445 4.13776 188.445 4.51314H187.226ZM189.734 5.66341C190.059 5.66341 190.256 5.48332 190.338 5.31084H190.352V5.61902H190.577V4.29628C190.577 3.77378 190.184 3.64443 189.886 3.64443C189.588 3.64443 189.281 3.76237 189.149 4.08069L189.364 4.15805C189.435 3.99064 189.611 3.84734 189.893 3.84734C190.188 3.84734 190.352 4.00967 190.352 4.27599V4.32165C190.352 4.46876 190.169 4.47129 189.842 4.51188C189.402 4.56641 189.094 4.68942 189.094 5.07496C189.094 5.45035 189.38 5.66341 189.734 5.66341ZM189.764 5.45669C189.51 5.45669 189.319 5.32099 189.319 5.0851C189.319 4.84922 189.512 4.7503 189.842 4.70972C190.002 4.69069 190.286 4.65518 190.352 4.59051V4.87205C190.352 5.19163 190.125 5.45669 189.764 5.45669ZM191.195 5.61902H191.42V4.86444L191.645 4.65392L192.408 5.61902H192.697L191.813 4.50554L192.647 3.67106H192.361L191.448 4.58797H191.42V3.02174H191.195V5.61902ZM194.396 4.09844C194.301 3.8169 194.093 3.64443 193.737 3.64443C193.344 3.64443 193.058 3.8689 193.058 4.18975C193.058 4.451 193.217 4.62855 193.556 4.70972L193.874 4.78581C194.088 4.83654 194.191 4.94687 194.191 5.10286C194.191 5.30577 193.997 5.45669 193.698 5.45669C193.431 5.45669 193.265 5.33621 193.211 5.1054L192.994 5.15866C193.062 5.48332 193.32 5.6596 193.701 5.6596C194.13 5.6596 194.424 5.42371 194.424 5.09271C194.424 4.83273 194.261 4.65899 193.935 4.57909L193.641 4.5068C193.398 4.44593 193.285 4.34828 193.285 4.17961C193.285 3.98177 193.474 3.84353 193.737 3.84353C193.999 3.84353 194.129 3.98177 194.19 4.15678L194.396 4.09844Z" fill="#AAAEAF"/>
<rect x="156.52" y="29.2695" width="23.1076" height="15.9186" fill="#20201B"/>
<g filter="url(#filter11_d_2_4833)">
<path d="M143.361 46.4076L158.395 50.436L147.389 61.4419L143.361 46.4076Z" fill="white"/>
</g>
<line x1="171.668" y1="37.1096" x2="171.668" y2="45.188" stroke="#515151" stroke-width="0.513502"/>
<rect x="160.627" y="31.837" width="12.324" height="6.72221" fill="#FFF741"/>
<rect x="163.129" y="32.6665" width="0.925881" height="5.06078" fill="black"/>
<rect x="164.686" y="33.2661" width="0.925881" height="3.16694" fill="black"/>
<rect x="166.243" y="32.6665" width="0.925881" height="5.06078" fill="black"/>
<rect x="168.063" y="32.6665" width="0.925881" height="5.06078" fill="black"/>
<path d="M169.62 32.6665C170.132 32.6665 170.546 33.081 170.546 33.5924V34.7918C170.546 35.3032 170.132 35.7177 169.62 35.7177V32.6665Z" fill="black"/>
</g>
<defs>
<filter id="filter0_d_2_4833" x="141.42" y="15.0388" width="120.038" height="104.644" filterUnits="userSpaceOnUse" color-interpolation-filters="sRGB">
<feFlood flood-opacity="0" result="BackgroundImageFix"/>
<feColorMatrix in="SourceAlpha" type="matrix" values="0 0 0 0 0 0 0 0 0 0 0 0 0 0 0 0 0 0 127 0" result="hardAlpha"/>
<feOffset dx="1.027" dy="-0.513502"/>
<feGaussianBlur stdDeviation="1.28376"/>
<feComposite in2="hardAlpha" operator="out"/>
<feColorMatrix type="matrix" values="0 0 0 0 0 0 0 0 0 0 0 0 0 0 0 0 0 0 0.15 0"/>
<feBlend mode="normal" in2="BackgroundImageFix" result="effect1_dropShadow_2_4833"/>
<feBlend mode="normal" in="SourceGraphic" in2="effect1_dropShadow_2_4833" result="shape"/>
</filter>
<filter id="filter1_d_2_4833" x="70.5613" y="98.9915" width="96.9302" height="85.6589" filterUnits="userSpaceOnUse" color-interpolation-filters="sRGB">
<feFlood flood-opacity="0" result="BackgroundImageFix"/>
<feColorMatrix in="SourceAlpha" type="matrix" values="0 0 0 0 0 0 0 0 0 0 0 0 0 0 0 0 0 0 127 0" result="hardAlpha"/>
<feOffset dx="2.56751" dy="3.59452"/>
<feGaussianBlur stdDeviation="1.28376"/>
<feComposite in2="hardAlpha" operator="out"/>
<feColorMatrix type="matrix" values="0 0 0 0 0 0 0 0 0 0 0 0 0 0 0 0 0 0 0.15 0"/>
<feBlend mode="normal" in2="BackgroundImageFix" result="effect1_dropShadow_2_4833"/>
<feBlend mode="normal" in="SourceGraphic" in2="effect1_dropShadow_2_4833" result="shape"/>
</filter>
<filter id="filter2_d_2_4833" x="108.042" y="32.4987" width="121.579" height="105.157" filterUnits="userSpaceOnUse" color-interpolation-filters="sRGB">
<feFlood flood-opacity="0" result="BackgroundImageFix"/>
<feColorMatrix in="SourceAlpha" type="matrix" values="0 0 0 0 0 0 0 0 0 0 0 0 0 0 0 0 0 0 127 0" result="hardAlpha"/>
<feOffset dx="-4.10802" dy="3.08101"/>
<feGaussianBlur stdDeviation="1.28376"/>
<feComposite in2="hardAlpha" operator="out"/>
<feColorMatrix type="matrix" values="0 0 0 0 0 0 0 0 0 0 0 0 0 0 0 0 0 0 0.1 0"/>
<feBlend mode="normal" in2="BackgroundImageFix" result="effect1_dropShadow_2_4833"/>
<feBlend mode="normal" in="SourceGraphic" in2="effect1_dropShadow_2_4833" result="shape"/>
</filter>
<filter id="filter3_d_2_4833" x="114.718" y="32.4987" width="120.552" height="104.644" filterUnits="userSpaceOnUse" color-interpolation-filters="sRGB">
<feFlood flood-opacity="0" result="BackgroundImageFix"/>
<feColorMatrix in="SourceAlpha" type="matrix" values="0 0 0 0 0 0 0 0 0 0 0 0 0 0 0 0 0 0 127 0" result="hardAlpha"/>
<feOffset dx="3.08101" dy="2.56751"/>
<feGaussianBlur stdDeviation="1.28376"/>
<feComposite in2="hardAlpha" operator="out"/>
<feColorMatrix type="matrix" values="0 0 0 0 0 0 0 0 0 0 0 0 0 0 0 0 0 0 0.1 0"/>
<feBlend mode="normal" in2="BackgroundImageFix" result="effect1_dropShadow_2_4833"/>
<feBlend mode="normal" in="SourceGraphic" in2="effect1_dropShadow_2_4833" result="shape"/>
</filter>
<filter id="filter4_d_2_4833" x="14.793" y="108.348" width="34.4046" height="24.1346" filterUnits="userSpaceOnUse" color-interpolation-filters="sRGB">
<feFlood flood-opacity="0" result="BackgroundImageFix"/>
<feColorMatrix in="SourceAlpha" type="matrix" values="0 0 0 0 0 0 0 0 0 0 0 0 0 0 0 0 0 0 127 0" result="hardAlpha"/>
<feOffset dx="2.56751"/>
<feGaussianBlur stdDeviation="1.28376"/>
<feComposite in2="hardAlpha" operator="out"/>
<feColorMatrix type="matrix" values="0 0 0 0 0 0 0 0 0 0 0 0 0 0 0 0 0 0 0.15 0"/>
<feBlend mode="normal" in2="BackgroundImageFix" result="effect1_dropShadow_2_4833"/>
<feBlend mode="normal" in="SourceGraphic" in2="effect1_dropShadow_2_4833" result="shape"/>
</filter>
<filter id="filter5_d_2_4833" x="-14.4766" y="108.348" width="34.4046" height="24.1346" filterUnits="userSpaceOnUse" color-interpolation-filters="sRGB">
<feFlood flood-opacity="0" result="BackgroundImageFix"/>
<feColorMatrix in="SourceAlpha" type="matrix" values="0 0 0 0 0 0 0 0 0 0 0 0 0 0 0 0 0 0 127 0" result="hardAlpha"/>
<feOffset dx="2.56751"/>
<feGaussianBlur stdDeviation="1.28376"/>
<feComposite in2="hardAlpha" operator="out"/>
<feColorMatrix type="matrix" values="0 0 0 0 0 0 0 0 0 0 0 0 0 0 0 0 0 0 0.15 0"/>
<feBlend mode="normal" in2="BackgroundImageFix" result="effect1_dropShadow_2_4833"/>
<feBlend mode="normal" in="SourceGraphic" in2="effect1_dropShadow_2_4833" result="shape"/>
</filter>
<filter id="filter6_d_2_4833" x="-0.612061" y="107.834" width="34.4046" height="24.1346" filterUnits="userSpaceOnUse" color-interpolation-filters="sRGB">
<feFlood flood-opacity="0" result="BackgroundImageFix"/>
<feColorMatrix in="SourceAlpha" type="matrix" values="0 0 0 0 0 0 0 0 0 0 0 0 0 0 0 0 0 0 127 0" result="hardAlpha"/>
<feOffset dx="2.56751"/>
<feGaussianBlur stdDeviation="1.28376"/>
<feComposite in2="hardAlpha" operator="out"/>
<feColorMatrix type="matrix" values="0 0 0 0 0 0 0 0 0 0 0 0 0 0 0 0 0 0 0.15 0"/>
<feBlend mode="normal" in2="BackgroundImageFix" result="effect1_dropShadow_2_4833"/>
<feBlend mode="normal" in="SourceGraphic" in2="effect1_dropShadow_2_4833" result="shape"/>
</filter>
<filter id="filter7_d_2_4833" x="-15.5037" y="70.35" width="34.4046" height="24.1346" filterUnits="userSpaceOnUse" color-interpolation-filters="sRGB">
<feFlood flood-opacity="0" result="BackgroundImageFix"/>
<feColorMatrix in="SourceAlpha" type="matrix" values="0 0 0 0 0 0 0 0 0 0 0 0 0 0 0 0 0 0 127 0" result="hardAlpha"/>
<feOffset dx="2.56751"/>
<feGaussianBlur stdDeviation="1.28376"/>
<feComposite in2="hardAlpha" operator="out"/>
<feColorMatrix type="matrix" values="0 0 0 0 0 0 0 0 0 0 0 0 0 0 0 0 0 0 0.15 0"/>
<feBlend mode="normal" in2="BackgroundImageFix" result="effect1_dropShadow_2_4833"/>
<feBlend mode="normal" in="SourceGraphic" in2="effect1_dropShadow_2_4833" result="shape"/>
</filter>
<filter id="filter8_d_2_4833" x="-0.612061" y="89.3478" width="34.4046" height="24.1346" filterUnits="userSpaceOnUse" color-interpolation-filters="sRGB">
<feFlood flood-opacity="0" result="BackgroundImageFix"/>
<feColorMatrix in="SourceAlpha" type="matrix" values="0 0 0 0 0 0 0 0 0 0 0 0 0 0 0 0 0 0 127 0" result="hardAlpha"/>
<feOffset dx="2.56751"/>
<feGaussianBlur stdDeviation="1.28376"/>
<feComposite in2="hardAlpha" operator="out"/>
<feColorMatrix type="matrix" values="0 0 0 0 0 0 0 0 0 0 0 0 0 0 0 0 0 0 0.15 0"/>
<feBlend mode="normal" in2="BackgroundImageFix" result="effect1_dropShadow_2_4833"/>
<feBlend mode="normal" in="SourceGraphic" in2="effect1_dropShadow_2_4833" result="shape"/>
</filter>
<filter id="filter9_d_2_4833" x="-15.5037" y="51.8638" width="34.4046" height="24.1346" filterUnits="userSpaceOnUse" color-interpolation-filters="sRGB">
<feFlood flood-opacity="0" result="BackgroundImageFix"/>
<feColorMatrix in="SourceAlpha" type="matrix" values="0 0 0 0 0 0 0 0 0 0 0 0 0 0 0 0 0 0 127 0" result="hardAlpha"/>
<feOffset dx="2.56751"/>
<feGaussianBlur stdDeviation="1.28376"/>
<feComposite in2="hardAlpha" operator="out"/>
<feColorMatrix type="matrix" values="0 0 0 0 0 0 0 0 0 0 0 0 0 0 0 0 0 0 0.15 0"/>
<feBlend mode="normal" in2="BackgroundImageFix" result="effect1_dropShadow_2_4833"/>
<feBlend mode="normal" in="SourceGraphic" in2="effect1_dropShadow_2_4833" result="shape"/>
</filter>
<filter id="filter10_d_2_4833" x="-1.38232" y="70.6065" width="35.6882" height="23.8779" filterUnits="userSpaceOnUse" color-interpolation-filters="sRGB">
<feFlood flood-opacity="0" result="BackgroundImageFix"/>
<feColorMatrix in="SourceAlpha" type="matrix" values="0 0 0 0 0 0 0 0 0 0 0 0 0 0 0 0 0 0 127 0" result="hardAlpha"/>
<feOffset dx="2.56751"/>
<feGaussianBlur stdDeviation="1.28376"/>
<feComposite in2="hardAlpha" operator="out"/>
<feColorMatrix type="matrix" values="0 0 0 0 0 0 0 0 0 0 0 0 0 0 0 0 0 0 0.15 0"/>
<feBlend mode="normal" in2="BackgroundImageFix" result="effect1_dropShadow_2_4833"/>
<feBlend mode="normal" in="SourceGraphic" in2="effect1_dropShadow_2_4833" result="shape"/>
</filter>
<filter id="filter11_d_2_4833" x="140.793" y="43.8401" width="20.1694" height="20.1694" filterUnits="userSpaceOnUse" color-interpolation-filters="sRGB">
<feFlood flood-opacity="0" result="BackgroundImageFix"/>
<feColorMatrix in="SourceAlpha" type="matrix" values="0 0 0 0 0 0 0 0 0 0 0 0 0 0 0 0 0 0 127 0" result="hardAlpha"/>
<feOffset/>
<feGaussianBlur stdDeviation="1.28376"/>
<feComposite in2="hardAlpha" operator="out"/>
<feColorMatrix type="matrix" values="0 0 0 0 0 0 0 0 0 0 0 0 0 0 0 0 0 0 0.15 0"/>
<feBlend mode="normal" in2="BackgroundImageFix" result="effect1_dropShadow_2_4833"/>
<feBlend mode="normal" in="SourceGraphic" in2="effect1_dropShadow_2_4833" result="shape"/>
</filter>
<linearGradient id="paint0_linear_2_4833" x1="18.271" y1="45.7122" x2="47.6744" y2="64.7589" gradientUnits="userSpaceOnUse">
<stop stop-color="#DDD9D6"/>
<stop offset="0.212761" stop-color="#8A868C"/>
<stop offset="0.548384" stop-color="#F2F3F3" stop-opacity="0.8"/>
<stop offset="0.914316" stop-color="#807C80"/>
<stop offset="1" stop-color="#A6A8AB"/>
</linearGradient>
<clipPath id="clip0_2_4833">
<rect x="0.414795" width="203.8" height="128.565" rx="7.54727" fill="white"/>
</clipPath>
</defs>
</svg>
